<?xml version="1.0" encoding="UTF-8" standalone="no"?>
<!DOCTYPE svg PUBLIC "-//W3C//DTD SVG 1.1//EN"
 "http://www.w3.org/Graphics/SVG/1.1/DTD/svg11.dtd">
<!-- Generated by graphviz version 4.0.0 (20220529.0937)
 -->
<!-- Title: dependency&#45;cruiser output Pages: 1 -->
<svg width="1246pt" height="662pt"
 viewBox="0.00 0.00 1246.00 662.01" xmlns="http://www.w3.org/2000/svg" xmlns:xlink="http://www.w3.org/1999/xlink">
<g id="graph0" class="graph" transform="scale(1 1) rotate(0) translate(4 658.01)">
<title>dependency&#45;cruiser output</title>
<polygon fill="white" stroke="transparent" points="-4,4 -4,-658.01 1242,-658.01 1242,4 -4,4"/>
<g id="clust1" class="cluster">
<title>cluster_bin</title>
<path fill="#ffffff" stroke="black" stroke-width="2" d="M896,-55.01C896,-55.01 1007,-55.01 1007,-55.01 1013,-55.01 1019,-61.01 1019,-67.01 1019,-67.01 1019,-125.01 1019,-125.01 1019,-131.01 1013,-137.01 1007,-137.01 1007,-137.01 896,-137.01 896,-137.01 890,-137.01 884,-131.01 884,-125.01 884,-125.01 884,-67.01 884,-67.01 884,-61.01 890,-55.01 896,-55.01"/>
<text text-anchor="middle" x="951.5" y="-125.81" font-family="Helvetica,sans-Serif" font-weight="bold" font-size="9.00">bin</text>
</g>
<g id="clust2" class="cluster">
<title>cluster_utils</title>
<path fill="#ffffff" stroke="black" stroke-width="2" d="M20,-241.01C20,-241.01 1218,-241.01 1218,-241.01 1224,-241.01 1230,-247.01 1230,-253.01 1230,-253.01 1230,-549.01 1230,-549.01 1230,-555.01 1224,-561.01 1218,-561.01 1218,-561.01 20,-561.01 20,-561.01 14,-561.01 8,-555.01 8,-549.01 8,-549.01 8,-253.01 8,-253.01 8,-247.01 14,-241.01 20,-241.01"/>
<text text-anchor="middle" x="619" y="-549.81" font-family="Helvetica,sans-Serif" font-weight="bold" font-size="9.00">utils</text>
</g>
<g id="clust3" class="cluster">
<title>cluster_utils/myfs</title>
<path fill="#ffffff" stroke="black" stroke-width="2" d="M370,-451.01C370,-451.01 533,-451.01 533,-451.01 539,-451.01 545,-457.01 545,-463.01 545,-463.01 545,-491.01 545,-491.01 545,-497.01 539,-503.01 533,-503.01 533,-503.01 370,-503.01 370,-503.01 364,-503.01 358,-497.01 358,-491.01 358,-491.01 358,-463.01 358,-463.01 358,-457.01 364,-451.01 370,-451.01"/>
<text text-anchor="middle" x="451.5" y="-491.81" font-family="Helvetica,sans-Serif" font-weight="bold" font-size="9.00">myfs</text>
</g>
<g id="clust4" class="cluster">
<title>cluster_utils/search</title>
<path fill="#ffffff" stroke="black" stroke-width="2" d="M452.5,-299.01C452.5,-299.01 672,-299.01 672,-299.01 678,-299.01 684,-305.01 684,-311.01 684,-311.01 684,-339.01 684,-339.01 684,-345.01 678,-351.01 672,-351.01 672,-351.01 452.5,-351.01 452.5,-351.01 446.5,-351.01 440.5,-345.01 440.5,-339.01 440.5,-339.01 440.5,-311.01 440.5,-311.01 440.5,-305.01 446.5,-299.01 452.5,-299.01"/>
<text text-anchor="middle" x="562.25" y="-339.81" font-family="Helvetica,sans-Serif" font-weight="bold" font-size="9.00">search</text>
</g>
<g id="clust5" class="cluster">
<title>cluster_utils/store</title>
<path fill="#ffffff" stroke="black" stroke-width="2" d="M568,-453.01C568,-453.01 975.5,-453.01 975.5,-453.01 981.5,-453.01 987.5,-459.01 987.5,-465.01 987.5,-465.01 987.5,-523.01 987.5,-523.01 987.5,-529.01 981.5,-535.01 975.5,-535.01 975.5,-535.01 568,-535.01 568,-535.01 562,-535.01 556,-529.01 556,-523.01 556,-523.01 556,-465.01 556,-465.01 556,-459.01 562,-453.01 568,-453.01"/>
<text text-anchor="middle" x="771.75" y="-523.81" font-family="Helvetica,sans-Serif" font-weight="bold" font-size="9.00">store</text>
</g>
<!-- bin/getProgramDirectory.mjs -->
<g id="node1" class="node">
<title>bin/getProgramDirectory.mjs</title>
<g id="a_node1"><a xlink:href="bin/getProgramDirectory.mjs" xlink:title="getProgramDirectory.mjs">
<path fill="#ffffcc" stroke="black" d="M1005,-81.01C1005,-81.01 898,-81.01 898,-81.01 895,-81.01 892,-78.01 892,-75.01 892,-75.01 892,-69.01 892,-69.01 892,-66.01 895,-63.01 898,-63.01 898,-63.01 1005,-63.01 1005,-63.01 1008,-63.01 1011,-66.01 1011,-69.01 1011,-69.01 1011,-75.01 1011,-75.01 1011,-78.01 1008,-81.01 1005,-81.01"/>
<text text-anchor="start" x="900" y="-69.81" font-family="Helvetica,sans-Serif" font-size="9.00">getProgramDirectory.mjs</text>
</a>
</g>
</g>
<!-- path -->
<g id="node2" class="node">
<title>path</title>
<g id="a_node2"><a xlink:title="path">
<path fill="#ffffcc" stroke="grey" d="M1205.5,-213.01C1205.5,-213.01 1163.5,-213.01 1163.5,-213.01 1160.5,-213.01 1157.5,-210.01 1157.5,-207.01 1157.5,-207.01 1157.5,-201.01 1157.5,-201.01 1157.5,-198.01 1160.5,-195.01 1163.5,-195.01 1163.5,-195.01 1205.5,-195.01 1205.5,-195.01 1208.5,-195.01 1211.5,-198.01 1211.5,-201.01 1211.5,-201.01 1211.5,-207.01 1211.5,-207.01 1211.5,-210.01 1208.5,-213.01 1205.5,-213.01"/>
<text text-anchor="middle" x="1184.5" y="-201.81" font-family="Helvetica,sans-Serif" font-size="9.00" fill="grey">path</text>
</a>
</g>
</g>
<!-- bin/getProgramDirectory.mjs&#45;&gt;path -->
<g id="edge1" class="edge">
<title>bin/getProgramDirectory.mjs&#45;&gt;path</title>
<path fill="none" stroke="#000000" stroke-dasharray="5,2" stroke-opacity="0.200000" d="M997.56,-62.97C1037.23,-57.65 1094.65,-56.68 1134,-85.01 1168.32,-109.72 1178.94,-162.8 1182.15,-188.9"/>
<polygon fill="#000000" fill-opacity="0.200000" stroke="#000000" stroke-opacity="0.200000" points="1180.07,-189.18 1182.82,-194.92 1184.25,-188.72 1180.07,-189.18"/>
</g>
<!-- url -->
<g id="node3" class="node">
<title>url</title>
<g id="a_node3"><a xlink:title="url">
<path fill="#ffffcc" stroke="grey" d="M1101.5,-109.01C1101.5,-109.01 1059.5,-109.01 1059.5,-109.01 1056.5,-109.01 1053.5,-106.01 1053.5,-103.01 1053.5,-103.01 1053.5,-97.01 1053.5,-97.01 1053.5,-94.01 1056.5,-91.01 1059.5,-91.01 1059.5,-91.01 1101.5,-91.01 1101.5,-91.01 1104.5,-91.01 1107.5,-94.01 1107.5,-97.01 1107.5,-97.01 1107.5,-103.01 1107.5,-103.01 1107.5,-106.01 1104.5,-109.01 1101.5,-109.01"/>
<text text-anchor="middle" x="1080.5" y="-97.81" font-family="Helvetica,sans-Serif" font-size="9.00" fill="grey">url</text>
</a>
</g>
</g>
<!-- bin/getProgramDirectory.mjs&#45;&gt;url -->
<g id="edge2" class="edge">
<title>bin/getProgramDirectory.mjs&#45;&gt;url</title>
<path fill="none" stroke="#000000" stroke-dasharray="5,2" stroke-opacity="0.200000" d="M993.38,-81.02C1010.95,-84.9 1031.17,-89.36 1047.6,-92.98"/>
<polygon fill="#000000" fill-opacity="0.200000" stroke="#000000" stroke-opacity="0.200000" points="1047.16,-95.03 1053.47,-94.27 1048.07,-90.93 1047.16,-95.03"/>
</g>
<!-- bin/index.js -->
<g id="node4" class="node">
<title>bin/index.js</title>
<g id="a_node4"><a xlink:href="bin/index.js" xlink:title="index.js">
<path fill="#ffffcc" stroke="black" d="M972.5,-111.01C972.5,-111.01 930.5,-111.01 930.5,-111.01 927.5,-111.01 924.5,-108.01 924.5,-105.01 924.5,-105.01 924.5,-99.01 924.5,-99.01 924.5,-96.01 927.5,-93.01 930.5,-93.01 930.5,-93.01 972.5,-93.01 972.5,-93.01 975.5,-93.01 978.5,-96.01 978.5,-99.01 978.5,-99.01 978.5,-105.01 978.5,-105.01 978.5,-108.01 975.5,-111.01 972.5,-111.01"/>
<text text-anchor="start" x="935.5" y="-99.81" font-family="Helvetica,sans-Serif" font-size="9.00">index.js</text>
</a>
</g>
</g>
<!-- utils/inspectErrorStack.mjs -->
<g id="node5" class="node">
<title>utils/inspectErrorStack.mjs</title>
<g id="a_node5"><a xlink:href="utils/inspectErrorStack.mjs" xlink:title="inspectErrorStack.mjs">
<path fill="#ffffcc" stroke="black" d="M1128,-319.01C1128,-319.01 1033,-319.01 1033,-319.01 1030,-319.01 1027,-316.01 1027,-313.01 1027,-313.01 1027,-307.01 1027,-307.01 1027,-304.01 1030,-301.01 1033,-301.01 1033,-301.01 1128,-301.01 1128,-301.01 1131,-301.01 1134,-304.01 1134,-307.01 1134,-307.01 1134,-313.01 1134,-313.01 1134,-316.01 1131,-319.01 1128,-319.01"/>
<text text-anchor="start" x="1035" y="-307.81" font-family="Helvetica,sans-Serif" font-size="9.00">inspectErrorStack.mjs</text>
</a>
</g>
</g>
<!-- bin/index.js&#45;&gt;utils/inspectErrorStack.mjs -->
<g id="edge3" class="edge">
<title>bin/index.js&#45;&gt;utils/inspectErrorStack.mjs</title>
<path fill="none" stroke="#000000" stroke-width="2" stroke-opacity="0.200000" d="M958.12,-111.22C978.16,-144.04 1046.22,-255.5 1070.66,-295.54"/>
<polygon fill="#000000" fill-opacity="0.200000" stroke="#000000" stroke-width="2" stroke-opacity="0.200000" points="1069.02,-296.88 1073.94,-300.91 1072.61,-294.7 1069.02,-296.88"/>
</g>
<!-- utils/nextCommand.mjs -->
<g id="node6" class="node">
<title>utils/nextCommand.mjs</title>
<g id="a_node6"><a xlink:href="utils/nextCommand.mjs" xlink:title="nextCommand.mjs">
<path fill="#ffffcc" stroke="black" d="M105,-378.01C105,-378.01 22,-378.01 22,-378.01 19,-378.01 16,-375.01 16,-372.01 16,-372.01 16,-366.01 16,-366.01 16,-363.01 19,-360.01 22,-360.01 22,-360.01 105,-360.01 105,-360.01 108,-360.01 111,-363.01 111,-366.01 111,-366.01 111,-372.01 111,-372.01 111,-375.01 108,-378.01 105,-378.01"/>
<text text-anchor="start" x="24" y="-366.81" font-family="Helvetica,sans-Serif" font-size="9.00">nextCommand.mjs</text>
</a>
</g>
</g>
<!-- bin/index.js&#45;&gt;utils/nextCommand.mjs -->
<g id="edge4" class="edge">
<title>bin/index.js&#45;&gt;utils/nextCommand.mjs</title>
<path fill="none" stroke="#000000" stroke-width="2" stroke-opacity="0.200000" d="M924.1,-96.64C856.12,-82.98 676.18,-48.01 615.5,-48.01 296,-48.01 296,-48.01 296,-48.01 143.21,-48.01 81.19,-290.2 67.53,-353.84"/>
<polygon fill="#000000" fill-opacity="0.200000" stroke="#000000" stroke-width="2" stroke-opacity="0.200000" points="65.46,-353.45 66.29,-359.75 69.57,-354.31 65.46,-353.45"/>
</g>
<!-- utils/inspectErrorStack.mjs&#45;&gt;bin/getProgramDirectory.mjs -->
<g id="edge24" class="edge">
<title>utils/inspectErrorStack.mjs&#45;&gt;bin/getProgramDirectory.mjs</title>
<path fill="none" stroke="#000000" stroke-width="2" stroke-opacity="0.200000" d="M1077.02,-300.76C1065.78,-258.75 1020.02,-87.98 1019,-87.01 1018.1,-86.15 1017.17,-85.34 1016.2,-84.57"/>
<polygon fill="#000000" fill-opacity="0.200000" stroke="#000000" stroke-width="2" stroke-opacity="0.200000" points="1017.23,-82.73 1011.09,-81.06 1014.85,-86.19 1017.23,-82.73"/>
</g>
<!-- utils/inspectErrorStack.mjs&#45;&gt;path -->
<g id="edge25" class="edge">
<title>utils/inspectErrorStack.mjs&#45;&gt;path</title>
<path fill="none" stroke="#000000" stroke-dasharray="5,2" stroke-opacity="0.200000" d="M1121.96,-301C1126.46,-298.66 1130.63,-295.72 1134,-292.01 1150.62,-273.75 1134.55,-259.33 1147,-238.01 1151.59,-230.14 1158.57,-223 1165.21,-217.32"/>
<polygon fill="#000000" fill-opacity="0.200000" stroke="#000000" stroke-opacity="0.200000" points="1166.85,-218.69 1170.16,-213.27 1164.19,-215.44 1166.85,-218.69"/>
</g>
<!-- utils/Tracer.mjs -->
<g id="node9" class="node">
<title>utils/Tracer.mjs</title>
<g id="a_node9"><a xlink:href="utils/Tracer.mjs" xlink:title="Tracer.mjs">
<path fill="#ffffcc" stroke="black" d="M976,-401.01C976,-401.01 927,-401.01 927,-401.01 924,-401.01 921,-398.01 921,-395.01 921,-395.01 921,-389.01 921,-389.01 921,-386.01 924,-383.01 927,-383.01 927,-383.01 976,-383.01 976,-383.01 979,-383.01 982,-386.01 982,-389.01 982,-389.01 982,-395.01 982,-395.01 982,-398.01 979,-401.01 976,-401.01"/>
<text text-anchor="start" x="929" y="-389.81" font-family="Helvetica,sans-Serif" font-size="9.00">Tracer.mjs</text>
</a>
</g>
</g>
<!-- utils/nextCommand.mjs&#45;&gt;utils/Tracer.mjs -->
<g id="edge40" class="edge">
<title>utils/nextCommand.mjs&#45;&gt;utils/Tracer.mjs</title>
<path fill="none" stroke="#000000" stroke-width="2" stroke-opacity="0.200000" d="M91.23,-378.07C133.96,-391.73 220.54,-416.01 296,-416.01 296,-416.01 296,-416.01 489,-416.01 647.8,-416.01 836.93,-401.66 914.55,-395.16"/>
<polygon fill="#000000" fill-opacity="0.200000" stroke="#000000" stroke-width="2" stroke-opacity="0.200000" points="915.03,-397.22 920.83,-394.63 914.68,-393.04 915.03,-397.22"/>
</g>
<!-- utils/commandContext.mjs -->
<g id="node10" class="node">
<title>utils/commandContext.mjs</title>
<g id="a_node10"><a xlink:href="utils/commandContext.mjs" xlink:title="commandContext.mjs">
<path fill="#ffffcc" stroke="black" d="M225,-378.01C225,-378.01 130,-378.01 130,-378.01 127,-378.01 124,-375.01 124,-372.01 124,-372.01 124,-366.01 124,-366.01 124,-363.01 127,-360.01 130,-360.01 130,-360.01 225,-360.01 225,-360.01 228,-360.01 231,-363.01 231,-366.01 231,-366.01 231,-372.01 231,-372.01 231,-375.01 228,-378.01 225,-378.01"/>
<text text-anchor="start" x="132" y="-366.81" font-family="Helvetica,sans-Serif" font-size="9.00">commandContext.mjs</text>
</a>
</g>
</g>
<!-- utils/nextCommand.mjs&#45;&gt;utils/commandContext.mjs -->
<g id="edge37" class="edge">
<title>utils/nextCommand.mjs&#45;&gt;utils/commandContext.mjs</title>
<path fill="none" stroke="#000000" stroke-width="2" stroke-opacity="0.200000" d="M111.03,-369.01C113.13,-369.01 115.25,-369.01 117.38,-369.01"/>
<polygon fill="#000000" fill-opacity="0.200000" stroke="#000000" stroke-width="2" stroke-opacity="0.200000" points="117.77,-371.11 123.77,-369.01 117.77,-366.91 117.77,-371.11"/>
</g>
<!-- utils/help.mjs -->
<g id="node13" class="node">
<title>utils/help.mjs</title>
<g id="a_node13"><a xlink:href="utils/help.mjs" xlink:title="help.mjs">
<path fill="#ffffcc" stroke="black" d="M852.5,-431.01C852.5,-431.01 810.5,-431.01 810.5,-431.01 807.5,-431.01 804.5,-428.01 804.5,-425.01 804.5,-425.01 804.5,-419.01 804.5,-419.01 804.5,-416.01 807.5,-413.01 810.5,-413.01 810.5,-413.01 852.5,-413.01 852.5,-413.01 855.5,-413.01 858.5,-416.01 858.5,-419.01 858.5,-419.01 858.5,-425.01 858.5,-425.01 858.5,-428.01 855.5,-431.01 852.5,-431.01"/>
<text text-anchor="start" x="813" y="-419.81" font-family="Helvetica,sans-Serif" font-size="9.00">help.mjs</text>
</a>
</g>
</g>
<!-- utils/nextCommand.mjs&#45;&gt;utils/help.mjs -->
<g id="edge38" class="edge">
<title>utils/nextCommand.mjs&#45;&gt;utils/help.mjs</title>
<path fill="none" stroke="#000000" stroke-width="2" stroke-opacity="0.200000" d="M71.79,-378.22C82,-390.31 101.79,-411.05 124,-420.01 195.02,-448.65 219.43,-430.01 296,-430.01 296,-430.01 296,-430.01 615.5,-430.01 680.34,-430.01 756.1,-426.33 798.16,-423.96"/>
<polygon fill="#000000" fill-opacity="0.200000" stroke="#000000" stroke-width="2" stroke-opacity="0.200000" points="798.5,-426.05 804.37,-423.61 798.26,-421.86 798.5,-426.05"/>
</g>
<!-- utils/remap.mjs -->
<g id="node17" class="node">
<title>utils/remap.mjs</title>
<g id="a_node17"><a xlink:href="utils/remap.mjs" xlink:title="remap.mjs">
<path fill="#ffffcc" stroke="black" d="M976.5,-357.01C976.5,-357.01 926.5,-357.01 926.5,-357.01 923.5,-357.01 920.5,-354.01 920.5,-351.01 920.5,-351.01 920.5,-345.01 920.5,-345.01 920.5,-342.01 923.5,-339.01 926.5,-339.01 926.5,-339.01 976.5,-339.01 976.5,-339.01 979.5,-339.01 982.5,-342.01 982.5,-345.01 982.5,-345.01 982.5,-351.01 982.5,-351.01 982.5,-354.01 979.5,-357.01 976.5,-357.01"/>
<text text-anchor="start" x="928.5" y="-345.81" font-family="Helvetica,sans-Serif" font-size="9.00">remap.mjs</text>
</a>
</g>
</g>
<!-- utils/nextCommand.mjs&#45;&gt;utils/remap.mjs -->
<g id="edge39" class="edge">
<title>utils/nextCommand.mjs&#45;&gt;utils/remap.mjs</title>
<path fill="none" stroke="#000000" stroke-width="2" stroke-opacity="0.200000" d="M74.18,-359.67C104.31,-331.62 200.2,-250.01 296,-250.01 296,-250.01 296,-250.01 489,-250.01 575.72,-250.01 598.72,-241.27 684,-257.01 775.52,-273.9 878.29,-315.99 924.97,-336.46"/>
<polygon fill="#000000" fill-opacity="0.200000" stroke="#000000" stroke-width="2" stroke-opacity="0.200000" points="924.31,-338.47 930.65,-338.97 926.01,-334.62 924.31,-338.47"/>
</g>
<!-- fs -->
<g id="node7" class="node">
<title>fs</title>
<g id="a_node7"><a xlink:title="fs">
<path fill="#ffffcc" stroke="grey" d="M1101.5,-617.01C1101.5,-617.01 1059.5,-617.01 1059.5,-617.01 1056.5,-617.01 1053.5,-614.01 1053.5,-611.01 1053.5,-611.01 1053.5,-605.01 1053.5,-605.01 1053.5,-602.01 1056.5,-599.01 1059.5,-599.01 1059.5,-599.01 1101.5,-599.01 1101.5,-599.01 1104.5,-599.01 1107.5,-602.01 1107.5,-605.01 1107.5,-605.01 1107.5,-611.01 1107.5,-611.01 1107.5,-614.01 1104.5,-617.01 1101.5,-617.01"/>
<text text-anchor="middle" x="1080.5" y="-605.81" font-family="Helvetica,sans-Serif" font-size="9.00" fill="grey">fs</text>
</a>
</g>
</g>
<!-- module -->
<g id="node8" class="node">
<title>module</title>
<g id="a_node8"><a xlink:title="module">
<path fill="#ffffcc" stroke="grey" d="M1101.5,-587.01C1101.5,-587.01 1059.5,-587.01 1059.5,-587.01 1056.5,-587.01 1053.5,-584.01 1053.5,-581.01 1053.5,-581.01 1053.5,-575.01 1053.5,-575.01 1053.5,-572.01 1056.5,-569.01 1059.5,-569.01 1059.5,-569.01 1101.5,-569.01 1101.5,-569.01 1104.5,-569.01 1107.5,-572.01 1107.5,-575.01 1107.5,-575.01 1107.5,-581.01 1107.5,-581.01 1107.5,-584.01 1104.5,-587.01 1101.5,-587.01"/>
<text text-anchor="middle" x="1080.5" y="-575.81" font-family="Helvetica,sans-Serif" font-size="9.00" fill="grey">module</text>
</a>
</g>
</g>
<!-- utils/commandContext.mjs&#45;&gt;bin/getProgramDirectory.mjs -->
<g id="edge5" class="edge">
<title>utils/commandContext.mjs&#45;&gt;bin/getProgramDirectory.mjs</title>
<path fill="none" stroke="#000000" stroke-width="2" stroke-opacity="0.200000" d="M180.88,-359.75C193.66,-312.45 258.62,-100.01 395,-100.01 395,-100.01 395,-100.01 734,-100.01 791.55,-100.01 857.01,-90.16 900.74,-82.14"/>
<polygon fill="#000000" fill-opacity="0.200000" stroke="#000000" stroke-width="2" stroke-opacity="0.200000" points="901.25,-84.18 906.76,-81.02 900.48,-80.05 901.25,-84.18"/>
</g>
<!-- utils/commandContext.mjs&#45;&gt;path -->
<g id="edge10" class="edge">
<title>utils/commandContext.mjs&#45;&gt;path</title>
<path fill="none" stroke="#000000" stroke-dasharray="5,2" stroke-opacity="0.200000" d="M180.2,-359.82C188.5,-315.53 224.99,-125.46 244,-107.01 293.29,-59.17 326.3,-74.01 395,-74.01 395,-74.01 395,-74.01 615.5,-74.01 846.05,-74.01 950.18,81.15 1134,-58.01 1175.66,-89.55 1182.57,-157.9 1183.5,-188.57"/>
<polygon fill="#000000" fill-opacity="0.200000" stroke="#000000" stroke-opacity="0.200000" points="1181.4,-188.89 1183.62,-194.85 1185.6,-188.81 1181.4,-188.89"/>
</g>
<!-- utils/commandContext.mjs&#45;&gt;fs -->
<g id="edge9" class="edge">
<title>utils/commandContext.mjs&#45;&gt;fs</title>
<path fill="none" stroke="#000000" stroke-dasharray="5,2" stroke-opacity="0.200000" d="M180.54,-378.17C192.01,-426.95 253.02,-654.01 395,-654.01 395,-654.01 395,-654.01 832.5,-654.01 916.02,-654.01 937.94,-651.11 1019,-631.01 1030.69,-628.11 1043.19,-623.61 1053.78,-619.36"/>
<polygon fill="#000000" fill-opacity="0.200000" stroke="#000000" stroke-opacity="0.200000" points="1054.69,-621.25 1059.45,-617.03 1053.1,-617.37 1054.69,-621.25"/>
</g>
<!-- utils/commandContext.mjs&#45;&gt;utils/Tracer.mjs -->
<g id="edge8" class="edge">
<title>utils/commandContext.mjs&#45;&gt;utils/Tracer.mjs</title>
<path fill="none" stroke="#000000" stroke-width="2" stroke-opacity="0.200000" d="M231.04,-365.52C235.42,-365.31 239.79,-365.14 244,-365.01 291.09,-363.57 302.9,-363.95 350,-365.01 564.43,-369.83 821.61,-384.31 914.68,-389.84"/>
<polygon fill="#000000" fill-opacity="0.200000" stroke="#000000" stroke-width="2" stroke-opacity="0.200000" points="914.72,-391.94 920.84,-390.2 914.97,-387.75 914.72,-391.94"/>
</g>
<!-- utils/commandLoader.mjs -->
<g id="node11" class="node">
<title>utils/commandLoader.mjs</title>
<g id="a_node11"><a xlink:href="utils/commandLoader.mjs" xlink:title="commandLoader.mjs">
<path fill="#ffffcc" stroke="black" d="M344,-389.01C344,-389.01 250,-389.01 250,-389.01 247,-389.01 244,-386.01 244,-383.01 244,-383.01 244,-377.01 244,-377.01 244,-374.01 247,-371.01 250,-371.01 250,-371.01 344,-371.01 344,-371.01 347,-371.01 350,-374.01 350,-377.01 350,-377.01 350,-383.01 350,-383.01 350,-386.01 347,-389.01 344,-389.01"/>
<text text-anchor="start" x="252" y="-377.81" font-family="Helvetica,sans-Serif" font-size="9.00">commandLoader.mjs</text>
</a>
</g>
</g>
<!-- utils/commandContext.mjs&#45;&gt;utils/commandLoader.mjs -->
<g id="edge6" class="edge">
<title>utils/commandContext.mjs&#45;&gt;utils/commandLoader.mjs</title>
<path fill="none" stroke="#000000" stroke-width="2" stroke-opacity="0.200000" d="M231.06,-373.93C233.34,-374.14 235.62,-374.36 237.9,-374.57"/>
<polygon fill="#000000" fill-opacity="0.200000" stroke="#000000" stroke-width="2" stroke-opacity="0.200000" points="237.77,-376.67 243.94,-375.14 238.16,-372.49 237.77,-376.67"/>
</g>
<!-- utils/toDictionary.mjs -->
<g id="node12" class="node">
<title>utils/toDictionary.mjs</title>
<g id="a_node12"><a xlink:href="utils/toDictionary.mjs" xlink:title="toDictionary.mjs">
<path fill="#ffffcc" stroke="black" d="M1116,-434.01C1116,-434.01 1045,-434.01 1045,-434.01 1042,-434.01 1039,-431.01 1039,-428.01 1039,-428.01 1039,-422.01 1039,-422.01 1039,-419.01 1042,-416.01 1045,-416.01 1045,-416.01 1116,-416.01 1116,-416.01 1119,-416.01 1122,-419.01 1122,-422.01 1122,-422.01 1122,-428.01 1122,-428.01 1122,-431.01 1119,-434.01 1116,-434.01"/>
<text text-anchor="start" x="1047" y="-422.81" font-family="Helvetica,sans-Serif" font-size="9.00">toDictionary.mjs</text>
</a>
</g>
</g>
<!-- utils/commandContext.mjs&#45;&gt;utils/toDictionary.mjs -->
<g id="edge7" class="edge">
<title>utils/commandContext.mjs&#45;&gt;utils/toDictionary.mjs</title>
<path fill="none" stroke="#000000" stroke-width="2" stroke-opacity="0.200000" d="M214.48,-378.08C220.15,-380.05 225.83,-382.35 231,-385.01 237.48,-388.35 237.16,-392.5 244,-395.01 307.09,-418.11 327.82,-402.01 395,-402.01 395,-402.01 395,-402.01 489,-402.01 664.91,-402.01 708.18,-382.57 884,-377.01 943.97,-375.12 962.34,-357.27 1019,-377.01 1038.28,-383.73 1056.02,-399.43 1067.24,-411.06"/>
<polygon fill="#000000" fill-opacity="0.200000" stroke="#000000" stroke-width="2" stroke-opacity="0.200000" points="1066,-412.81 1071.64,-415.75 1069.07,-409.94 1066,-412.81"/>
</g>
<!-- utils/commandLoader.mjs&#45;&gt;bin/getProgramDirectory.mjs -->
<g id="edge11" class="edge">
<title>utils/commandLoader.mjs&#45;&gt;bin/getProgramDirectory.mjs</title>
<path fill="none" stroke="#000000" stroke-width="2" stroke-opacity="0.200000" d="M298.93,-371C303.21,-331.42 322.31,-173.54 358,-142.01 401.3,-103.76 429.23,-126.01 487,-126.01 487,-126.01 487,-126.01 734,-126.01 797.51,-126.01 826.38,-149.66 876,-110.01 884.46,-103.26 875.93,-94.22 884,-87.01 885.04,-86.08 886.13,-85.21 887.25,-84.38"/>
<polygon fill="#000000" fill-opacity="0.200000" stroke="#000000" stroke-width="2" stroke-opacity="0.200000" points="888.48,-86.09 892.41,-81.08 886.22,-82.55 888.48,-86.09"/>
</g>
<!-- utils/commandLoader.mjs&#45;&gt;path -->
<g id="edge16" class="edge">
<title>utils/commandLoader.mjs&#45;&gt;path</title>
<path fill="none" stroke="#000000" stroke-dasharray="5,2" stroke-opacity="0.200000" d="M300.55,-370.79C312.98,-328.14 371.32,-152.01 487,-152.01 487,-152.01 487,-152.01 952.5,-152.01 1033.99,-152.01 1056.47,-152.92 1134,-178.01 1144.4,-181.38 1155.23,-186.81 1164.1,-191.85"/>
<polygon fill="#000000" fill-opacity="0.200000" stroke="#000000" stroke-opacity="0.200000" points="1163.11,-193.7 1169.35,-194.91 1165.22,-190.07 1163.11,-193.7"/>
</g>
<!-- utils/commandLoader.mjs&#45;&gt;utils/inspectErrorStack.mjs -->
<g id="edge13" class="edge">
<title>utils/commandLoader.mjs&#45;&gt;utils/inspectErrorStack.mjs</title>
<path fill="none" stroke="#000000" stroke-width="2" stroke-opacity="0.200000" d="M350.02,-382.77C373.27,-383.61 401.02,-384.06 426,-383.01 630.59,-374.43 680.64,-356.97 884,-333.01 929.91,-327.6 981.88,-321.49 1020.7,-316.92"/>
<polygon fill="#000000" fill-opacity="0.200000" stroke="#000000" stroke-width="2" stroke-opacity="0.200000" points="1021.1,-318.99 1026.81,-316.21 1020.61,-314.82 1021.1,-318.99"/>
</g>
<!-- utils/commandLoader.mjs&#45;&gt;fs -->
<g id="edge15" class="edge">
<title>utils/commandLoader.mjs&#45;&gt;fs</title>
<path fill="none" stroke="#000000" stroke-dasharray="5,2" stroke-opacity="0.200000" d="M300.07,-389.13C310.79,-433.87 364.39,-628.01 487,-628.01 487,-628.01 487,-628.01 832.5,-628.01 909.7,-628.01 1000.03,-618.18 1047.16,-612.31"/>
<polygon fill="#000000" fill-opacity="0.200000" stroke="#000000" stroke-opacity="0.200000" points="1047.55,-614.37 1053.24,-611.54 1047.02,-610.21 1047.55,-614.37"/>
</g>
<!-- utils/commandLoader.mjs&#45;&gt;utils/help.mjs -->
<g id="edge12" class="edge">
<title>utils/commandLoader.mjs&#45;&gt;utils/help.mjs</title>
<path fill="none" stroke="#000000" stroke-width="2" stroke-opacity="0.200000" d="M350.04,-375.41C373.29,-375.49 401.04,-376.45 426,-378.01 559.7,-386.37 717.64,-403.24 790.28,-413.84"/>
<polygon fill="#000000" fill-opacity="0.200000" stroke="#000000" stroke-width="2" stroke-opacity="0.200000" points="797.79,-417.11 804.04,-415.94 798.43,-412.96 797.79,-417.11"/>
<polyline fill="none" stroke="#000000" stroke-width="2" stroke-opacity="0.200000" points="798.11,-415.04 795.14,-414.58 "/>
<ellipse fill="none" stroke="#000000" stroke-width="2" stroke-opacity="0.200000" cx="792.77" cy="-414.22" rx="2.4" ry="2.4"/>
</g>
<!-- utils/myfs/fsItem.mjs -->
<g id="node14" class="node">
<title>utils/myfs/fsItem.mjs</title>
<g id="a_node14"><a xlink:href="utils/myfs/fsItem.mjs" xlink:title="fsItem.mjs">
<path fill="#ffffcc" stroke="black" d="M420,-477.01C420,-477.01 372,-477.01 372,-477.01 369,-477.01 366,-474.01 366,-471.01 366,-471.01 366,-465.01 366,-465.01 366,-462.01 369,-459.01 372,-459.01 372,-459.01 420,-459.01 420,-459.01 423,-459.01 426,-462.01 426,-465.01 426,-465.01 426,-471.01 426,-471.01 426,-474.01 423,-477.01 420,-477.01"/>
<text text-anchor="start" x="374" y="-465.81" font-family="Helvetica,sans-Serif" font-size="9.00">fsItem.mjs</text>
</a>
</g>
</g>
<!-- utils/commandLoader.mjs&#45;&gt;utils/myfs/fsItem.mjs -->
<g id="edge14" class="edge">
<title>utils/commandLoader.mjs&#45;&gt;utils/myfs/fsItem.mjs</title>
<path fill="none" stroke="#000000" stroke-width="2" stroke-opacity="0.200000" d="M303.04,-389.24C311,-403.09 327.81,-429.61 354.69,-451.27"/>
<polygon fill="#000000" fill-opacity="0.200000" stroke="#000000" stroke-width="2" stroke-opacity="0.200000" points="359.86,-457.71 365.93,-459.6 362.36,-454.34 359.86,-457.71"/>
<polyline fill="none" stroke="#000000" stroke-width="2" stroke-opacity="0.200000" points="361.11,-456.03 358.7,-454.24 "/>
<ellipse fill="none" stroke="#000000" stroke-width="2" stroke-opacity="0.200000" cx="356.77" cy="-452.81" rx="2.4" ry="2.4"/>
</g>
<!-- utils/fnOrValue.mjs -->
<g id="node15" class="node">
<title>utils/fnOrValue.mjs</title>
<g id="a_node15"><a xlink:href="utils/fnOrValue.mjs" xlink:title="fnOrValue.mjs">
<path fill="#ffffcc" stroke="black" d="M1216,-434.01C1216,-434.01 1153,-434.01 1153,-434.01 1150,-434.01 1147,-431.01 1147,-428.01 1147,-428.01 1147,-422.01 1147,-422.01 1147,-419.01 1150,-416.01 1153,-416.01 1153,-416.01 1216,-416.01 1216,-416.01 1219,-416.01 1222,-419.01 1222,-422.01 1222,-422.01 1222,-428.01 1222,-428.01 1222,-431.01 1219,-434.01 1216,-434.01"/>
<text text-anchor="start" x="1155" y="-422.81" font-family="Helvetica,sans-Serif" font-size="9.00">fnOrValue.mjs</text>
</a>
</g>
</g>
<!-- utils/toDictionary.mjs&#45;&gt;utils/fnOrValue.mjs -->
<g id="edge55" class="edge">
<title>utils/toDictionary.mjs&#45;&gt;utils/fnOrValue.mjs</title>
<path fill="none" stroke="#000000" stroke-width="2" stroke-opacity="0.200000" d="M1122.11,-425.01C1128.27,-425.01 1134.65,-425.01 1140.86,-425.01"/>
<polygon fill="#000000" fill-opacity="0.200000" stroke="#000000" stroke-width="2" stroke-opacity="0.200000" points="1141,-427.11 1147,-425.01 1141,-422.91 1141,-427.11"/>
</g>
<!-- utils/help.mjs&#45;&gt;utils/Tracer.mjs -->
<g id="edge22" class="edge">
<title>utils/help.mjs&#45;&gt;utils/Tracer.mjs</title>
<path fill="none" stroke="#000000" stroke-width="2" stroke-opacity="0.200000" d="M858.69,-415.35C875.16,-411.17 896.63,-405.71 914.67,-401.12"/>
<polygon fill="#000000" fill-opacity="0.200000" stroke="#000000" stroke-width="2" stroke-opacity="0.200000" points="915.35,-403.12 920.64,-399.6 914.31,-399.05 915.35,-403.12"/>
</g>
<!-- utils/help.mjs&#45;&gt;utils/commandLoader.mjs -->
<g id="edge20" class="edge">
<title>utils/help.mjs&#45;&gt;utils/commandLoader.mjs</title>
<path fill="none" stroke="#000000" stroke-width="2" stroke-opacity="0.200000" d="M804.04,-421.96C739.52,-417.61 568.91,-398.95 426,-390.01 405.81,-388.75 383.81,-387.88 363.83,-387.01"/>
<polygon fill="#000000" fill-opacity="0.200000" stroke="#000000" stroke-width="2" stroke-opacity="0.200000" points="356.12,-384.56 350.04,-386.39 355.94,-388.76 356.12,-384.56"/>
<polyline fill="none" stroke="#000000" stroke-width="2" stroke-opacity="0.200000" points="356.03,-386.66 359.03,-386.8 "/>
<ellipse fill="none" stroke="#000000" stroke-width="2" stroke-opacity="0.200000" cx="361.43" cy="-386.9" rx="2.4" ry="2.4"/>
</g>
<!-- utils/getLocalPackage.mjs -->
<g id="node16" class="node">
<title>utils/getLocalPackage.mjs</title>
<g id="a_node16"><a xlink:href="utils/getLocalPackage.mjs" xlink:title="getLocalPackage.mjs">
<path fill="#ffffcc" stroke="black" d="M998.5,-445.01C998.5,-445.01 904.5,-445.01 904.5,-445.01 901.5,-445.01 898.5,-442.01 898.5,-439.01 898.5,-439.01 898.5,-433.01 898.5,-433.01 898.5,-430.01 901.5,-427.01 904.5,-427.01 904.5,-427.01 998.5,-427.01 998.5,-427.01 1001.5,-427.01 1004.5,-430.01 1004.5,-433.01 1004.5,-433.01 1004.5,-439.01 1004.5,-439.01 1004.5,-442.01 1001.5,-445.01 998.5,-445.01"/>
<text text-anchor="start" x="906.5" y="-433.81" font-family="Helvetica,sans-Serif" font-size="9.00">getLocalPackage.mjs</text>
</a>
</g>
</g>
<!-- utils/help.mjs&#45;&gt;utils/getLocalPackage.mjs -->
<g id="edge23" class="edge">
<title>utils/help.mjs&#45;&gt;utils/getLocalPackage.mjs</title>
<path fill="none" stroke="#000000" stroke-opacity="0.200000" d="M858.69,-425.12C868.63,-426.3 880.4,-427.69 892.14,-429.09"/>
<polygon fill="#000000" fill-opacity="0.200000" stroke="#000000" stroke-opacity="0.200000" points="892.05,-431.19 898.26,-429.81 892.55,-427.02 892.05,-431.19"/>
</g>
<!-- utils/help.mjs&#45;&gt;utils/remap.mjs -->
<g id="edge21" class="edge">
<title>utils/help.mjs&#45;&gt;utils/remap.mjs</title>
<path fill="none" stroke="#000000" stroke-width="2" stroke-opacity="0.200000" d="M841.3,-412.79C851.04,-402.97 867.55,-387.43 884,-377.01 894.87,-370.12 907.66,-364.11 919.1,-359.38"/>
<polygon fill="#000000" fill-opacity="0.200000" stroke="#000000" stroke-width="2" stroke-opacity="0.200000" points="920.17,-361.21 924.95,-357.02 918.6,-357.32 920.17,-361.21"/>
</g>
<!-- utils/myfs/fsItem.mjs&#45;&gt;path -->
<g id="edge36" class="edge">
<title>utils/myfs/fsItem.mjs&#45;&gt;path</title>
<path fill="none" stroke="#000000" stroke-dasharray="5,2" stroke-opacity="0.200000" d="M397.38,-458.72C398.86,-431.68 405.94,-351.45 439,-296.01 486.96,-215.6 519.88,-178.01 613.5,-178.01 613.5,-178.01 613.5,-178.01 952.5,-178.01 1023.81,-178.01 1106.72,-190.4 1151.26,-198.07"/>
<polygon fill="#000000" fill-opacity="0.200000" stroke="#000000" stroke-opacity="0.200000" points="1151.01,-200.16 1157.28,-199.12 1151.73,-196.02 1151.01,-200.16"/>
</g>
<!-- utils/myfs/fsItem.mjs&#45;&gt;utils/inspectErrorStack.mjs -->
<g id="edge32" class="edge">
<title>utils/myfs/fsItem.mjs&#45;&gt;utils/inspectErrorStack.mjs</title>
<path fill="none" stroke="#000000" stroke-width="2" stroke-opacity="0.200000" d="M418.46,-458.99C424.95,-456.64 432.17,-454.38 439,-453.01 515.15,-437.79 535.84,-444.01 613.5,-444.01 613.5,-444.01 613.5,-444.01 734,-444.01 765.59,-444.01 849.54,-454.28 876,-437.01 882.66,-432.67 877.46,-425.53 884,-421.01 933.61,-386.69 967.84,-438.96 1019,-407.01 1049.62,-387.89 1067.27,-346.97 1074.92,-324.88"/>
<polygon fill="#000000" fill-opacity="0.200000" stroke="#000000" stroke-width="2" stroke-opacity="0.200000" points="1076.92,-325.54 1076.82,-319.18 1072.93,-324.21 1076.92,-325.54"/>
</g>
<!-- utils/myfs/fsItem.mjs&#45;&gt;fs -->
<g id="edge35" class="edge">
<title>utils/myfs/fsItem.mjs&#45;&gt;fs</title>
<path fill="none" stroke="#000000" stroke-dasharray="5,2" stroke-opacity="0.200000" d="M404.57,-477.22C430.35,-507.5 518.46,-602.01 613.5,-602.01 613.5,-602.01 613.5,-602.01 832.5,-602.01 909.47,-602.01 999.9,-604.96 1047.09,-606.72"/>
<polygon fill="#000000" fill-opacity="0.200000" stroke="#000000" stroke-opacity="0.200000" points="1047.11,-608.82 1053.19,-606.95 1047.27,-604.63 1047.11,-608.82"/>
</g>
<!-- utils/myfs/enumeratePath.mjs -->
<g id="node18" class="node">
<title>utils/myfs/enumeratePath.mjs</title>
<g id="a_node18"><a xlink:href="utils/myfs/enumeratePath.mjs" xlink:title="enumeratePath.mjs">
<path fill="#ffffcc" stroke="black" d="M531,-477.01C531,-477.01 445,-477.01 445,-477.01 442,-477.01 439,-474.01 439,-471.01 439,-471.01 439,-465.01 439,-465.01 439,-462.01 442,-459.01 445,-459.01 445,-459.01 531,-459.01 531,-459.01 534,-459.01 537,-462.01 537,-465.01 537,-465.01 537,-471.01 537,-471.01 537,-474.01 534,-477.01 531,-477.01"/>
<text text-anchor="start" x="447" y="-465.81" font-family="Helvetica,sans-Serif" font-size="9.00">enumeratePath.mjs</text>
</a>
</g>
</g>
<!-- utils/myfs/fsItem.mjs&#45;&gt;utils/myfs/enumeratePath.mjs -->
<g id="edge34" class="edge">
<title>utils/myfs/fsItem.mjs&#45;&gt;utils/myfs/enumeratePath.mjs</title>
<path fill="none" stroke="#000000" stroke-width="2" stroke-opacity="0.200000" d="M426.47,-463.76C426.59,-463.75 426.72,-463.75 426.84,-463.75"/>
<polygon fill="#000000" fill-opacity="0.200000" stroke="#000000" stroke-width="2" stroke-opacity="0.200000" points="432.92,-465.73 438.88,-463.52 432.84,-461.53 432.92,-465.73"/>
<polyline fill="none" stroke="#000000" stroke-width="2" stroke-opacity="0.200000" points="432.88,-463.63 429.88,-463.69 "/>
<ellipse fill="none" stroke="#000000" stroke-width="2" stroke-opacity="0.200000" cx="427.48" cy="-463.73" rx="2.4" ry="2.4"/>
</g>
<!-- utils/search/FileSearch.mjs -->
<g id="node22" class="node">
<title>utils/search/FileSearch.mjs</title>
<g id="a_node22"><a xlink:href="utils/search/FileSearch.mjs" xlink:title="FileSearch.mjs">
<path fill="#ffffcc" stroke="black" d="M521.5,-325.01C521.5,-325.01 454.5,-325.01 454.5,-325.01 451.5,-325.01 448.5,-322.01 448.5,-319.01 448.5,-319.01 448.5,-313.01 448.5,-313.01 448.5,-310.01 451.5,-307.01 454.5,-307.01 454.5,-307.01 521.5,-307.01 521.5,-307.01 524.5,-307.01 527.5,-310.01 527.5,-313.01 527.5,-313.01 527.5,-319.01 527.5,-319.01 527.5,-322.01 524.5,-325.01 521.5,-325.01"/>
<text text-anchor="start" x="456.5" y="-313.81" font-family="Helvetica,sans-Serif" font-size="9.00">FileSearch.mjs</text>
</a>
</g>
</g>
<!-- utils/myfs/fsItem.mjs&#45;&gt;utils/search/FileSearch.mjs -->
<g id="edge33" class="edge">
<title>utils/myfs/fsItem.mjs&#45;&gt;utils/search/FileSearch.mjs</title>
<path fill="none" stroke="#000000" stroke-width="2" stroke-opacity="0.200000" d="M422.38,-458.86C423.74,-457.72 424.97,-456.44 426,-455.01 458.99,-409.39 402.54,-371.9 439,-329.01 440.21,-327.59 441.55,-326.32 443,-325.18"/>
<polygon fill="#000000" fill-opacity="0.200000" stroke="#000000" stroke-width="2" stroke-opacity="0.200000" points="444.37,-326.8 448.29,-321.79 442.1,-323.26 444.37,-326.8"/>
</g>
<!-- utils/getLocalPackage.mjs&#45;&gt;path -->
<g id="edge19" class="edge">
<title>utils/getLocalPackage.mjs&#45;&gt;path</title>
<path fill="none" stroke="#000000" stroke-dasharray="5,2" stroke-opacity="0.200000" d="M991.87,-426.92C1002.29,-422.6 1012.46,-416.27 1019,-407.01 1033.41,-386.64 1011.14,-314.28 1027,-295.01 1058.31,-256.97 1096.33,-297.77 1134,-266.01 1144.49,-257.17 1138.94,-249.12 1147,-238.01 1152.51,-230.42 1159.9,-223.16 1166.58,-217.31"/>
<polygon fill="#000000" fill-opacity="0.200000" stroke="#000000" stroke-opacity="0.200000" points="1168.3,-218.62 1171.52,-213.14 1165.58,-215.41 1168.3,-218.62"/>
</g>
<!-- utils/getLocalPackage.mjs&#45;&gt;fs -->
<g id="edge17" class="edge">
<title>utils/getLocalPackage.mjs&#45;&gt;fs</title>
<path fill="none" stroke="#000000" stroke-dasharray="5,2" stroke-opacity="0.200000" d="M1004.59,-439.78C1010.08,-442.14 1015.08,-445.45 1019,-450.01 1039.74,-474.16 1007.13,-568.15 1027,-593.01 1032.05,-599.33 1039.55,-603.1 1047.33,-605.32"/>
<polygon fill="#000000" fill-opacity="0.200000" stroke="#000000" stroke-opacity="0.200000" points="1046.96,-607.39 1053.28,-606.73 1047.93,-603.31 1046.96,-607.39"/>
</g>
<!-- utils/getLocalPackage.mjs&#45;&gt;module -->
<g id="edge18" class="edge">
<title>utils/getLocalPackage.mjs&#45;&gt;module</title>
<path fill="none" stroke="#000000" stroke-dasharray="5,2" stroke-opacity="0.200000" d="M1004.53,-439.84C1010.03,-442.19 1015.05,-445.47 1019,-450.01 1035.68,-469.16 1010.83,-544.43 1027,-564.01 1032.12,-570.21 1039.65,-573.84 1047.43,-575.91"/>
<polygon fill="#000000" fill-opacity="0.200000" stroke="#000000" stroke-opacity="0.200000" points="1047.07,-577.98 1053.38,-577.21 1047.97,-573.88 1047.07,-577.98"/>
</g>
<!-- utils/remap.mjs&#45;&gt;utils/inspectErrorStack.mjs -->
<g id="edge41" class="edge">
<title>utils/remap.mjs&#45;&gt;utils/inspectErrorStack.mjs</title>
<path fill="none" stroke="#000000" stroke-width="2" stroke-opacity="0.200000" d="M982.72,-340.21C994.13,-337.16 1007.2,-333.56 1019,-330.01 1028.21,-327.24 1038.15,-324.05 1047.25,-321.04"/>
<polygon fill="#000000" fill-opacity="0.200000" stroke="#000000" stroke-width="2" stroke-opacity="0.200000" points="1048.07,-322.98 1053.1,-319.09 1046.74,-318.99 1048.07,-322.98"/>
</g>
<!-- utils/myfs/enumeratePath.mjs&#45;&gt;path -->
<g id="edge31" class="edge">
<title>utils/myfs/enumeratePath.mjs&#45;&gt;path</title>
<path fill="none" stroke="#000000" stroke-dasharray="5,2" stroke-opacity="0.200000" d="M495.11,-458.75C507.17,-439.94 533.79,-395.52 545,-354.01 548.28,-341.86 544.06,-249.87 553,-241.01 581.31,-212.96 692.15,-230.01 732,-230.01 732,-230.01 732,-230.01 952.5,-230.01 1033.48,-230.01 1053.85,-225.6 1134,-214.01 1139.61,-213.2 1145.54,-212.16 1151.27,-211.06"/>
<polygon fill="#000000" fill-opacity="0.200000" stroke="#000000" stroke-opacity="0.200000" points="1151.91,-213.08 1157.39,-209.85 1151.1,-208.96 1151.91,-213.08"/>
</g>
<!-- utils/myfs/enumeratePath.mjs&#45;&gt;fs -->
<g id="edge30" class="edge">
<title>utils/myfs/enumeratePath.mjs&#45;&gt;fs</title>
<path fill="none" stroke="#000000" stroke-dasharray="5,2" stroke-opacity="0.200000" d="M492.24,-477.06C499.62,-496.21 519.68,-540.67 553,-560.01 622.07,-600.12 652.13,-576.01 732,-576.01 732,-576.01 732,-576.01 832.5,-576.01 915.69,-576.01 937.04,-577.77 1019,-592.01 1028.31,-593.63 1038.27,-595.99 1047.37,-598.41"/>
<polygon fill="#000000" fill-opacity="0.200000" stroke="#000000" stroke-opacity="0.200000" points="1046.87,-600.45 1053.21,-600 1047.98,-596.4 1046.87,-600.45"/>
</g>
<!-- utils/myfs/enumeratePath.mjs&#45;&gt;utils/myfs/fsItem.mjs -->
<g id="edge29" class="edge">
<title>utils/myfs/enumeratePath.mjs&#45;&gt;utils/myfs/fsItem.mjs</title>
<path fill="none" stroke="#000000" stroke-width="2" stroke-opacity="0.200000" d="M438.88,-472.5C438.74,-472.5 438.61,-472.5 438.48,-472.5"/>
<polygon fill="#000000" fill-opacity="0.200000" stroke="#000000" stroke-width="2" stroke-opacity="0.200000" points="432.51,-470.28 426.47,-472.26 432.43,-474.48 432.51,-470.28"/>
<polyline fill="none" stroke="#000000" stroke-width="2" stroke-opacity="0.200000" points="432.47,-472.38 435.47,-472.44 "/>
<ellipse fill="none" stroke="#000000" stroke-width="2" stroke-opacity="0.200000" cx="437.87" cy="-472.49" rx="2.4" ry="2.4"/>
</g>
<!-- utils/store/GlobListStorage.mjs -->
<g id="node19" class="node">
<title>utils/store/GlobListStorage.mjs</title>
<g id="a_node19"><a xlink:href="utils/store/GlobListStorage.mjs" xlink:title="GlobListStorage.mjs">
<path fill="#ffffcc" stroke="black" d="M659,-479.01C659,-479.01 570,-479.01 570,-479.01 567,-479.01 564,-476.01 564,-473.01 564,-473.01 564,-467.01 564,-467.01 564,-464.01 567,-461.01 570,-461.01 570,-461.01 659,-461.01 659,-461.01 662,-461.01 665,-464.01 665,-467.01 665,-467.01 665,-473.01 665,-473.01 665,-476.01 662,-479.01 659,-479.01"/>
<text text-anchor="start" x="572" y="-467.81" font-family="Helvetica,sans-Serif" font-size="9.00">GlobListStorage.mjs</text>
</a>
</g>
</g>
<!-- utils/myfs/enumeratePath.mjs&#45;&gt;utils/store/GlobListStorage.mjs -->
<g id="edge26" class="edge">
<title>utils/myfs/enumeratePath.mjs&#45;&gt;utils/store/GlobListStorage.mjs</title>
<path fill="none" stroke="#000000" stroke-width="2" stroke-opacity="0.200000" d="M537.13,-468.78C541.24,-468.85 545.43,-468.92 549.63,-468.99"/>
<polygon fill="#000000" fill-opacity="0.200000" stroke="#000000" stroke-width="2" stroke-opacity="0.200000" points="557.81,-471.22 563.85,-469.21 557.88,-467.02 557.81,-471.22"/>
<polyline fill="none" stroke="#000000" stroke-width="2" stroke-opacity="0.200000" points="557.85,-469.12 554.85,-469.07 "/>
<ellipse fill="none" stroke="#000000" stroke-width="2" stroke-opacity="0.200000" cx="552.45" cy="-469.03" rx="2.4" ry="2.4"/>
</g>
<!-- utils/store/index.mjs -->
<g id="node20" class="node">
<title>utils/store/index.mjs</title>
<g id="a_node20"><a xlink:href="utils/store/index.mjs" xlink:title="index.mjs">
<path fill="#ffffcc" stroke="black" d="M973.5,-490.01C973.5,-490.01 929.5,-490.01 929.5,-490.01 926.5,-490.01 923.5,-487.01 923.5,-484.01 923.5,-484.01 923.5,-478.01 923.5,-478.01 923.5,-475.01 926.5,-472.01 929.5,-472.01 929.5,-472.01 973.5,-472.01 973.5,-472.01 976.5,-472.01 979.5,-475.01 979.5,-478.01 979.5,-478.01 979.5,-484.01 979.5,-484.01 979.5,-487.01 976.5,-490.01 973.5,-490.01"/>
<text text-anchor="start" x="931.5" y="-478.81" font-family="Helvetica,sans-Serif" font-size="9.00">index.mjs</text>
</a>
</g>
</g>
<!-- utils/myfs/enumeratePath.mjs&#45;&gt;utils/store/index.mjs -->
<g id="edge27" class="edge">
<title>utils/myfs/enumeratePath.mjs&#45;&gt;utils/store/index.mjs</title>
<path fill="none" stroke="#000000" stroke-width="2" stroke-opacity="0.200000" d="M497.48,-477.09C508.83,-488.51 530.21,-507.54 553,-515.01 683.33,-557.73 849.88,-514.02 918.63,-492.03"/>
<polygon fill="#000000" fill-opacity="0.200000" stroke="#000000" stroke-width="2" stroke-opacity="0.200000" points="919.52,-493.94 924.58,-490.1 918.22,-489.95 919.52,-493.94"/>
</g>
<!-- utils/store/StorageKeys.mjs -->
<g id="node21" class="node">
<title>utils/store/StorageKeys.mjs</title>
<g id="a_node21"><a xlink:href="utils/store/StorageKeys.mjs" xlink:title="StorageKeys.mjs">
<path fill="#ffffcc" stroke="black" d="M652,-509.01C652,-509.01 577,-509.01 577,-509.01 574,-509.01 571,-506.01 571,-503.01 571,-503.01 571,-497.01 571,-497.01 571,-494.01 574,-491.01 577,-491.01 577,-491.01 652,-491.01 652,-491.01 655,-491.01 658,-494.01 658,-497.01 658,-497.01 658,-503.01 658,-503.01 658,-506.01 655,-509.01 652,-509.01"/>
<text text-anchor="start" x="579" y="-497.81" font-family="Helvetica,sans-Serif" font-size="9.00">StorageKeys.mjs</text>
</a>
</g>
</g>
<!-- utils/myfs/enumeratePath.mjs&#45;&gt;utils/store/StorageKeys.mjs -->
<g id="edge28" class="edge">
<title>utils/myfs/enumeratePath.mjs&#45;&gt;utils/store/StorageKeys.mjs</title>
<path fill="none" stroke="#000000" stroke-width="2" stroke-opacity="0.200000" d="M522.52,-477.03C532.33,-479.64 543.09,-482.47 553,-485.01 558.74,-486.48 564.79,-488.01 570.76,-489.51"/>
<polygon fill="#000000" fill-opacity="0.200000" stroke="#000000" stroke-width="2" stroke-opacity="0.200000" points="570.35,-491.57 576.68,-490.99 571.37,-487.5 570.35,-491.57"/>
</g>
<!-- utils/store/ListStorage.mjs -->
<g id="node25" class="node">
<title>utils/store/ListStorage.mjs</title>
<g id="a_node25"><a xlink:href="utils/store/ListStorage.mjs" xlink:title="ListStorage.mjs">
<path fill="#ffffcc" stroke="black" d="M768,-479.01C768,-479.01 698,-479.01 698,-479.01 695,-479.01 692,-476.01 692,-473.01 692,-473.01 692,-467.01 692,-467.01 692,-464.01 695,-461.01 698,-461.01 698,-461.01 768,-461.01 768,-461.01 771,-461.01 774,-464.01 774,-467.01 774,-467.01 774,-473.01 774,-473.01 774,-476.01 771,-479.01 768,-479.01"/>
<text text-anchor="start" x="700" y="-467.81" font-family="Helvetica,sans-Serif" font-size="9.00">ListStorage.mjs</text>
</a>
</g>
</g>
<!-- utils/store/GlobListStorage.mjs&#45;&gt;utils/store/ListStorage.mjs -->
<g id="edge47" class="edge">
<title>utils/store/GlobListStorage.mjs&#45;&gt;utils/store/ListStorage.mjs</title>
<path fill="none" stroke="#000000" stroke-width="2" stroke-opacity="0.200000" d="M665.24,-470.01C669.42,-470.01 673.65,-470.01 677.86,-470.01"/>
<polygon fill="#000000" fill-opacity="0.200000" stroke="#000000" stroke-width="2" stroke-opacity="0.200000" points="685.92,-472.11 691.92,-470.01 685.92,-467.91 685.92,-472.11"/>
<polyline fill="none" stroke="#000000" stroke-width="2" stroke-opacity="0.200000" points="685.92,-470.01 682.92,-470.01 "/>
<ellipse fill="none" stroke="#000000" stroke-width="2" stroke-opacity="0.200000" cx="680.52" cy="-470.01" rx="2.4" ry="2.4"/>
</g>
<!-- utils/store/index.mjs&#45;&gt;utils/toDictionary.mjs -->
<g id="edge54" class="edge">
<title>utils/store/index.mjs&#45;&gt;utils/toDictionary.mjs</title>
<path fill="none" stroke="#000000" stroke-width="2" stroke-opacity="0.200000" d="M979.81,-478.33C992.14,-476.46 1006.68,-473.3 1019,-468.01 1036.2,-460.63 1053.36,-447.78 1064.99,-438.05"/>
<polygon fill="#000000" fill-opacity="0.200000" stroke="#000000" stroke-width="2" stroke-opacity="0.200000" points="1066.42,-439.58 1069.61,-434.09 1063.69,-436.39 1066.42,-439.58"/>
</g>
<!-- utils/search/FileSearch.mjs&#45;&gt;path -->
<g id="edge46" class="edge">
<title>utils/search/FileSearch.mjs&#45;&gt;path</title>
<path fill="none" stroke="#000000" stroke-dasharray="5,2" stroke-opacity="0.200000" d="M492.01,-306.88C499.07,-287.09 518.73,-240.37 553,-220.01 621.67,-179.22 652.13,-204.01 732,-204.01 732,-204.01 732,-204.01 952.5,-204.01 1023.36,-204.01 1106.45,-204.01 1151.13,-204.01"/>
<polygon fill="#000000" fill-opacity="0.200000" stroke="#000000" stroke-opacity="0.200000" points="1151.17,-206.11 1157.17,-204.01 1151.17,-201.91 1151.17,-206.11"/>
</g>
<!-- utils/search/FileSearch.mjs&#45;&gt;utils/inspectErrorStack.mjs -->
<g id="edge42" class="edge">
<title>utils/search/FileSearch.mjs&#45;&gt;utils/inspectErrorStack.mjs</title>
<path fill="none" stroke="#000000" stroke-width="2" stroke-opacity="0.200000" d="M527.58,-307.15C533.42,-305.78 539.37,-304.37 545,-303.01 548.56,-302.15 549.37,-301.53 553,-301.01 631.81,-289.74 652.38,-294.01 732,-294.01 732,-294.01 732,-294.01 832.5,-294.01 896.92,-294.01 970.59,-299.5 1020.59,-304.04"/>
<polygon fill="#000000" fill-opacity="0.200000" stroke="#000000" stroke-width="2" stroke-opacity="0.200000" points="1020.4,-306.14 1026.56,-304.59 1020.78,-301.95 1020.4,-306.14"/>
</g>
<!-- utils/search/FileSearch.mjs&#45;&gt;fs -->
<g id="edge45" class="edge">
<title>utils/search/FileSearch.mjs&#45;&gt;fs</title>
<path fill="none" stroke="#000000" stroke-dasharray="5,2" stroke-opacity="0.200000" d="M494.13,-325.26C505.54,-346.31 532.93,-399.71 545,-448.01 549.87,-467.49 538.65,-523.97 553,-538.01 581.49,-565.89 692.13,-550.01 732,-550.01 732,-550.01 732,-550.01 832.5,-550.01 916.02,-550.01 952.84,-522.04 1019,-573.01 1026.58,-578.85 1019.89,-586.6 1027,-593.01 1032.66,-598.12 1039.95,-601.5 1047.29,-603.73"/>
<polygon fill="#000000" fill-opacity="0.200000" stroke="#000000" stroke-opacity="0.200000" points="1047.09,-605.85 1053.42,-605.35 1048.16,-601.79 1047.09,-605.85"/>
</g>
<!-- utils/parseRegexInput.mjs -->
<g id="node23" class="node">
<title>utils/parseRegexInput.mjs</title>
<g id="a_node23"><a xlink:href="utils/parseRegexInput.mjs" xlink:title="parseRegexInput.mjs">
<path fill="#ffffcc" stroke="black" d="M661,-281.01C661,-281.01 568,-281.01 568,-281.01 565,-281.01 562,-278.01 562,-275.01 562,-275.01 562,-269.01 562,-269.01 562,-266.01 565,-263.01 568,-263.01 568,-263.01 661,-263.01 661,-263.01 664,-263.01 667,-266.01 667,-269.01 667,-269.01 667,-275.01 667,-275.01 667,-278.01 664,-281.01 661,-281.01"/>
<text text-anchor="start" x="570" y="-269.81" font-family="Helvetica,sans-Serif" font-size="9.00">parseRegexInput.mjs</text>
</a>
</g>
</g>
<!-- utils/search/FileSearch.mjs&#45;&gt;utils/parseRegexInput.mjs -->
<g id="edge43" class="edge">
<title>utils/search/FileSearch.mjs&#45;&gt;utils/parseRegexInput.mjs</title>
<path fill="none" stroke="#000000" stroke-width="2" stroke-opacity="0.200000" d="M527.79,-311.25C533.91,-309.34 539.9,-306.68 545,-303.01 550.51,-299.05 547.62,-294.14 553,-290.01 556.21,-287.55 559.76,-285.42 563.48,-283.58"/>
<polygon fill="#000000" fill-opacity="0.200000" stroke="#000000" stroke-width="2" stroke-opacity="0.200000" points="564.41,-285.47 569.02,-281.09 562.69,-281.63 564.41,-285.47"/>
</g>
<!-- utils/search/ContentSearchResult.mjs -->
<g id="node24" class="node">
<title>utils/search/ContentSearchResult.mjs</title>
<g id="a_node24"><a xlink:href="utils/search/ContentSearchResult.mjs" xlink:title="ContentSearchResult.mjs">
<path fill="#ffffcc" stroke="black" d="M670,-325.01C670,-325.01 559,-325.01 559,-325.01 556,-325.01 553,-322.01 553,-319.01 553,-319.01 553,-313.01 553,-313.01 553,-310.01 556,-307.01 559,-307.01 559,-307.01 670,-307.01 670,-307.01 673,-307.01 676,-310.01 676,-313.01 676,-313.01 676,-319.01 676,-319.01 676,-322.01 673,-325.01 670,-325.01"/>
<text text-anchor="start" x="561" y="-313.81" font-family="Helvetica,sans-Serif" font-size="9.00">ContentSearchResult.mjs</text>
</a>
</g>
</g>
<!-- utils/search/FileSearch.mjs&#45;&gt;utils/search/ContentSearchResult.mjs -->
<g id="edge44" class="edge">
<title>utils/search/FileSearch.mjs&#45;&gt;utils/search/ContentSearchResult.mjs</title>
<path fill="none" stroke="#000000" stroke-width="2" stroke-opacity="0.200000" d="M527.71,-316.01C533.83,-316.01 540.31,-316.01 546.85,-316.01"/>
<polygon fill="#000000" fill-opacity="0.200000" stroke="#000000" stroke-width="2" stroke-opacity="0.200000" points="546.87,-318.11 552.87,-316.01 546.87,-313.91 546.87,-318.11"/>
</g>
<!-- utils/store/ListStorage.mjs&#45;&gt;utils/help.mjs -->
<g id="edge48" class="edge">
<title>utils/store/ListStorage.mjs&#45;&gt;utils/help.mjs</title>
<path fill="none" stroke="#000000" stroke-width="2" stroke-opacity="0.200000" d="M764.44,-460.97C767.71,-459.75 770.95,-458.42 774,-457.01 780.29,-454.09 793.14,-446.19 804.99,-438.64"/>
<polygon fill="#000000" fill-opacity="0.200000" stroke="#000000" stroke-width="2" stroke-opacity="0.200000" points="812.76,-436.13 816.67,-431.11 810.49,-432.6 812.76,-436.13"/>
<polyline fill="none" stroke="#000000" stroke-width="2" stroke-opacity="0.200000" points="811.63,-434.36 809.11,-435.99 "/>
<ellipse fill="none" stroke="#000000" stroke-width="2" stroke-opacity="0.200000" cx="807.09" cy="-437.29" rx="2.4" ry="2.4"/>
</g>
<!-- utils/store/ListStorage.mjs&#45;&gt;utils/store/index.mjs -->
<g id="edge49" class="edge">
<title>utils/store/ListStorage.mjs&#45;&gt;utils/store/index.mjs</title>
<path fill="none" stroke="#000000" stroke-width="2" stroke-opacity="0.200000" d="M760.38,-479.02C768.79,-481.47 778.19,-483.79 787,-485.01 831.69,-491.21 883.9,-488.17 917.07,-484.98"/>
<polygon fill="#000000" fill-opacity="0.200000" stroke="#000000" stroke-width="2" stroke-opacity="0.200000" points="917.68,-487.03 923.44,-484.34 917.26,-482.85 917.68,-487.03"/>
</g>
<!-- utils/store/StorageBase.mjs -->
<g id="node26" class="node">
<title>utils/store/StorageBase.mjs</title>
<g id="a_node26"><a xlink:href="utils/store/StorageBase.mjs" xlink:title="StorageBase.mjs">
<path fill="#ffffcc" stroke="black" d="M870,-479.01C870,-479.01 793,-479.01 793,-479.01 790,-479.01 787,-476.01 787,-473.01 787,-473.01 787,-467.01 787,-467.01 787,-464.01 790,-461.01 793,-461.01 793,-461.01 870,-461.01 870,-461.01 873,-461.01 876,-464.01 876,-467.01 876,-467.01 876,-473.01 876,-473.01 876,-476.01 873,-479.01 870,-479.01"/>
<text text-anchor="start" x="795" y="-467.81" font-family="Helvetica,sans-Serif" font-size="9.00">StorageBase.mjs</text>
</a>
</g>
</g>
<!-- utils/store/ListStorage.mjs&#45;&gt;utils/store/StorageBase.mjs -->
<g id="edge50" class="edge">
<title>utils/store/ListStorage.mjs&#45;&gt;utils/store/StorageBase.mjs</title>
<path fill="none" stroke="#000000" stroke-width="2" stroke-opacity="0.200000" d="M774.09,-470.01C776.34,-470.01 778.62,-470.01 780.91,-470.01"/>
<polygon fill="#000000" fill-opacity="0.200000" stroke="#000000" stroke-width="2" stroke-opacity="0.200000" points="780.95,-472.11 786.95,-470.01 780.95,-467.91 780.95,-472.11"/>
</g>
<!-- utils/store/StorageBase.mjs&#45;&gt;path -->
<g id="edge53" class="edge">
<title>utils/store/StorageBase.mjs&#45;&gt;path</title>
<path fill="none" stroke="#000000" stroke-dasharray="5,2" stroke-opacity="0.200000" d="M872.06,-461.01C873.51,-459.83 874.84,-458.5 876,-457.01 888.98,-440.33 869.56,-282.43 884,-267.01 922.2,-226.23 1081.87,-260.12 1134,-240.01 1147.34,-234.87 1160.33,-225.18 1169.65,-217.16"/>
<polygon fill="#000000" fill-opacity="0.200000" stroke="#000000" stroke-opacity="0.200000" points="1171.08,-218.7 1174.18,-213.14 1168.3,-215.55 1171.08,-218.7"/>
</g>
<!-- utils/store/StorageBase.mjs&#45;&gt;fs -->
<g id="edge52" class="edge">
<title>utils/store/StorageBase.mjs&#45;&gt;fs</title>
<path fill="none" stroke="#000000" stroke-dasharray="5,2" stroke-opacity="0.200000" d="M848.9,-479.1C858.87,-484.42 871.96,-491.05 884,-496.01 942.34,-520.08 978.21,-491.86 1019,-540.01 1034.4,-558.19 1011.27,-575.12 1027,-593.01 1032.29,-599.02 1039.8,-602.7 1047.5,-604.93"/>
<polygon fill="#000000" fill-opacity="0.200000" stroke="#000000" stroke-opacity="0.200000" points="1047.06,-606.99 1053.38,-606.37 1048.05,-602.91 1047.06,-606.99"/>
</g>
<!-- utils/store/StorageBase.mjs&#45;&gt;utils/store/index.mjs -->
<g id="edge51" class="edge">
<title>utils/store/StorageBase.mjs&#45;&gt;utils/store/index.mjs</title>
<path fill="none" stroke="#000000" stroke-width="2" stroke-opacity="0.200000" d="M876.1,-474.08C889.64,-475.34 904.35,-476.71 917.08,-477.9"/>
<polygon fill="#000000" fill-opacity="0.200000" stroke="#000000" stroke-width="2" stroke-opacity="0.200000" points="916.99,-480 923.16,-478.46 917.38,-475.81 916.99,-480"/>
</g>
</g>
</svg>
