<?xml version="1.0" encoding="UTF-8" standalone="no"?>
<!DOCTYPE svg PUBLIC "-//W3C//DTD SVG 1.1//EN"
 "http://www.w3.org/Graphics/SVG/1.1/DTD/svg11.dtd">
<!-- Generated by graphviz version 4.0.0 (20220529.0937)
 -->
<!-- Title: dependency&#45;cruiser output Pages: 1 -->
<svg width="626pt" height="418pt"
 viewBox="0.00 0.00 626.00 418.00" xmlns="http://www.w3.org/2000/svg" xmlns:xlink="http://www.w3.org/1999/xlink">
<g id="graph0" class="graph" transform="scale(1 1) rotate(0) translate(4 414)">
<title>dependency&#45;cruiser output</title>
<polygon fill="white" stroke="transparent" points="-4,4 -4,-414 622,-414 622,4 -4,4"/>
<g id="clust1" class="cluster">
<title>cluster_hyperspace</title>
<path fill="#ffffff" stroke="black" stroke-width="2" d="M20,-8C20,-8 598,-8 598,-8 604,-8 610,-14 610,-20 610,-20 610,-390 610,-390 610,-396 604,-402 598,-402 598,-402 20,-402 20,-402 14,-402 8,-396 8,-390 8,-390 8,-20 8,-20 8,-14 14,-8 20,-8"/>
<text text-anchor="middle" x="309" y="-390.8" font-family="Helvetica,sans-Serif" font-weight="bold" font-size="9.00">hyperspace</text>
</g>
<g id="clust2" class="cluster">
<title>cluster_hyperspace/hyper&#45;app</title>
<path fill="#ffffff" stroke="black" stroke-width="2" d="M101,-16C101,-16 590,-16 590,-16 596,-16 602,-22 602,-28 602,-28 602,-364 602,-364 602,-370 596,-376 590,-376 590,-376 101,-376 101,-376 95,-376 89,-370 89,-364 89,-364 89,-28 89,-28 89,-22 95,-16 101,-16"/>
<text text-anchor="middle" x="345.5" y="-364.8" font-family="Helvetica,sans-Serif" font-weight="bold" font-size="9.00">hyper&#45;app</text>
</g>
<g id="clust3" class="cluster">
<title>cluster_hyperspace/hyper&#45;app/hyper&#45;server</title>
<path fill="#ffffff" stroke="black" stroke-width="2" d="M203,-24C203,-24 582,-24 582,-24 588,-24 594,-30 594,-36 594,-36 594,-252 594,-252 594,-258 588,-264 582,-264 582,-264 203,-264 203,-264 197,-264 191,-258 191,-252 191,-252 191,-36 191,-36 191,-30 197,-24 203,-24"/>
<text text-anchor="middle" x="392.5" y="-252.8" font-family="Helvetica,sans-Serif" font-weight="bold" font-size="9.00">hyper&#45;server</text>
</g>
<g id="clust7" class="cluster">
<title>cluster_hyperspace/hyper&#45;app/hyper&#45;server/view&#45;engine</title>
<path fill="#ffffff" stroke="black" stroke-width="2" d="M322,-186C322,-186 574,-186 574,-186 580,-186 586,-192 586,-198 586,-198 586,-226 586,-226 586,-232 580,-238 574,-238 574,-238 322,-238 322,-238 316,-238 310,-232 310,-226 310,-226 310,-198 310,-198 310,-192 316,-186 322,-186"/>
<text text-anchor="middle" x="448" y="-226.8" font-family="Helvetica,sans-Serif" font-weight="bold" font-size="9.00">view&#45;engine</text>
</g>
<g id="clust4" class="cluster">
<title>cluster_hyperspace/hyper&#45;app/hyper&#45;server/socket&#45;server</title>
<path fill="#ffffff" stroke="black" stroke-width="2" d="M319,-32C319,-32 557.5,-32 557.5,-32 563.5,-32 569.5,-38 569.5,-44 569.5,-44 569.5,-72 569.5,-72 569.5,-78 563.5,-84 557.5,-84 557.5,-84 319,-84 319,-84 313,-84 307,-78 307,-72 307,-72 307,-44 307,-44 307,-38 313,-32 319,-32"/>
<text text-anchor="middle" x="438.25" y="-72.8" font-family="Helvetica,sans-Serif" font-weight="bold" font-size="9.00">socket&#45;server</text>
</g>
<g id="clust5" class="cluster">
<title>cluster_hyperspace/hyper&#45;app/hyper&#45;server/static</title>
<path fill="#ffffff" stroke="black" stroke-width="2" d="M332.5,-92C332.5,-92 566.5,-92 566.5,-92 572.5,-92 578.5,-98 578.5,-104 578.5,-104 578.5,-166 578.5,-166 578.5,-172 572.5,-178 566.5,-178 566.5,-178 332.5,-178 332.5,-178 326.5,-178 320.5,-172 320.5,-166 320.5,-166 320.5,-104 320.5,-104 320.5,-98 326.5,-92 332.5,-92"/>
<text text-anchor="middle" x="449.5" y="-166.8" font-family="Helvetica,sans-Serif" font-weight="bold" font-size="9.00">static</text>
</g>
<g id="clust6" class="cluster">
<title>cluster_hyperspace/hyper&#45;app/hyper&#45;server/static/file&#45;watcher</title>
<path fill="#ffffff" stroke="black" stroke-width="2" d="M460.5,-100C460.5,-100 558.5,-100 558.5,-100 564.5,-100 570.5,-106 570.5,-112 570.5,-112 570.5,-140 570.5,-140 570.5,-146 564.5,-152 558.5,-152 558.5,-152 460.5,-152 460.5,-152 454.5,-152 448.5,-146 448.5,-140 448.5,-140 448.5,-112 448.5,-112 448.5,-106 454.5,-100 460.5,-100"/>
<text text-anchor="middle" x="509.5" y="-140.8" font-family="Helvetica,sans-Serif" font-weight="bold" font-size="9.00">file&#45;watcher</text>
</g>
<g id="clust8" class="cluster">
<title>cluster_hyperspace/hyper&#45;app/page</title>
<path fill="#ffffff" stroke="black" stroke-width="2" d="M217.5,-298C217.5,-298 416,-298 416,-298 422,-298 428,-304 428,-310 428,-310 428,-338 428,-338 428,-344 422,-350 416,-350 416,-350 217.5,-350 217.5,-350 211.5,-350 205.5,-344 205.5,-338 205.5,-338 205.5,-310 205.5,-310 205.5,-304 211.5,-298 217.5,-298"/>
<text text-anchor="middle" x="316.75" y="-338.8" font-family="Helvetica,sans-Serif" font-weight="bold" font-size="9.00">page</text>
</g>
<!-- hyperspace/hyper&#45;app/HyperApp.mjs -->
<g id="node1" class="node">
<title>hyperspace/hyper&#45;app/HyperApp.mjs</title>
<g id="a_node1"><a xlink:href="hyperspace/hyper-app/HyperApp.mjs" xlink:title="HyperApp.mjs">
<path fill="#ffffcc" stroke="black" d="M165,-290C165,-290 103,-290 103,-290 100,-290 97,-287 97,-284 97,-284 97,-278 97,-278 97,-275 100,-272 103,-272 103,-272 165,-272 165,-272 168,-272 171,-275 171,-278 171,-278 171,-284 171,-284 171,-287 168,-290 165,-290"/>
<text text-anchor="start" x="105" y="-278.8" font-family="Helvetica,sans-Serif" font-size="9.00">HyperApp.mjs</text>
</a>
</g>
</g>
<!-- hyperspace/hyper&#45;app/hyper&#45;server/HyperServer.mjs -->
<g id="node2" class="node">
<title>hyperspace/hyper&#45;app/hyper&#45;server/HyperServer.mjs</title>
<g id="a_node2"><a xlink:href="hyperspace/hyper-app/hyper-server/HyperServer.mjs" xlink:title="HyperServer.mjs">
<path fill="#ffffcc" stroke="black" d="M278,-176C278,-176 205,-176 205,-176 202,-176 199,-173 199,-170 199,-170 199,-164 199,-164 199,-161 202,-158 205,-158 205,-158 278,-158 278,-158 281,-158 284,-161 284,-164 284,-164 284,-170 284,-170 284,-173 281,-176 278,-176"/>
<text text-anchor="start" x="207" y="-164.8" font-family="Helvetica,sans-Serif" font-size="9.00">HyperServer.mjs</text>
</a>
</g>
</g>
<!-- hyperspace/hyper&#45;app/HyperApp.mjs&#45;&gt;hyperspace/hyper&#45;app/hyper&#45;server/HyperServer.mjs -->
<g id="edge1" class="edge">
<title>hyperspace/hyper&#45;app/HyperApp.mjs&#45;&gt;hyperspace/hyper&#45;app/hyper&#45;server/HyperServer.mjs</title>
<path fill="none" stroke="#000000" stroke-width="2" stroke-opacity="0.200000" d="M136.69,-271.8C140.88,-251.79 153.66,-204.16 184,-180 186.71,-177.84 189.7,-176.03 192.87,-174.51"/>
<polygon fill="#000000" fill-opacity="0.200000" stroke="#000000" stroke-width="2" stroke-opacity="0.200000" points="193.98,-176.32 198.71,-172.08 192.37,-172.45 193.98,-176.32"/>
</g>
<!-- hyperspace/hyper&#45;app/HyperAppController.mjs -->
<g id="node3" class="node">
<title>hyperspace/hyper&#45;app/HyperAppController.mjs</title>
<g id="a_node3"><a xlink:href="hyperspace/hyper-app/HyperAppController.mjs" xlink:title="HyperAppController.mjs">
<path fill="#ffffcc" stroke="black" d="M293,-290C293,-290 190,-290 190,-290 187,-290 184,-287 184,-284 184,-284 184,-278 184,-278 184,-275 187,-272 190,-272 190,-272 293,-272 293,-272 296,-272 299,-275 299,-278 299,-278 299,-284 299,-284 299,-287 296,-290 293,-290"/>
<text text-anchor="start" x="192" y="-278.8" font-family="Helvetica,sans-Serif" font-size="9.00">HyperAppController.mjs</text>
</a>
</g>
</g>
<!-- hyperspace/hyper&#45;app/HyperApp.mjs&#45;&gt;hyperspace/hyper&#45;app/HyperAppController.mjs -->
<g id="edge2" class="edge">
<title>hyperspace/hyper&#45;app/HyperApp.mjs&#45;&gt;hyperspace/hyper&#45;app/HyperAppController.mjs</title>
<path fill="none" stroke="#000000" stroke-width="2" stroke-opacity="0.200000" d="M171.01,-281C173.23,-281 175.5,-281 177.79,-281"/>
<polygon fill="#000000" fill-opacity="0.200000" stroke="#000000" stroke-width="2" stroke-opacity="0.200000" points="177.9,-283.1 183.9,-281 177.9,-278.9 177.9,-283.1"/>
</g>
<!-- hyperspace/hyper&#45;app/page/Page.mjs -->
<g id="node4" class="node">
<title>hyperspace/hyper&#45;app/page/Page.mjs</title>
<g id="a_node4"><a xlink:href="hyperspace/hyper-app/page/Page.mjs" xlink:title="Page.mjs">
<path fill="#ffffcc" stroke="black" d="M263.5,-324C263.5,-324 219.5,-324 219.5,-324 216.5,-324 213.5,-321 213.5,-318 213.5,-318 213.5,-312 213.5,-312 213.5,-309 216.5,-306 219.5,-306 219.5,-306 263.5,-306 263.5,-306 266.5,-306 269.5,-309 269.5,-312 269.5,-312 269.5,-318 269.5,-318 269.5,-321 266.5,-324 263.5,-324"/>
<text text-anchor="start" x="221.5" y="-312.8" font-family="Helvetica,sans-Serif" font-size="9.00">Page.mjs</text>
</a>
</g>
</g>
<!-- hyperspace/hyper&#45;app/HyperApp.mjs&#45;&gt;hyperspace/hyper&#45;app/page/Page.mjs -->
<g id="edge3" class="edge">
<title>hyperspace/hyper&#45;app/HyperApp.mjs&#45;&gt;hyperspace/hyper&#45;app/page/Page.mjs</title>
<path fill="none" stroke="#000000" stroke-width="2" stroke-opacity="0.200000" d="M154.25,-290.19C163.16,-294.2 173.97,-298.73 184,-302 191.33,-304.39 199.32,-306.52 206.94,-308.32"/>
<polygon fill="#000000" fill-opacity="0.200000" stroke="#000000" stroke-width="2" stroke-opacity="0.200000" points="206.9,-310.46 213.22,-309.75 207.84,-306.37 206.9,-310.46"/>
</g>
<!-- hyperspace/hyper&#45;app/hyper&#45;server/socket&#45;server/HyperSocketServer.mjs -->
<g id="node5" class="node">
<title>hyperspace/hyper&#45;app/hyper&#45;server/socket&#45;server/HyperSocketServer.mjs</title>
<g id="a_node5"><a xlink:href="hyperspace/hyper-app/hyper-server/socket-server/HyperSocketServer.mjs" xlink:title="HyperSocketServer.mjs">
<path fill="#ffffcc" stroke="black" d="M422,-58C422,-58 321,-58 321,-58 318,-58 315,-55 315,-52 315,-52 315,-46 315,-46 315,-43 318,-40 321,-40 321,-40 422,-40 422,-40 425,-40 428,-43 428,-46 428,-46 428,-52 428,-52 428,-55 425,-58 422,-58"/>
<text text-anchor="start" x="323" y="-46.8" font-family="Helvetica,sans-Serif" font-size="9.00">HyperSocketServer.mjs</text>
</a>
</g>
</g>
<!-- hyperspace/hyper&#45;app/hyper&#45;server/HyperServer.mjs&#45;&gt;hyperspace/hyper&#45;app/hyper&#45;server/socket&#45;server/HyperSocketServer.mjs -->
<g id="edge4" class="edge">
<title>hyperspace/hyper&#45;app/hyper&#45;server/HyperServer.mjs&#45;&gt;hyperspace/hyper&#45;app/hyper&#45;server/socket&#45;server/HyperSocketServer.mjs</title>
<path fill="none" stroke="#000000" stroke-width="2" stroke-opacity="0.200000" d="M248.82,-157.53C259.52,-141.97 282.45,-110.58 307,-89 319.31,-78.18 334.84,-68.34 347.47,-61.13"/>
<polygon fill="#000000" fill-opacity="0.200000" stroke="#000000" stroke-width="2" stroke-opacity="0.200000" points="348.83,-62.77 353.04,-58.01 346.78,-59.11 348.83,-62.77"/>
</g>
<!-- hyperspace/hyper&#45;app/hyper&#45;server/static/StaticLoader.mjs -->
<g id="node6" class="node">
<title>hyperspace/hyper&#45;app/hyper&#45;server/static/StaticLoader.mjs</title>
<g id="a_node6"><a xlink:href="hyperspace/hyper-app/hyper-server/static/StaticLoader.mjs" xlink:title="StaticLoader.mjs">
<path fill="#ffffcc" stroke="black" d="M408.5,-139C408.5,-139 334.5,-139 334.5,-139 331.5,-139 328.5,-136 328.5,-133 328.5,-133 328.5,-127 328.5,-127 328.5,-124 331.5,-121 334.5,-121 334.5,-121 408.5,-121 408.5,-121 411.5,-121 414.5,-124 414.5,-127 414.5,-127 414.5,-133 414.5,-133 414.5,-136 411.5,-139 408.5,-139"/>
<text text-anchor="start" x="336.5" y="-127.8" font-family="Helvetica,sans-Serif" font-size="9.00">StaticLoader.mjs</text>
</a>
</g>
</g>
<!-- hyperspace/hyper&#45;app/hyper&#45;server/HyperServer.mjs&#45;&gt;hyperspace/hyper&#45;app/hyper&#45;server/static/StaticLoader.mjs -->
<g id="edge5" class="edge">
<title>hyperspace/hyper&#45;app/hyper&#45;server/HyperServer.mjs&#45;&gt;hyperspace/hyper&#45;app/hyper&#45;server/static/StaticLoader.mjs</title>
<path fill="none" stroke="#000000" stroke-width="2" stroke-opacity="0.200000" d="M273.81,-157.95C291.63,-152.8 314.08,-146.31 332.85,-140.88"/>
<polygon fill="#000000" fill-opacity="0.200000" stroke="#000000" stroke-width="2" stroke-opacity="0.200000" points="333.89,-142.77 339.07,-139.09 332.72,-138.73 333.89,-142.77"/>
</g>
<!-- hyperspace/hyper&#45;app/hyper&#45;server/view&#45;engine/HyperViewEngine.mjs -->
<g id="node7" class="node">
<title>hyperspace/hyper&#45;app/hyper&#45;server/view&#45;engine/HyperViewEngine.mjs</title>
<g id="a_node7"><a xlink:href="hyperspace/hyper-app/hyper-server/view-engine/HyperViewEngine.mjs" xlink:title="HyperViewEngine.mjs">
<path fill="#ffffcc" stroke="black" d="M419,-212C419,-212 324,-212 324,-212 321,-212 318,-209 318,-206 318,-206 318,-200 318,-200 318,-197 321,-194 324,-194 324,-194 419,-194 419,-194 422,-194 425,-197 425,-200 425,-200 425,-206 425,-206 425,-209 422,-212 419,-212"/>
<text text-anchor="start" x="326" y="-200.8" font-family="Helvetica,sans-Serif" font-size="9.00">HyperViewEngine.mjs</text>
</a>
</g>
</g>
<!-- hyperspace/hyper&#45;app/hyper&#45;server/HyperServer.mjs&#45;&gt;hyperspace/hyper&#45;app/hyper&#45;server/view&#45;engine/HyperViewEngine.mjs -->
<g id="edge6" class="edge">
<title>hyperspace/hyper&#45;app/hyper&#45;server/HyperServer.mjs&#45;&gt;hyperspace/hyper&#45;app/hyper&#45;server/view&#45;engine/HyperViewEngine.mjs</title>
<path fill="none" stroke="#000000" stroke-width="2" stroke-opacity="0.200000" d="M283.65,-176.04C288.83,-177.3 294.05,-178.64 299,-180 311.96,-183.57 326.09,-188 338.33,-192.01"/>
<polygon fill="#000000" fill-opacity="0.200000" stroke="#000000" stroke-width="2" stroke-opacity="0.200000" points="337.82,-194.05 344.18,-193.94 339.14,-190.06 337.82,-194.05"/>
</g>
<!-- hyperspace/hyper&#45;app/page/PageController.mjs -->
<g id="node11" class="node">
<title>hyperspace/hyper&#45;app/page/PageController.mjs</title>
<g id="a_node11"><a xlink:href="hyperspace/hyper-app/page/PageController.mjs" xlink:title="PageController.mjs">
<path fill="#ffffcc" stroke="black" d="M414,-324C414,-324 329,-324 329,-324 326,-324 323,-321 323,-318 323,-318 323,-312 323,-312 323,-309 326,-306 329,-306 329,-306 414,-306 414,-306 417,-306 420,-309 420,-312 420,-312 420,-318 420,-318 420,-321 417,-324 414,-324"/>
<text text-anchor="start" x="331" y="-312.8" font-family="Helvetica,sans-Serif" font-size="9.00">PageController.mjs</text>
</a>
</g>
</g>
<!-- hyperspace/hyper&#45;app/page/Page.mjs&#45;&gt;hyperspace/hyper&#45;app/page/PageController.mjs -->
<g id="edge10" class="edge">
<title>hyperspace/hyper&#45;app/page/Page.mjs&#45;&gt;hyperspace/hyper&#45;app/page/PageController.mjs</title>
<path fill="none" stroke="#000000" stroke-width="2" stroke-opacity="0.200000" d="M269.65,-315C283.32,-315 300.39,-315 316.58,-315"/>
<polygon fill="#000000" fill-opacity="0.200000" stroke="#000000" stroke-width="2" stroke-opacity="0.200000" points="316.97,-317.1 322.97,-315 316.97,-312.9 316.97,-317.1"/>
</g>
<!-- hyperspace/hyper&#45;app/hyper&#45;server/socket&#45;server/parseUrlParams.mjs -->
<g id="node8" class="node">
<title>hyperspace/hyper&#45;app/hyper&#45;server/socket&#45;server/parseUrlParams.mjs</title>
<g id="a_node8"><a xlink:href="hyperspace/hyper-app/hyper-server/socket-server/parseUrlParams.mjs" xlink:title="parseUrlParams.mjs">
<path fill="#ffffcc" stroke="black" d="M555.5,-58C555.5,-58 463.5,-58 463.5,-58 460.5,-58 457.5,-55 457.5,-52 457.5,-52 457.5,-46 457.5,-46 457.5,-43 460.5,-40 463.5,-40 463.5,-40 555.5,-40 555.5,-40 558.5,-40 561.5,-43 561.5,-46 561.5,-46 561.5,-52 561.5,-52 561.5,-55 558.5,-58 555.5,-58"/>
<text text-anchor="start" x="465.5" y="-46.8" font-family="Helvetica,sans-Serif" font-size="9.00">parseUrlParams.mjs</text>
</a>
</g>
</g>
<!-- hyperspace/hyper&#45;app/hyper&#45;server/socket&#45;server/HyperSocketServer.mjs&#45;&gt;hyperspace/hyper&#45;app/hyper&#45;server/socket&#45;server/parseUrlParams.mjs -->
<g id="edge7" class="edge">
<title>hyperspace/hyper&#45;app/hyper&#45;server/socket&#45;server/HyperSocketServer.mjs&#45;&gt;hyperspace/hyper&#45;app/hyper&#45;server/socket&#45;server/parseUrlParams.mjs</title>
<path fill="none" stroke="#000000" stroke-width="2" stroke-opacity="0.200000" d="M428.21,-49C435.77,-49 443.55,-49 451.14,-49"/>
<polygon fill="#000000" fill-opacity="0.200000" stroke="#000000" stroke-width="2" stroke-opacity="0.200000" points="451.47,-51.1 457.47,-49 451.47,-46.9 451.47,-51.1"/>
</g>
<!-- hyperspace/hyper&#45;app/hyper&#45;server/static/file&#45;watcher/StaticFileWatcher.mjs -->
<g id="node9" class="node">
<title>hyperspace/hyper&#45;app/hyper&#45;server/static/file&#45;watcher/StaticFileWatcher.mjs</title>
<g id="a_node9"><a xlink:href="hyperspace/hyper-app/hyper-server/static/file-watcher/StaticFileWatcher.mjs" xlink:title="StaticFileWatcher.mjs">
<path fill="#ffffcc" stroke="black" d="M556.5,-126C556.5,-126 462.5,-126 462.5,-126 459.5,-126 456.5,-123 456.5,-120 456.5,-120 456.5,-114 456.5,-114 456.5,-111 459.5,-108 462.5,-108 462.5,-108 556.5,-108 556.5,-108 559.5,-108 562.5,-111 562.5,-114 562.5,-114 562.5,-120 562.5,-120 562.5,-123 559.5,-126 556.5,-126"/>
<text text-anchor="start" x="464.5" y="-114.8" font-family="Helvetica,sans-Serif" font-size="9.00">StaticFileWatcher.mjs</text>
</a>
</g>
</g>
<!-- hyperspace/hyper&#45;app/hyper&#45;server/static/StaticLoader.mjs&#45;&gt;hyperspace/hyper&#45;app/hyper&#45;server/static/file&#45;watcher/StaticFileWatcher.mjs -->
<g id="edge8" class="edge">
<title>hyperspace/hyper&#45;app/hyper&#45;server/static/StaticLoader.mjs&#45;&gt;hyperspace/hyper&#45;app/hyper&#45;server/static/file&#45;watcher/StaticFileWatcher.mjs</title>
<path fill="none" stroke="#000000" stroke-width="2" stroke-opacity="0.200000" d="M414.79,-125.96C425.94,-124.89 438.18,-123.72 450.02,-122.59"/>
<polygon fill="#000000" fill-opacity="0.200000" stroke="#000000" stroke-width="2" stroke-opacity="0.200000" points="450.4,-124.66 456.17,-122 450,-120.48 450.4,-124.66"/>
</g>
<!-- hyperspace/hyper&#45;app/hyper&#45;server/view&#45;engine/mergeTemplateAndState.mjs -->
<g id="node10" class="node">
<title>hyperspace/hyper&#45;app/hyper&#45;server/view&#45;engine/mergeTemplateAndState.mjs</title>
<g id="a_node10"><a xlink:href="hyperspace/hyper-app/hyper-server/view-engine/mergeTemplateAndState.mjs" xlink:title="mergeTemplateAndState.mjs">
<path fill="#ffffcc" stroke="black" d="M572,-212C572,-212 447,-212 447,-212 444,-212 441,-209 441,-206 441,-206 441,-200 441,-200 441,-197 444,-194 447,-194 447,-194 572,-194 572,-194 575,-194 578,-197 578,-200 578,-200 578,-206 578,-206 578,-209 575,-212 572,-212"/>
<text text-anchor="start" x="449" y="-200.8" font-family="Helvetica,sans-Serif" font-size="9.00">mergeTemplateAndState.mjs</text>
</a>
</g>
</g>
<!-- hyperspace/hyper&#45;app/hyper&#45;server/view&#45;engine/HyperViewEngine.mjs&#45;&gt;hyperspace/hyper&#45;app/hyper&#45;server/view&#45;engine/mergeTemplateAndState.mjs -->
<g id="edge9" class="edge">
<title>hyperspace/hyper&#45;app/hyper&#45;server/view&#45;engine/HyperViewEngine.mjs&#45;&gt;hyperspace/hyper&#45;app/hyper&#45;server/view&#45;engine/mergeTemplateAndState.mjs</title>
<path fill="none" stroke="#000000" stroke-width="2" stroke-opacity="0.200000" d="M425.08,-203C428.1,-203 431.16,-203 434.24,-203"/>
<polygon fill="#000000" fill-opacity="0.200000" stroke="#000000" stroke-width="2" stroke-opacity="0.200000" points="434.57,-205.1 440.57,-203 434.57,-200.9 434.57,-205.1"/>
</g>
<!-- hyperspace/webbify.mjs -->
<g id="node12" class="node">
<title>hyperspace/webbify.mjs</title>
<g id="a_node12"><a xlink:href="hyperspace/webbify.mjs" xlink:title="webbify.mjs">
<path fill="#ffffcc" stroke="black" d="M75,-290C75,-290 22,-290 22,-290 19,-290 16,-287 16,-284 16,-284 16,-278 16,-278 16,-275 19,-272 22,-272 22,-272 75,-272 75,-272 78,-272 81,-275 81,-278 81,-278 81,-284 81,-284 81,-287 78,-290 75,-290"/>
<text text-anchor="start" x="24" y="-278.8" font-family="Helvetica,sans-Serif" font-size="9.00">webbify.mjs</text>
</a>
</g>
</g>
<!-- hyperspace/webbify.mjs&#45;&gt;hyperspace/hyper&#45;app/HyperApp.mjs -->
<g id="edge11" class="edge">
<title>hyperspace/webbify.mjs&#45;&gt;hyperspace/hyper&#45;app/HyperApp.mjs</title>
<path fill="none" stroke="#000000" stroke-width="2" stroke-opacity="0.200000" d="M81.07,-281C84.14,-281 87.29,-281 90.44,-281"/>
<polygon fill="#000000" fill-opacity="0.200000" stroke="#000000" stroke-width="2" stroke-opacity="0.200000" points="90.91,-283.1 96.91,-281 90.91,-278.9 90.91,-283.1"/>
</g>
</g>
</svg>
