<?xml version="1.0" encoding="UTF-8" standalone="no"?>
<!DOCTYPE svg PUBLIC "-//W3C//DTD SVG 1.1//EN"
 "http://www.w3.org/Graphics/SVG/1.1/DTD/svg11.dtd">
<!-- Generated by graphviz version 4.0.0 (20220529.0937)
 -->
<!-- Title: dependency&#45;cruiser output Pages: 1 -->
<svg width="974pt" height="688pt"
 viewBox="0.00 0.00 974.00 688.20" xmlns="http://www.w3.org/2000/svg" xmlns:xlink="http://www.w3.org/1999/xlink">
<g id="graph0" class="graph" transform="scale(1 1) rotate(0) translate(4 684.2)">
<title>dependency&#45;cruiser output</title>
<polygon fill="white" stroke="transparent" points="-4,4 -4,-684.2 970,-684.2 970,4 -4,4"/>
<g id="clust1" class="cluster">
<title>cluster_bin</title>
<path fill="#ffffff" stroke="black" stroke-width="2" d="M781,-618.2C781,-618.2 892,-618.2 892,-618.2 898,-618.2 904,-624.2 904,-630.2 904,-630.2 904,-658.2 904,-658.2 904,-664.2 898,-670.2 892,-670.2 892,-670.2 781,-670.2 781,-670.2 775,-670.2 769,-664.2 769,-658.2 769,-658.2 769,-630.2 769,-630.2 769,-624.2 775,-618.2 781,-618.2"/>
<text text-anchor="middle" x="836.5" y="-659" font-family="Helvetica,sans-Serif" font-weight="bold" font-size="9.00">bin</text>
</g>
<g id="clust2" class="cluster">
<title>cluster_hyperspace</title>
<path fill="#ffffff" stroke="black" stroke-width="2" d="M20,-17.2C20,-17.2 626,-17.2 626,-17.2 632,-17.2 638,-23.2 638,-29.2 638,-29.2 638,-519.2 638,-519.2 638,-525.2 632,-531.2 626,-531.2 626,-531.2 20,-531.2 20,-531.2 14,-531.2 8,-525.2 8,-519.2 8,-519.2 8,-29.2 8,-29.2 8,-23.2 14,-17.2 20,-17.2"/>
<text text-anchor="middle" x="323" y="-520" font-family="Helvetica,sans-Serif" font-weight="bold" font-size="9.00">hyperspace</text>
</g>
<g id="clust3" class="cluster">
<title>cluster_hyperspace/hyper&#45;app</title>
<path fill="#ffffff" stroke="black" stroke-width="2" d="M101,-25.2C101,-25.2 618,-25.2 618,-25.2 624,-25.2 630,-31.2 630,-37.2 630,-37.2 630,-467.2 630,-467.2 630,-473.2 624,-479.2 618,-479.2 618,-479.2 101,-479.2 101,-479.2 95,-479.2 89,-473.2 89,-467.2 89,-467.2 89,-37.2 89,-37.2 89,-31.2 95,-25.2 101,-25.2"/>
<text text-anchor="middle" x="359.5" y="-468" font-family="Helvetica,sans-Serif" font-weight="bold" font-size="9.00">hyper&#45;app</text>
</g>
<g id="clust6" class="cluster">
<title>cluster_hyperspace/hyper&#45;app/public</title>
<path fill="#ffffff" stroke="black" stroke-width="2" d="M109,-247.2C109,-247.2 196,-247.2 196,-247.2 202,-247.2 208,-253.2 208,-259.2 208,-259.2 208,-441.2 208,-441.2 208,-447.2 202,-453.2 196,-453.2 196,-453.2 109,-453.2 109,-453.2 103,-453.2 97,-447.2 97,-441.2 97,-441.2 97,-259.2 97,-259.2 97,-253.2 103,-247.2 109,-247.2"/>
<text text-anchor="middle" x="152.5" y="-442" font-family="Helvetica,sans-Serif" font-weight="bold" font-size="9.00">public</text>
</g>
<g id="clust7" class="cluster">
<title>cluster_hyperspace/hyper&#45;app/public/js</title>
<path fill="#ffffff" stroke="black" stroke-width="2" d="M117,-255.2C117,-255.2 188,-255.2 188,-255.2 194,-255.2 200,-261.2 200,-267.2 200,-267.2 200,-415.2 200,-415.2 200,-421.2 194,-427.2 188,-427.2 188,-427.2 117,-427.2 117,-427.2 111,-427.2 105,-421.2 105,-415.2 105,-415.2 105,-267.2 105,-267.2 105,-261.2 111,-255.2 117,-255.2"/>
<text text-anchor="middle" x="152.5" y="-416" font-family="Helvetica,sans-Serif" font-weight="bold" font-size="9.00">js</text>
</g>
<g id="clust4" class="cluster">
<title>cluster_hyperspace/hyper&#45;app/page</title>
<path fill="#ffffff" stroke="black" stroke-width="2" d="M242.5,-341.2C242.5,-341.2 441,-341.2 441,-341.2 447,-341.2 453,-347.2 453,-353.2 453,-353.2 453,-415.2 453,-415.2 453,-421.2 447,-427.2 441,-427.2 441,-427.2 242.5,-427.2 242.5,-427.2 236.5,-427.2 230.5,-421.2 230.5,-415.2 230.5,-415.2 230.5,-353.2 230.5,-353.2 230.5,-347.2 236.5,-341.2 242.5,-341.2"/>
<text text-anchor="middle" x="341.75" y="-416" font-family="Helvetica,sans-Serif" font-weight="bold" font-size="9.00">page</text>
</g>
<g id="clust5" class="cluster">
<title>cluster_hyperspace/hyper&#45;app/page/controller</title>
<path fill="#ffffff" stroke="black" stroke-width="2" d="M344,-349.2C344,-349.2 433,-349.2 433,-349.2 439,-349.2 445,-355.2 445,-361.2 445,-361.2 445,-389.2 445,-389.2 445,-395.2 439,-401.2 433,-401.2 433,-401.2 344,-401.2 344,-401.2 338,-401.2 332,-395.2 332,-389.2 332,-389.2 332,-361.2 332,-361.2 332,-355.2 338,-349.2 344,-349.2"/>
<text text-anchor="middle" x="388.5" y="-390" font-family="Helvetica,sans-Serif" font-weight="bold" font-size="9.00">controller</text>
</g>
<g id="clust8" class="cluster">
<title>cluster_hyperspace/hyper&#45;app/server</title>
<path fill="#ffffff" stroke="black" stroke-width="2" d="M228,-33.2C228,-33.2 610,-33.2 610,-33.2 616,-33.2 622,-39.2 622,-45.2 622,-45.2 622,-321.2 622,-321.2 622,-327.2 616,-333.2 610,-333.2 610,-333.2 228,-333.2 228,-333.2 222,-333.2 216,-327.2 216,-321.2 216,-321.2 216,-45.2 216,-45.2 216,-39.2 222,-33.2 228,-33.2"/>
<text text-anchor="middle" x="419" y="-322" font-family="Helvetica,sans-Serif" font-weight="bold" font-size="9.00">server</text>
</g>
<g id="clust10" class="cluster">
<title>cluster_hyperspace/hyper&#45;app/server/static</title>
<path fill="#ffffff" stroke="black" stroke-width="2" d="M349.5,-101.2C349.5,-101.2 586.5,-101.2 586.5,-101.2 592.5,-101.2 598.5,-107.2 598.5,-113.2 598.5,-113.2 598.5,-175.2 598.5,-175.2 598.5,-181.2 592.5,-187.2 586.5,-187.2 586.5,-187.2 349.5,-187.2 349.5,-187.2 343.5,-187.2 337.5,-181.2 337.5,-175.2 337.5,-175.2 337.5,-113.2 337.5,-113.2 337.5,-107.2 343.5,-101.2 349.5,-101.2"/>
<text text-anchor="middle" x="468" y="-176" font-family="Helvetica,sans-Serif" font-weight="bold" font-size="9.00">static</text>
</g>
<g id="clust11" class="cluster">
<title>cluster_hyperspace/hyper&#45;app/server/static/file&#45;watcher</title>
<path fill="#ffffff" stroke="black" stroke-width="2" d="M480.5,-109.2C480.5,-109.2 578.5,-109.2 578.5,-109.2 584.5,-109.2 590.5,-115.2 590.5,-121.2 590.5,-121.2 590.5,-149.2 590.5,-149.2 590.5,-155.2 584.5,-161.2 578.5,-161.2 578.5,-161.2 480.5,-161.2 480.5,-161.2 474.5,-161.2 468.5,-155.2 468.5,-149.2 468.5,-149.2 468.5,-121.2 468.5,-121.2 468.5,-115.2 474.5,-109.2 480.5,-109.2"/>
<text text-anchor="middle" x="529.5" y="-150" font-family="Helvetica,sans-Serif" font-weight="bold" font-size="9.00">file&#45;watcher</text>
</g>
<g id="clust12" class="cluster">
<title>cluster_hyperspace/hyper&#45;app/server/view&#45;engine</title>
<path fill="#ffffff" stroke="black" stroke-width="2" d="M331,-195.2C331,-195.2 602,-195.2 602,-195.2 608,-195.2 614,-201.2 614,-207.2 614,-207.2 614,-295.2 614,-295.2 614,-301.2 608,-307.2 602,-307.2 602,-307.2 331,-307.2 331,-307.2 325,-307.2 319,-301.2 319,-295.2 319,-295.2 319,-207.2 319,-207.2 319,-201.2 325,-195.2 331,-195.2"/>
<text text-anchor="middle" x="466.5" y="-296" font-family="Helvetica,sans-Serif" font-weight="bold" font-size="9.00">view&#45;engine</text>
</g>
<g id="clust13" class="cluster">
<title>cluster_hyperspace/hyper&#45;app/server/view&#45;engine/hyper&#45;view&#45;engine</title>
<path fill="#ffffff" stroke="black" stroke-width="2" d="M339,-229.2C339,-229.2 594,-229.2 594,-229.2 600,-229.2 606,-235.2 606,-241.2 606,-241.2 606,-269.2 606,-269.2 606,-275.2 600,-281.2 594,-281.2 594,-281.2 339,-281.2 339,-281.2 333,-281.2 327,-275.2 327,-269.2 327,-269.2 327,-241.2 327,-241.2 327,-235.2 333,-229.2 339,-229.2"/>
<text text-anchor="middle" x="466.5" y="-270" font-family="Helvetica,sans-Serif" font-weight="bold" font-size="9.00">hyper&#45;view&#45;engine</text>
</g>
<g id="clust9" class="cluster">
<title>cluster_hyperspace/hyper&#45;app/server/socket</title>
<path fill="#ffffff" stroke="black" stroke-width="2" d="M336,-41.2C336,-41.2 441,-41.2 441,-41.2 447,-41.2 453,-47.2 453,-53.2 453,-53.2 453,-81.2 453,-81.2 453,-87.2 447,-93.2 441,-93.2 441,-93.2 336,-93.2 336,-93.2 330,-93.2 324,-87.2 324,-81.2 324,-81.2 324,-53.2 324,-53.2 324,-47.2 330,-41.2 336,-41.2"/>
<text text-anchor="middle" x="388.5" y="-82" font-family="Helvetica,sans-Serif" font-weight="bold" font-size="9.00">socket</text>
</g>
<g id="clust14" class="cluster">
<title>cluster_utils</title>
<path fill="#ffffff" stroke="black" stroke-width="2" d="M658,-498.2C658,-498.2 870,-498.2 870,-498.2 876,-498.2 882,-504.2 882,-510.2 882,-510.2 882,-598.2 882,-598.2 882,-604.2 876,-610.2 870,-610.2 870,-610.2 658,-610.2 658,-610.2 652,-610.2 646,-604.2 646,-598.2 646,-598.2 646,-510.2 646,-510.2 646,-504.2 652,-498.2 658,-498.2"/>
<text text-anchor="middle" x="764" y="-599" font-family="Helvetica,sans-Serif" font-weight="bold" font-size="9.00">utils</text>
</g>
<!-- bin/getProgramDirectory.mjs -->
<g id="node1" class="node">
<title>bin/getProgramDirectory.mjs</title>
<g id="a_node1"><a xlink:href="bin/getProgramDirectory.mjs" xlink:title="getProgramDirectory.mjs">
<path fill="#ffffcc" stroke="black" d="M890,-644.2C890,-644.2 783,-644.2 783,-644.2 780,-644.2 777,-641.2 777,-638.2 777,-638.2 777,-632.2 777,-632.2 777,-629.2 780,-626.2 783,-626.2 783,-626.2 890,-626.2 890,-626.2 893,-626.2 896,-629.2 896,-632.2 896,-632.2 896,-638.2 896,-638.2 896,-641.2 893,-644.2 890,-644.2"/>
<text text-anchor="start" x="785" y="-633" font-family="Helvetica,sans-Serif" font-size="9.00">getProgramDirectory.mjs</text>
</a>
</g>
</g>
<!-- path -->
<g id="node2" class="node">
<title>path</title>
<g id="a_node2"><a xlink:title="path">
<path fill="#ffffcc" stroke="grey" d="M960,-126.2C960,-126.2 918,-126.2 918,-126.2 915,-126.2 912,-123.2 912,-120.2 912,-120.2 912,-114.2 912,-114.2 912,-111.2 915,-108.2 918,-108.2 918,-108.2 960,-108.2 960,-108.2 963,-108.2 966,-111.2 966,-114.2 966,-114.2 966,-120.2 966,-120.2 966,-123.2 963,-126.2 960,-126.2"/>
<text text-anchor="middle" x="939" y="-115" font-family="Helvetica,sans-Serif" font-size="9.00" fill="grey">path</text>
</a>
</g>
</g>
<!-- bin/getProgramDirectory.mjs&#45;&gt;path -->
<g id="edge1" class="edge">
<title>bin/getProgramDirectory.mjs&#45;&gt;path</title>
<path fill="none" stroke="#000000" stroke-dasharray="5,2" stroke-opacity="0.200000" d="M887.55,-626.08C893.9,-622.95 899.68,-618.78 904,-613.2 934.11,-574.4 937.56,-212.45 937.95,-132.7"/>
<polygon fill="#000000" fill-opacity="0.200000" stroke="#000000" stroke-opacity="0.200000" points="940.05,-132.28 937.98,-126.27 935.85,-132.26 940.05,-132.28"/>
</g>
<!-- url -->
<g id="node3" class="node">
<title>url</title>
<g id="a_node3"><a xlink:title="url">
<path fill="#ffffcc" stroke="grey" d="M960,-644.2C960,-644.2 918,-644.2 918,-644.2 915,-644.2 912,-641.2 912,-638.2 912,-638.2 912,-632.2 912,-632.2 912,-629.2 915,-626.2 918,-626.2 918,-626.2 960,-626.2 960,-626.2 963,-626.2 966,-629.2 966,-632.2 966,-632.2 966,-638.2 966,-638.2 966,-641.2 963,-644.2 960,-644.2"/>
<text text-anchor="middle" x="939" y="-633" font-family="Helvetica,sans-Serif" font-size="9.00" fill="grey">url</text>
</a>
</g>
</g>
<!-- bin/getProgramDirectory.mjs&#45;&gt;url -->
<g id="edge2" class="edge">
<title>bin/getProgramDirectory.mjs&#45;&gt;url</title>
<path fill="none" stroke="#000000" stroke-dasharray="5,2" stroke-opacity="0.200000" d="M896.25,-635.2C899.41,-635.2 902.53,-635.2 905.55,-635.2"/>
<polygon fill="#000000" fill-opacity="0.200000" stroke="#000000" stroke-opacity="0.200000" points="905.59,-637.3 911.59,-635.2 905.59,-633.1 905.59,-637.3"/>
</g>
<!-- child_process -->
<g id="node4" class="node">
<title>child_process</title>
<g id="a_node4"><a xlink:title="child_process">
<path fill="#ffffcc" stroke="grey" d="M420,-557.2C420,-557.2 357,-557.2 357,-557.2 354,-557.2 351,-554.2 351,-551.2 351,-551.2 351,-545.2 351,-545.2 351,-542.2 354,-539.2 357,-539.2 357,-539.2 420,-539.2 420,-539.2 423,-539.2 426,-542.2 426,-545.2 426,-545.2 426,-551.2 426,-551.2 426,-554.2 423,-557.2 420,-557.2"/>
<text text-anchor="middle" x="388.5" y="-546" font-family="Helvetica,sans-Serif" font-size="9.00" fill="grey">child_process</text>
</a>
</g>
</g>
<!-- console -->
<g id="node5" class="node">
<title>console</title>
<g id="a_node5"><a xlink:title="console">
<path fill="#ffffcc" stroke="grey" d="M728.5,-126.2C728.5,-126.2 686.5,-126.2 686.5,-126.2 683.5,-126.2 680.5,-123.2 680.5,-120.2 680.5,-120.2 680.5,-114.2 680.5,-114.2 680.5,-111.2 683.5,-108.2 686.5,-108.2 686.5,-108.2 728.5,-108.2 728.5,-108.2 731.5,-108.2 734.5,-111.2 734.5,-114.2 734.5,-114.2 734.5,-120.2 734.5,-120.2 734.5,-123.2 731.5,-126.2 728.5,-126.2"/>
<text text-anchor="middle" x="707.5" y="-115" font-family="Helvetica,sans-Serif" font-size="9.00" fill="grey">console</text>
</a>
</g>
</g>
<!-- fs -->
<g id="node6" class="node">
<title>fs</title>
<g id="a_node6"><a xlink:title="fs">
<path fill="#ffffcc" stroke="grey" d="M728.5,-70.2C728.5,-70.2 686.5,-70.2 686.5,-70.2 683.5,-70.2 680.5,-67.2 680.5,-64.2 680.5,-64.2 680.5,-58.2 680.5,-58.2 680.5,-55.2 683.5,-52.2 686.5,-52.2 686.5,-52.2 728.5,-52.2 728.5,-52.2 731.5,-52.2 734.5,-55.2 734.5,-58.2 734.5,-58.2 734.5,-64.2 734.5,-64.2 734.5,-67.2 731.5,-70.2 728.5,-70.2"/>
<text text-anchor="middle" x="707.5" y="-59" font-family="Helvetica,sans-Serif" font-size="9.00" fill="grey">fs</text>
</a>
</g>
</g>
<!-- hyperspace/EventManager.mjs -->
<g id="node7" class="node">
<title>hyperspace/EventManager.mjs</title>
<g id="a_node7"><a xlink:href="hyperspace/EventManager.mjs" xlink:title="EventManager.mjs">
<path fill="#ffffcc" stroke="black" d="M570,-505.2C570,-505.2 489,-505.2 489,-505.2 486,-505.2 483,-502.2 483,-499.2 483,-499.2 483,-493.2 483,-493.2 483,-490.2 486,-487.2 489,-487.2 489,-487.2 570,-487.2 570,-487.2 573,-487.2 576,-490.2 576,-493.2 576,-493.2 576,-499.2 576,-499.2 576,-502.2 573,-505.2 570,-505.2"/>
<text text-anchor="start" x="491" y="-494" font-family="Helvetica,sans-Serif" font-size="9.00">EventManager.mjs</text>
</a>
</g>
</g>
<!-- utils/toDictionary.mjs -->
<g id="node8" class="node">
<title>utils/toDictionary.mjs</title>
<g id="a_node8"><a xlink:href="utils/toDictionary.mjs" xlink:title="toDictionary.mjs">
<path fill="#ffffcc" stroke="black" d="M743,-524.2C743,-524.2 672,-524.2 672,-524.2 669,-524.2 666,-521.2 666,-518.2 666,-518.2 666,-512.2 666,-512.2 666,-509.2 669,-506.2 672,-506.2 672,-506.2 743,-506.2 743,-506.2 746,-506.2 749,-509.2 749,-512.2 749,-512.2 749,-518.2 749,-518.2 749,-521.2 746,-524.2 743,-524.2"/>
<text text-anchor="start" x="674" y="-513" font-family="Helvetica,sans-Serif" font-size="9.00">toDictionary.mjs</text>
</a>
</g>
</g>
<!-- hyperspace/EventManager.mjs&#45;&gt;utils/toDictionary.mjs -->
<g id="edge3" class="edge">
<title>hyperspace/EventManager.mjs&#45;&gt;utils/toDictionary.mjs</title>
<path fill="none" stroke="#000000" stroke-opacity="0.200000" d="M576.28,-501.15C601.93,-503.92 633.85,-507.36 659.66,-510.15"/>
<polygon fill="#000000" fill-opacity="0.200000" stroke="#000000" stroke-opacity="0.200000" points="659.56,-512.25 665.75,-510.8 660.01,-508.07 659.56,-512.25"/>
</g>
<!-- utils/fnOrValue.mjs -->
<g id="node13" class="node">
<title>utils/fnOrValue.mjs</title>
<g id="a_node13"><a xlink:href="utils/fnOrValue.mjs" xlink:title="fnOrValue.mjs">
<path fill="#ffffcc" stroke="black" d="M868,-554.2C868,-554.2 805,-554.2 805,-554.2 802,-554.2 799,-551.2 799,-548.2 799,-548.2 799,-542.2 799,-542.2 799,-539.2 802,-536.2 805,-536.2 805,-536.2 868,-536.2 868,-536.2 871,-536.2 874,-539.2 874,-542.2 874,-542.2 874,-548.2 874,-548.2 874,-551.2 871,-554.2 868,-554.2"/>
<text text-anchor="start" x="807" y="-543" font-family="Helvetica,sans-Serif" font-size="9.00">fnOrValue.mjs</text>
</a>
</g>
</g>
<!-- utils/toDictionary.mjs&#45;&gt;utils/fnOrValue.mjs -->
<g id="edge36" class="edge">
<title>utils/toDictionary.mjs&#45;&gt;utils/fnOrValue.mjs</title>
<path fill="none" stroke="#000000" stroke-width="2" stroke-opacity="0.200000" d="M746.6,-524.21C761.18,-527.65 777.9,-531.6 792.87,-535.13"/>
<polygon fill="#000000" fill-opacity="0.200000" stroke="#000000" stroke-width="2" stroke-opacity="0.200000" points="792.41,-537.18 798.73,-536.52 793.38,-533.1 792.41,-537.18"/>
</g>
<!-- hyperspace/hyper&#45;app/HyperApp.mjs -->
<g id="node9" class="node">
<title>hyperspace/hyper&#45;app/HyperApp.mjs</title>
<g id="a_node9"><a xlink:href="hyperspace/hyper-app/HyperApp.mjs" xlink:title="HyperApp.mjs">
<path fill="#ffffcc" stroke="black" d="M183.5,-239.2C183.5,-239.2 121.5,-239.2 121.5,-239.2 118.5,-239.2 115.5,-236.2 115.5,-233.2 115.5,-233.2 115.5,-227.2 115.5,-227.2 115.5,-224.2 118.5,-221.2 121.5,-221.2 121.5,-221.2 183.5,-221.2 183.5,-221.2 186.5,-221.2 189.5,-224.2 189.5,-227.2 189.5,-227.2 189.5,-233.2 189.5,-233.2 189.5,-236.2 186.5,-239.2 183.5,-239.2"/>
<text text-anchor="start" x="123.5" y="-228" font-family="Helvetica,sans-Serif" font-size="9.00">HyperApp.mjs</text>
</a>
</g>
</g>
<!-- hyperspace/hyper&#45;app/HyperApp.mjs&#45;&gt;bin/getProgramDirectory.mjs -->
<g id="edge4" class="edge">
<title>hyperspace/hyper&#45;app/HyperApp.mjs&#45;&gt;bin/getProgramDirectory.mjs</title>
<path fill="none" stroke="#000000" stroke-width="2" stroke-opacity="0.200000" d="M189.61,-237.96C196.82,-241.18 203.53,-245.74 208,-252.2 229.13,-282.73 195.8,-555.06 216,-586.2 260.62,-655 305.5,-654.2 387.5,-654.2 387.5,-654.2 387.5,-654.2 530.5,-654.2 613.47,-654.2 708.88,-647.11 770.58,-641.6"/>
<polygon fill="#000000" fill-opacity="0.200000" stroke="#000000" stroke-width="2" stroke-opacity="0.200000" points="771.03,-643.66 776.81,-641.03 770.65,-639.48 771.03,-643.66"/>
</g>
<!-- hyperspace/hyper&#45;app/HyperApp.mjs&#45;&gt;path -->
<g id="edge9" class="edge">
<title>hyperspace/hyper&#45;app/HyperApp.mjs&#45;&gt;path</title>
<path fill="none" stroke="#000000" stroke-dasharray="5,2" stroke-opacity="0.200000" d="M153.2,-220.79C152.73,-188.42 155.93,-80.86 216,-30.2 274.79,19.38 310.6,-7.2 387.5,-7.2 387.5,-7.2 387.5,-7.2 708.5,-7.2 796.93,-7.2 834.19,10.08 904,-44.2 922.32,-58.45 931.17,-84.91 935.14,-101.75"/>
<polygon fill="#000000" fill-opacity="0.200000" stroke="#000000" stroke-opacity="0.200000" points="933.15,-102.48 936.47,-107.9 937.25,-101.6 933.15,-102.48"/>
</g>
<!-- hyperspace/hyper&#45;app/HyperApp.mjs&#45;&gt;hyperspace/EventManager.mjs -->
<g id="edge5" class="edge">
<title>hyperspace/hyper&#45;app/HyperApp.mjs&#45;&gt;hyperspace/EventManager.mjs</title>
<path fill="none" stroke="#000000" stroke-width="2" stroke-opacity="0.200000" d="M189.55,-238C196.75,-241.23 203.48,-245.78 208,-252.2 221.24,-271.03 200.38,-442.3 216,-459.2 284.46,-533.32 416.77,-519.76 485.19,-506.45"/>
<polygon fill="#000000" fill-opacity="0.200000" stroke="#000000" stroke-width="2" stroke-opacity="0.200000" points="485.73,-508.48 491.2,-505.24 484.91,-504.36 485.73,-508.48"/>
</g>
<!-- hyperspace/hyper&#45;app/json&#45;schema.mjs -->
<g id="node10" class="node">
<title>hyperspace/hyper&#45;app/json&#45;schema.mjs</title>
<g id="a_node10"><a xlink:href="hyperspace/hyper-app/json-schema.mjs" xlink:title="json&#45;schema.mjs">
<path fill="#ffffcc" stroke="black" d="M305,-453.2C305,-453.2 228,-453.2 228,-453.2 225,-453.2 222,-450.2 222,-447.2 222,-447.2 222,-441.2 222,-441.2 222,-438.2 225,-435.2 228,-435.2 228,-435.2 305,-435.2 305,-435.2 308,-435.2 311,-438.2 311,-441.2 311,-441.2 311,-447.2 311,-447.2 311,-450.2 308,-453.2 305,-453.2"/>
<text text-anchor="start" x="230" y="-442" font-family="Helvetica,sans-Serif" font-size="9.00">json&#45;schema.mjs</text>
</a>
</g>
</g>
<!-- hyperspace/hyper&#45;app/HyperApp.mjs&#45;&gt;hyperspace/hyper&#45;app/json&#45;schema.mjs -->
<g id="edge6" class="edge">
<title>hyperspace/hyper&#45;app/HyperApp.mjs&#45;&gt;hyperspace/hyper&#45;app/json&#45;schema.mjs</title>
<path fill="none" stroke="#000000" stroke-width="2" stroke-opacity="0.200000" d="M189.52,-238.02C196.72,-241.25 203.46,-245.79 208,-252.2 219.44,-268.36 203.71,-414.69 216,-430.2 216.31,-430.6 216.63,-430.98 216.97,-431.35"/>
<polygon fill="#000000" fill-opacity="0.200000" stroke="#000000" stroke-width="2" stroke-opacity="0.200000" points="215.9,-433.21 221.77,-435.65 218.69,-430.08 215.9,-433.21"/>
</g>
<!-- hyperspace/hyper&#45;app/page/Page.mjs -->
<g id="node11" class="node">
<title>hyperspace/hyper&#45;app/page/Page.mjs</title>
<g id="a_node11"><a xlink:href="hyperspace/hyper-app/page/Page.mjs" xlink:title="Page.mjs">
<path fill="#ffffcc" stroke="black" d="M288.5,-388.2C288.5,-388.2 244.5,-388.2 244.5,-388.2 241.5,-388.2 238.5,-385.2 238.5,-382.2 238.5,-382.2 238.5,-376.2 238.5,-376.2 238.5,-373.2 241.5,-370.2 244.5,-370.2 244.5,-370.2 288.5,-370.2 288.5,-370.2 291.5,-370.2 294.5,-373.2 294.5,-376.2 294.5,-376.2 294.5,-382.2 294.5,-382.2 294.5,-385.2 291.5,-388.2 288.5,-388.2"/>
<text text-anchor="start" x="246.5" y="-377" font-family="Helvetica,sans-Serif" font-size="9.00">Page.mjs</text>
</a>
</g>
</g>
<!-- hyperspace/hyper&#45;app/HyperApp.mjs&#45;&gt;hyperspace/hyper&#45;app/page/Page.mjs -->
<g id="edge7" class="edge">
<title>hyperspace/hyper&#45;app/HyperApp.mjs&#45;&gt;hyperspace/hyper&#45;app/page/Page.mjs</title>
<path fill="none" stroke="#000000" stroke-width="2" stroke-opacity="0.200000" d="M189.56,-238.32C196.68,-241.52 203.36,-245.99 208,-252.2 219.21,-267.23 207.42,-319.53 216,-336.2 222.45,-348.73 234.23,-359.19 244.68,-366.66"/>
<polygon fill="#000000" fill-opacity="0.200000" stroke="#000000" stroke-width="2" stroke-opacity="0.200000" points="243.54,-368.43 249.67,-370.08 245.91,-364.96 243.54,-368.43"/>
</g>
<!-- hyperspace/hyper&#45;app/server/HyperServer.mjs -->
<g id="node12" class="node">
<title>hyperspace/hyper&#45;app/server/HyperServer.mjs</title>
<g id="a_node12"><a xlink:href="hyperspace/hyper-app/server/HyperServer.mjs" xlink:title="HyperServer.mjs">
<path fill="#ffffcc" stroke="black" d="M303,-247.2C303,-247.2 230,-247.2 230,-247.2 227,-247.2 224,-244.2 224,-241.2 224,-241.2 224,-235.2 224,-235.2 224,-232.2 227,-229.2 230,-229.2 230,-229.2 303,-229.2 303,-229.2 306,-229.2 309,-232.2 309,-235.2 309,-235.2 309,-241.2 309,-241.2 309,-244.2 306,-247.2 303,-247.2"/>
<text text-anchor="start" x="232" y="-236" font-family="Helvetica,sans-Serif" font-size="9.00">HyperServer.mjs</text>
</a>
</g>
</g>
<!-- hyperspace/hyper&#45;app/HyperApp.mjs&#45;&gt;hyperspace/hyper&#45;app/server/HyperServer.mjs -->
<g id="edge8" class="edge">
<title>hyperspace/hyper&#45;app/HyperApp.mjs&#45;&gt;hyperspace/hyper&#45;app/server/HyperServer.mjs</title>
<path fill="none" stroke="#000000" stroke-width="2" stroke-opacity="0.200000" d="M189.55,-232.78C198.47,-233.42 208.17,-234.11 217.55,-234.78"/>
<polygon fill="#000000" fill-opacity="0.200000" stroke="#000000" stroke-width="2" stroke-opacity="0.200000" points="217.53,-236.88 223.66,-235.22 217.83,-232.69 217.53,-236.88"/>
</g>
<!-- hyperspace/hyper&#45;app/HyperApp.mjs&#45;&gt;utils/fnOrValue.mjs -->
<g id="edge10" class="edge">
<title>hyperspace/hyper&#45;app/HyperApp.mjs&#45;&gt;utils/fnOrValue.mjs</title>
<path fill="none" stroke="#000000" stroke-opacity="0.200000" d="M189.59,-237.97C196.8,-241.19 203.51,-245.75 208,-252.2 225.9,-277.94 201.03,-506.66 216,-534.2 257.51,-610.57 300.58,-628.2 387.5,-628.2 387.5,-628.2 387.5,-628.2 530.5,-628.2 634.33,-628.2 663.59,-626.14 761,-590.2 782.21,-582.38 804.08,-568.33 818.59,-558"/>
<polygon fill="#000000" fill-opacity="0.200000" stroke="#000000" stroke-opacity="0.200000" points="819.96,-559.61 823.59,-554.39 817.49,-556.2 819.96,-559.61"/>
</g>
<!-- utils/inspectErrorStack.mjs -->
<g id="node14" class="node">
<title>utils/inspectErrorStack.mjs</title>
<g id="a_node14"><a xlink:href="utils/inspectErrorStack.mjs" xlink:title="inspectErrorStack.mjs">
<path fill="#ffffcc" stroke="black" d="M755,-584.2C755,-584.2 660,-584.2 660,-584.2 657,-584.2 654,-581.2 654,-578.2 654,-578.2 654,-572.2 654,-572.2 654,-569.2 657,-566.2 660,-566.2 660,-566.2 755,-566.2 755,-566.2 758,-566.2 761,-569.2 761,-572.2 761,-572.2 761,-578.2 761,-578.2 761,-581.2 758,-584.2 755,-584.2"/>
<text text-anchor="start" x="662" y="-573" font-family="Helvetica,sans-Serif" font-size="9.00">inspectErrorStack.mjs</text>
</a>
</g>
</g>
<!-- hyperspace/hyper&#45;app/json&#45;schema.mjs&#45;&gt;utils/inspectErrorStack.mjs -->
<g id="edge11" class="edge">
<title>hyperspace/hyper&#45;app/json&#45;schema.mjs&#45;&gt;utils/inspectErrorStack.mjs</title>
<path fill="none" stroke="#000000" stroke-opacity="0.200000" d="M267.52,-453.25C268.14,-479.29 273.91,-554.59 319,-586.2 370.36,-622.21 552.38,-599.95 647.55,-585.18"/>
<polygon fill="#000000" fill-opacity="0.200000" stroke="#000000" stroke-opacity="0.200000" points="648.08,-587.23 653.69,-584.22 647.44,-583.08 648.08,-587.23"/>
</g>
<!-- hyperspace/hyper&#45;app/page/Page.mjs&#45;&gt;hyperspace/EventManager.mjs -->
<g id="edge12" class="edge">
<title>hyperspace/hyper&#45;app/page/Page.mjs&#45;&gt;hyperspace/EventManager.mjs</title>
<path fill="none" stroke="#000000" stroke-width="2" stroke-opacity="0.200000" d="M294.59,-382.3C300.77,-384.24 306.76,-387.33 311,-392.2 326.36,-409.84 303.23,-426.94 319,-444.2 339.93,-467.12 421.46,-482.15 476.42,-489.9"/>
<polygon fill="#000000" fill-opacity="0.200000" stroke="#000000" stroke-width="2" stroke-opacity="0.200000" points="476.42,-492.02 482.65,-490.77 477,-487.86 476.42,-492.02"/>
</g>
<!-- hyperspace/hyper&#45;app/page/controller/PageController.mjs -->
<g id="node15" class="node">
<title>hyperspace/hyper&#45;app/page/controller/PageController.mjs</title>
<g id="a_node15"><a xlink:href="hyperspace/hyper-app/page/controller/PageController.mjs" xlink:title="PageController.mjs">
<path fill="#ffffcc" stroke="black" d="M431,-375.2C431,-375.2 346,-375.2 346,-375.2 343,-375.2 340,-372.2 340,-369.2 340,-369.2 340,-363.2 340,-363.2 340,-360.2 343,-357.2 346,-357.2 346,-357.2 431,-357.2 431,-357.2 434,-357.2 437,-360.2 437,-363.2 437,-363.2 437,-369.2 437,-369.2 437,-372.2 434,-375.2 431,-375.2"/>
<text text-anchor="start" x="348" y="-364" font-family="Helvetica,sans-Serif" font-size="9.00">PageController.mjs</text>
</a>
</g>
</g>
<!-- hyperspace/hyper&#45;app/page/Page.mjs&#45;&gt;hyperspace/hyper&#45;app/page/controller/PageController.mjs -->
<g id="edge13" class="edge">
<title>hyperspace/hyper&#45;app/page/Page.mjs&#45;&gt;hyperspace/hyper&#45;app/page/controller/PageController.mjs</title>
<path fill="none" stroke="#000000" stroke-width="2" stroke-opacity="0.200000" d="M294.73,-376.25C306.24,-375.01 320.08,-373.51 333.51,-372.05"/>
<polygon fill="#000000" fill-opacity="0.200000" stroke="#000000" stroke-width="2" stroke-opacity="0.200000" points="333.9,-374.12 339.64,-371.39 333.45,-369.95 333.9,-374.12"/>
</g>
<!-- utils/assert.mjs -->
<g id="node16" class="node">
<title>utils/assert.mjs</title>
<g id="a_node16"><a xlink:href="utils/assert.mjs" xlink:title="assert.mjs">
<path fill="#ffffcc" stroke="black" d="M732,-554.2C732,-554.2 683,-554.2 683,-554.2 680,-554.2 677,-551.2 677,-548.2 677,-548.2 677,-542.2 677,-542.2 677,-539.2 680,-536.2 683,-536.2 683,-536.2 732,-536.2 732,-536.2 735,-536.2 738,-539.2 738,-542.2 738,-542.2 738,-548.2 738,-548.2 738,-551.2 735,-554.2 732,-554.2"/>
<text text-anchor="start" x="685" y="-543" font-family="Helvetica,sans-Serif" font-size="9.00">assert.mjs</text>
</a>
</g>
</g>
<!-- hyperspace/hyper&#45;app/page/Page.mjs&#45;&gt;utils/assert.mjs -->
<g id="edge14" class="edge">
<title>hyperspace/hyper&#45;app/page/Page.mjs&#45;&gt;utils/assert.mjs</title>
<path fill="none" stroke="#000000" stroke-opacity="0.200000" d="M294.5,-381.86C300.84,-383.8 306.92,-386.99 311,-392.2 322.72,-407.19 305.24,-550.07 319,-563.2 368.66,-610.6 584.95,-571.1 671,-553.04"/>
<polygon fill="#000000" fill-opacity="0.200000" stroke="#000000" stroke-opacity="0.200000" points="671.53,-555.07 676.97,-551.78 670.66,-550.96 671.53,-555.07"/>
</g>
<!-- hyperspace/hyper&#45;app/server/HyperServer.mjs&#45;&gt;child_process -->
<g id="edge21" class="edge">
<title>hyperspace/hyper&#45;app/server/HyperServer.mjs&#45;&gt;child_process</title>
<path fill="none" stroke="#000000" stroke-dasharray="5,2" stroke-opacity="0.200000" d="M272.92,-247.45C282.67,-264.64 302.9,-302.96 311,-338.2 315.78,-359.01 305.61,-513.57 319,-530.2 325.45,-538.21 334.99,-542.91 344.91,-545.6"/>
<polygon fill="#000000" fill-opacity="0.200000" stroke="#000000" stroke-opacity="0.200000" points="344.46,-547.65 350.78,-546.97 345.41,-543.56 344.46,-547.65"/>
</g>
<!-- hyperspace/hyper&#45;app/server/HyperServer.mjs&#45;&gt;hyperspace/EventManager.mjs -->
<g id="edge16" class="edge">
<title>hyperspace/hyper&#45;app/server/HyperServer.mjs&#45;&gt;hyperspace/EventManager.mjs</title>
<path fill="none" stroke="#000000" stroke-width="2" stroke-opacity="0.200000" d="M272.51,-247.25C281.76,-264.42 301.46,-303.13 311,-338.2 314.88,-352.46 309.51,-392.88 319,-404.2 358.99,-451.95 396.8,-418.37 453,-445.2 474.87,-455.65 497.6,-471.85 512.33,-483.19"/>
<polygon fill="#000000" fill-opacity="0.200000" stroke="#000000" stroke-width="2" stroke-opacity="0.200000" points="511.35,-485.09 517.38,-487.12 513.94,-481.78 511.35,-485.09"/>
</g>
<!-- hyperspace/hyper&#45;app/server/HyperServer.mjs&#45;&gt;utils/inspectErrorStack.mjs -->
<g id="edge22" class="edge">
<title>hyperspace/hyper&#45;app/server/HyperServer.mjs&#45;&gt;utils/inspectErrorStack.mjs</title>
<path fill="none" stroke="#000000" stroke-opacity="0.200000" d="M272.9,-247.46C282.63,-264.65 302.81,-302.98 311,-338.2 315.31,-356.73 306.39,-494.96 319,-509.2 320.36,-510.74 539.58,-547.42 647.65,-565.42"/>
<polygon fill="#000000" fill-opacity="0.200000" stroke="#000000" stroke-opacity="0.200000" points="647.39,-567.51 653.66,-566.42 648.08,-563.36 647.39,-567.51"/>
</g>
<!-- hyperspace/hyper&#45;app/server/socket/HyperServerSocket.mjs -->
<g id="node22" class="node">
<title>hyperspace/hyper&#45;app/server/socket/HyperServerSocket.mjs</title>
<g id="a_node22"><a xlink:href="hyperspace/hyper-app/server/socket/HyperServerSocket.mjs" xlink:title="HyperServerSocket.mjs">
<path fill="#ffffcc" stroke="black" d="M439,-67.2C439,-67.2 338,-67.2 338,-67.2 335,-67.2 332,-64.2 332,-61.2 332,-61.2 332,-55.2 332,-55.2 332,-52.2 335,-49.2 338,-49.2 338,-49.2 439,-49.2 439,-49.2 442,-49.2 445,-52.2 445,-55.2 445,-55.2 445,-61.2 445,-61.2 445,-64.2 442,-67.2 439,-67.2"/>
<text text-anchor="start" x="340" y="-56" font-family="Helvetica,sans-Serif" font-size="9.00">HyperServerSocket.mjs</text>
</a>
</g>
</g>
<!-- hyperspace/hyper&#45;app/server/HyperServer.mjs&#45;&gt;hyperspace/hyper&#45;app/server/socket/HyperServerSocket.mjs -->
<g id="edge17" class="edge">
<title>hyperspace/hyper&#45;app/server/HyperServer.mjs&#45;&gt;hyperspace/hyper&#45;app/server/socket/HyperServerSocket.mjs</title>
<path fill="none" stroke="#000000" stroke-width="2" stroke-opacity="0.200000" d="M268.71,-228.95C272.27,-204.83 284.74,-139.1 319,-98.2 329.29,-85.92 344.38,-76.54 357.78,-69.96"/>
<polygon fill="#000000" fill-opacity="0.200000" stroke="#000000" stroke-width="2" stroke-opacity="0.200000" points="358.87,-71.77 363.4,-67.31 357.08,-67.97 358.87,-71.77"/>
</g>
<!-- hyperspace/hyper&#45;app/server/static/StaticLoader.mjs -->
<g id="node23" class="node">
<title>hyperspace/hyper&#45;app/server/static/StaticLoader.mjs</title>
<g id="a_node23"><a xlink:href="hyperspace/hyper-app/server/static/StaticLoader.mjs" xlink:title="StaticLoader.mjs">
<path fill="#ffffcc" stroke="black" d="M425.5,-131.2C425.5,-131.2 351.5,-131.2 351.5,-131.2 348.5,-131.2 345.5,-128.2 345.5,-125.2 345.5,-125.2 345.5,-119.2 345.5,-119.2 345.5,-116.2 348.5,-113.2 351.5,-113.2 351.5,-113.2 425.5,-113.2 425.5,-113.2 428.5,-113.2 431.5,-116.2 431.5,-119.2 431.5,-119.2 431.5,-125.2 431.5,-125.2 431.5,-128.2 428.5,-131.2 425.5,-131.2"/>
<text text-anchor="start" x="353.5" y="-120" font-family="Helvetica,sans-Serif" font-size="9.00">StaticLoader.mjs</text>
</a>
</g>
</g>
<!-- hyperspace/hyper&#45;app/server/HyperServer.mjs&#45;&gt;hyperspace/hyper&#45;app/server/static/StaticLoader.mjs -->
<g id="edge18" class="edge">
<title>hyperspace/hyper&#45;app/server/HyperServer.mjs&#45;&gt;hyperspace/hyper&#45;app/server/static/StaticLoader.mjs</title>
<path fill="none" stroke="#000000" stroke-width="2" stroke-opacity="0.200000" d="M276.92,-229.1C297.95,-208.77 348.82,-159.59 373.55,-135.69"/>
<polygon fill="#000000" fill-opacity="0.200000" stroke="#000000" stroke-width="2" stroke-opacity="0.200000" points="375.27,-136.94 378.13,-131.26 372.35,-133.92 375.27,-136.94"/>
</g>
<!-- hyperspace/hyper&#45;app/server/view&#45;engine/ExpressViewEngine.mjs -->
<g id="node24" class="node">
<title>hyperspace/hyper&#45;app/server/view&#45;engine/ExpressViewEngine.mjs</title>
<g id="a_node24"><a xlink:href="hyperspace/hyper-app/server/view-engine/ExpressViewEngine.mjs" xlink:title="ExpressViewEngine.mjs">
<path fill="#ffffcc" stroke="black" d="M441,-221.2C441,-221.2 336,-221.2 336,-221.2 333,-221.2 330,-218.2 330,-215.2 330,-215.2 330,-209.2 330,-209.2 330,-206.2 333,-203.2 336,-203.2 336,-203.2 441,-203.2 441,-203.2 444,-203.2 447,-206.2 447,-209.2 447,-209.2 447,-215.2 447,-215.2 447,-218.2 444,-221.2 441,-221.2"/>
<text text-anchor="start" x="338" y="-210" font-family="Helvetica,sans-Serif" font-size="9.00">ExpressViewEngine.mjs</text>
</a>
</g>
</g>
<!-- hyperspace/hyper&#45;app/server/HyperServer.mjs&#45;&gt;hyperspace/hyper&#45;app/server/view&#45;engine/ExpressViewEngine.mjs -->
<g id="edge19" class="edge">
<title>hyperspace/hyper&#45;app/server/HyperServer.mjs&#45;&gt;hyperspace/hyper&#45;app/server/view&#45;engine/ExpressViewEngine.mjs</title>
<path fill="none" stroke="#000000" stroke-width="2" stroke-opacity="0.200000" d="M305.72,-229.18C310.19,-228.16 314.7,-227.15 319,-226.2 324.69,-224.96 330.66,-223.69 336.59,-222.45"/>
<polygon fill="#000000" fill-opacity="0.200000" stroke="#000000" stroke-width="2" stroke-opacity="0.200000" points="337.06,-224.49 342.51,-221.22 336.21,-220.38 337.06,-224.49"/>
</g>
<!-- hyperspace/hyper&#45;app/server/view&#45;engine/hyper&#45;view&#45;engine/HyperViewEngine.mjs -->
<g id="node25" class="node">
<title>hyperspace/hyper&#45;app/server/view&#45;engine/hyper&#45;view&#45;engine/HyperViewEngine.mjs</title>
<g id="a_node25"><a xlink:href="hyperspace/hyper-app/server/view-engine/hyper-view-engine/HyperViewEngine.mjs" xlink:title="HyperViewEngine.mjs">
<path fill="#ffffcc" stroke="black" d="M436,-255.2C436,-255.2 341,-255.2 341,-255.2 338,-255.2 335,-252.2 335,-249.2 335,-249.2 335,-243.2 335,-243.2 335,-240.2 338,-237.2 341,-237.2 341,-237.2 436,-237.2 436,-237.2 439,-237.2 442,-240.2 442,-243.2 442,-243.2 442,-249.2 442,-249.2 442,-252.2 439,-255.2 436,-255.2"/>
<text text-anchor="start" x="343" y="-244" font-family="Helvetica,sans-Serif" font-size="9.00">HyperViewEngine.mjs</text>
</a>
</g>
</g>
<!-- hyperspace/hyper&#45;app/server/HyperServer.mjs&#45;&gt;hyperspace/hyper&#45;app/server/view&#45;engine/hyper&#45;view&#45;engine/HyperViewEngine.mjs -->
<g id="edge20" class="edge">
<title>hyperspace/hyper&#45;app/server/HyperServer.mjs&#45;&gt;hyperspace/hyper&#45;app/server/view&#45;engine/hyper&#45;view&#45;engine/HyperViewEngine.mjs</title>
<path fill="none" stroke="#000000" stroke-width="2" stroke-opacity="0.200000" d="M309.13,-240.98C315.46,-241.4 322.08,-241.84 328.69,-242.28"/>
<polygon fill="#000000" fill-opacity="0.200000" stroke="#000000" stroke-width="2" stroke-opacity="0.200000" points="328.61,-244.38 334.74,-242.69 328.89,-240.19 328.61,-244.38"/>
</g>
<!-- utils/inspectErrorStack.mjs&#45;&gt;bin/getProgramDirectory.mjs -->
<g id="edge34" class="edge">
<title>utils/inspectErrorStack.mjs&#45;&gt;bin/getProgramDirectory.mjs</title>
<path fill="none" stroke="#000000" stroke-width="2" stroke-opacity="0.200000" d="M720.97,-584.3C732.86,-592.65 751.49,-604.96 769,-613.2 777.84,-617.37 787.68,-621.08 797.02,-624.22"/>
<polygon fill="#000000" fill-opacity="0.200000" stroke="#000000" stroke-width="2" stroke-opacity="0.200000" points="796.4,-626.23 802.76,-626.1 797.71,-622.24 796.4,-626.23"/>
</g>
<!-- utils/inspectErrorStack.mjs&#45;&gt;path -->
<g id="edge35" class="edge">
<title>utils/inspectErrorStack.mjs&#45;&gt;path</title>
<path fill="none" stroke="#000000" stroke-dasharray="5,2" stroke-opacity="0.200000" d="M753.37,-566.11C756.16,-564.46 758.74,-562.5 761,-560.2 770.67,-550.36 764.6,-543.28 769,-530.2 822.63,-370.77 906.86,-184.68 931.2,-131.85"/>
<polygon fill="#000000" fill-opacity="0.200000" stroke="#000000" stroke-opacity="0.200000" points="933.14,-132.67 933.75,-126.34 929.32,-130.91 933.14,-132.67"/>
</g>
<!-- hyperspace/hyper&#45;app/page/controller/PageController.mjs&#45;&gt;hyperspace/EventManager.mjs -->
<g id="edge15" class="edge">
<title>hyperspace/hyper&#45;app/page/controller/PageController.mjs&#45;&gt;hyperspace/EventManager.mjs</title>
<path fill="none" stroke="#000000" stroke-width="2" stroke-opacity="0.200000" d="M437,-371.52C442.68,-373.4 448.17,-375.9 453,-379.2 490.53,-404.87 513.66,-455.97 523.3,-481.28"/>
<polygon fill="#000000" fill-opacity="0.200000" stroke="#000000" stroke-width="2" stroke-opacity="0.200000" points="521.41,-482.23 525.46,-487.13 525.35,-480.77 521.41,-482.23"/>
</g>
<!-- hyperspace/hyper&#45;app/public/js/app.js -->
<g id="node17" class="node">
<title>hyperspace/hyper&#45;app/public/js/app.js</title>
<g id="a_node17"><a xlink:href="hyperspace/hyper-app/public/js/app.js" xlink:title="app.js">
<path fill="#ccffcc" stroke="black" d="M173.5,-401.2C173.5,-401.2 131.5,-401.2 131.5,-401.2 128.5,-401.2 125.5,-398.2 125.5,-395.2 125.5,-395.2 125.5,-389.2 125.5,-389.2 125.5,-386.2 128.5,-383.2 131.5,-383.2 131.5,-383.2 173.5,-383.2 173.5,-383.2 176.5,-383.2 179.5,-386.2 179.5,-389.2 179.5,-389.2 179.5,-395.2 179.5,-395.2 179.5,-398.2 176.5,-401.2 173.5,-401.2"/>
<text text-anchor="start" x="139.5" y="-390" font-family="Helvetica,sans-Serif" font-size="9.00">app.js</text>
</a>
</g>
</g>
<!-- hyperspace/hyper&#45;app/public/js/hyperactions.js -->
<g id="node18" class="node">
<title>hyperspace/hyper&#45;app/public/js/hyperactions.js</title>
<g id="a_node18"><a xlink:href="hyperspace/hyper-app/public/js/hyperactions.js" xlink:title="hyperactions.js">
<path fill="#ccffcc" stroke="black" d="M186,-371.2C186,-371.2 119,-371.2 119,-371.2 116,-371.2 113,-368.2 113,-365.2 113,-365.2 113,-359.2 113,-359.2 113,-356.2 116,-353.2 119,-353.2 119,-353.2 186,-353.2 186,-353.2 189,-353.2 192,-356.2 192,-359.2 192,-359.2 192,-365.2 192,-365.2 192,-368.2 189,-371.2 186,-371.2"/>
<text text-anchor="start" x="121" y="-360" font-family="Helvetica,sans-Serif" font-size="9.00">hyperactions.js</text>
</a>
</g>
</g>
<!-- hyperspace/hyper&#45;app/public/js/hyperclient.js -->
<g id="node19" class="node">
<title>hyperspace/hyper&#45;app/public/js/hyperclient.js</title>
<g id="a_node19"><a xlink:href="hyperspace/hyper-app/public/js/hyperclient.js" xlink:title="hyperclient.js">
<path fill="#ccffcc" stroke="black" d="M182,-341.2C182,-341.2 123,-341.2 123,-341.2 120,-341.2 117,-338.2 117,-335.2 117,-335.2 117,-329.2 117,-329.2 117,-326.2 120,-323.2 123,-323.2 123,-323.2 182,-323.2 182,-323.2 185,-323.2 188,-326.2 188,-329.2 188,-329.2 188,-335.2 188,-335.2 188,-338.2 185,-341.2 182,-341.2"/>
<text text-anchor="start" x="125" y="-330" font-family="Helvetica,sans-Serif" font-size="9.00">hyperclient.js</text>
</a>
</g>
</g>
<!-- hyperspace/hyper&#45;app/public/js/hyperstate.js -->
<g id="node20" class="node">
<title>hyperspace/hyper&#45;app/public/js/hyperstate.js</title>
<g id="a_node20"><a xlink:href="hyperspace/hyper-app/public/js/hyperstate.js" xlink:title="hyperstate.js">
<path fill="#ccffcc" stroke="black" d="M181,-311.2C181,-311.2 124,-311.2 124,-311.2 121,-311.2 118,-308.2 118,-305.2 118,-305.2 118,-299.2 118,-299.2 118,-296.2 121,-293.2 124,-293.2 124,-293.2 181,-293.2 181,-293.2 184,-293.2 187,-296.2 187,-299.2 187,-299.2 187,-305.2 187,-305.2 187,-308.2 184,-311.2 181,-311.2"/>
<text text-anchor="start" x="126" y="-300" font-family="Helvetica,sans-Serif" font-size="9.00">hyperstate.js</text>
</a>
</g>
</g>
<!-- hyperspace/hyper&#45;app/public/js/lodash.min.js -->
<g id="node21" class="node">
<title>hyperspace/hyper&#45;app/public/js/lodash.min.js</title>
<g id="a_node21"><a xlink:href="hyperspace/hyper-app/public/js/lodash.min.js" xlink:title="lodash.min.js">
<path fill="#ccffcc" stroke="black" d="M183,-281.2C183,-281.2 122,-281.2 122,-281.2 119,-281.2 116,-278.2 116,-275.2 116,-275.2 116,-269.2 116,-269.2 116,-266.2 119,-263.2 122,-263.2 122,-263.2 183,-263.2 183,-263.2 186,-263.2 189,-266.2 189,-269.2 189,-269.2 189,-275.2 189,-275.2 189,-278.2 186,-281.2 183,-281.2"/>
<text text-anchor="start" x="124" y="-270" font-family="Helvetica,sans-Serif" font-size="9.00">lodash.min.js</text>
</a>
</g>
</g>
<!-- hyperspace/hyper&#45;app/server/static/StaticLoader.mjs&#45;&gt;path -->
<g id="edge25" class="edge">
<title>hyperspace/hyper&#45;app/server/static/StaticLoader.mjs&#45;&gt;path</title>
<path fill="none" stroke="#000000" stroke-dasharray="5,2" stroke-opacity="0.200000" d="M429.25,-113.13C438.27,-109.3 446.95,-103.88 453,-96.2 467.47,-77.84 443.25,-59.43 461,-44.2 511.6,-0.79 694.82,-38.12 761,-46.2 825.74,-54.11 847.85,-46.01 904,-79.2 913.78,-84.99 922.3,-94.53 928.37,-102.6"/>
<polygon fill="#000000" fill-opacity="0.200000" stroke="#000000" stroke-opacity="0.200000" points="926.96,-104.24 932.16,-107.89 930.37,-101.79 926.96,-104.24"/>
</g>
<!-- hyperspace/hyper&#45;app/server/static/StaticLoader.mjs&#45;&gt;fs -->
<g id="edge24" class="edge">
<title>hyperspace/hyper&#45;app/server/static/StaticLoader.mjs&#45;&gt;fs</title>
<path fill="none" stroke="#000000" stroke-dasharray="5,2" stroke-opacity="0.200000" d="M425.45,-113.19C435.36,-109.29 445.45,-103.82 453,-96.2 459.74,-89.41 453.24,-81.81 461,-76.2 524.69,-30.19 623.67,-42.58 674.29,-53.18"/>
<polygon fill="#000000" fill-opacity="0.200000" stroke="#000000" stroke-opacity="0.200000" points="673.91,-55.25 680.22,-54.46 674.8,-51.14 673.91,-55.25"/>
</g>
<!-- hyperspace/hyper&#45;app/server/static/file&#45;watcher/StaticFileWatcher.mjs -->
<g id="node26" class="node">
<title>hyperspace/hyper&#45;app/server/static/file&#45;watcher/StaticFileWatcher.mjs</title>
<g id="a_node26"><a xlink:href="hyperspace/hyper-app/server/static/file-watcher/StaticFileWatcher.mjs" xlink:title="StaticFileWatcher.mjs">
<path fill="#ffffcc" stroke="black" d="M576.5,-135.2C576.5,-135.2 482.5,-135.2 482.5,-135.2 479.5,-135.2 476.5,-132.2 476.5,-129.2 476.5,-129.2 476.5,-123.2 476.5,-123.2 476.5,-120.2 479.5,-117.2 482.5,-117.2 482.5,-117.2 576.5,-117.2 576.5,-117.2 579.5,-117.2 582.5,-120.2 582.5,-123.2 582.5,-123.2 582.5,-129.2 582.5,-129.2 582.5,-132.2 579.5,-135.2 576.5,-135.2"/>
<text text-anchor="start" x="484.5" y="-124" font-family="Helvetica,sans-Serif" font-size="9.00">StaticFileWatcher.mjs</text>
</a>
</g>
</g>
<!-- hyperspace/hyper&#45;app/server/static/StaticLoader.mjs&#45;&gt;hyperspace/hyper&#45;app/server/static/file&#45;watcher/StaticFileWatcher.mjs -->
<g id="edge23" class="edge">
<title>hyperspace/hyper&#45;app/server/static/StaticLoader.mjs&#45;&gt;hyperspace/hyper&#45;app/server/static/file&#45;watcher/StaticFileWatcher.mjs</title>
<path fill="none" stroke="#000000" stroke-width="2" stroke-opacity="0.200000" d="M431.58,-123.42C443.74,-123.76 457.22,-124.15 470.18,-124.53"/>
<polygon fill="#000000" fill-opacity="0.200000" stroke="#000000" stroke-width="2" stroke-opacity="0.200000" points="470.43,-126.63 476.49,-124.71 470.55,-122.44 470.43,-126.63"/>
</g>
<!-- hyperspace/hyper&#45;app/server/view&#45;engine/ExpressViewEngine.mjs&#45;&gt;path -->
<g id="edge30" class="edge">
<title>hyperspace/hyper&#45;app/server/view&#45;engine/ExpressViewEngine.mjs&#45;&gt;path</title>
<path fill="none" stroke="#000000" stroke-dasharray="5,2" stroke-opacity="0.200000" d="M436.25,-203.1C442.69,-199.98 448.6,-195.8 453,-190.2 464.59,-175.46 447.26,-118.97 461,-106.2 525.2,-46.55 809.17,-93.03 905.73,-110.94"/>
<polygon fill="#000000" fill-opacity="0.200000" stroke="#000000" stroke-opacity="0.200000" points="905.53,-113.04 911.82,-112.08 906.3,-108.91 905.53,-113.04"/>
</g>
<!-- hyperspace/hyper&#45;app/server/view&#45;engine/hyper&#45;view&#45;engine/mergeTemplateAndState.mjs -->
<g id="node27" class="node">
<title>hyperspace/hyper&#45;app/server/view&#45;engine/hyper&#45;view&#45;engine/mergeTemplateAndState.mjs</title>
<g id="a_node27"><a xlink:href="hyperspace/hyper-app/server/view-engine/hyper-view-engine/mergeTemplateAndState.mjs" xlink:title="mergeTemplateAndState.mjs">
<path fill="#ffffcc" stroke="black" d="M592,-255.2C592,-255.2 467,-255.2 467,-255.2 464,-255.2 461,-252.2 461,-249.2 461,-249.2 461,-243.2 461,-243.2 461,-240.2 464,-237.2 467,-237.2 467,-237.2 592,-237.2 592,-237.2 595,-237.2 598,-240.2 598,-243.2 598,-243.2 598,-249.2 598,-249.2 598,-252.2 595,-255.2 592,-255.2"/>
<text text-anchor="start" x="469" y="-244" font-family="Helvetica,sans-Serif" font-size="9.00">mergeTemplateAndState.mjs</text>
</a>
</g>
</g>
<!-- hyperspace/hyper&#45;app/server/view&#45;engine/hyper&#45;view&#45;engine/HyperViewEngine.mjs&#45;&gt;hyperspace/hyper&#45;app/server/view&#45;engine/hyper&#45;view&#45;engine/mergeTemplateAndState.mjs -->
<g id="edge31" class="edge">
<title>hyperspace/hyper&#45;app/server/view&#45;engine/hyper&#45;view&#45;engine/HyperViewEngine.mjs&#45;&gt;hyperspace/hyper&#45;app/server/view&#45;engine/hyper&#45;view&#45;engine/mergeTemplateAndState.mjs</title>
<path fill="none" stroke="#000000" stroke-width="2" stroke-opacity="0.200000" d="M442.05,-246.2C446.18,-246.2 450.4,-246.2 454.64,-246.2"/>
<polygon fill="#000000" fill-opacity="0.200000" stroke="#000000" stroke-width="2" stroke-opacity="0.200000" points="454.86,-248.3 460.86,-246.2 454.86,-244.1 454.86,-248.3"/>
</g>
<!-- hyperspace/hyper&#45;app/server/static/file&#45;watcher/StaticFileWatcher.mjs&#45;&gt;path -->
<g id="edge28" class="edge">
<title>hyperspace/hyper&#45;app/server/static/file&#45;watcher/StaticFileWatcher.mjs&#45;&gt;path</title>
<path fill="none" stroke="#000000" stroke-dasharray="5,2" stroke-opacity="0.200000" d="M582.51,-129.48C602.37,-130.58 625.23,-131.66 646,-132.2 697.09,-133.53 709.93,-134.36 761,-132.2 811.62,-130.06 870.16,-124.49 905.61,-120.78"/>
<polygon fill="#000000" fill-opacity="0.200000" stroke="#000000" stroke-opacity="0.200000" points="906.21,-122.83 911.95,-120.11 905.76,-118.65 906.21,-122.83"/>
</g>
<!-- hyperspace/hyper&#45;app/server/static/file&#45;watcher/StaticFileWatcher.mjs&#45;&gt;console -->
<g id="edge26" class="edge">
<title>hyperspace/hyper&#45;app/server/static/file&#45;watcher/StaticFileWatcher.mjs&#45;&gt;console</title>
<path fill="none" stroke="#000000" stroke-dasharray="5,2" stroke-opacity="0.200000" d="M582.83,-123.53C612.35,-122.02 648.31,-120.18 673.83,-118.87"/>
<polygon fill="#000000" fill-opacity="0.200000" stroke="#000000" stroke-opacity="0.200000" points="674.2,-120.96 680.08,-118.56 673.98,-116.76 674.2,-120.96"/>
</g>
<!-- hyperspace/hyper&#45;app/server/static/file&#45;watcher/StaticFileWatcher.mjs&#45;&gt;fs -->
<g id="edge27" class="edge">
<title>hyperspace/hyper&#45;app/server/static/file&#45;watcher/StaticFileWatcher.mjs&#45;&gt;fs</title>
<path fill="none" stroke="#000000" stroke-dasharray="5,2" stroke-opacity="0.200000" d="M554.97,-117.17C586.67,-105.46 641.91,-85.06 676.22,-72.39"/>
<polygon fill="#000000" fill-opacity="0.200000" stroke="#000000" stroke-opacity="0.200000" points="677.05,-74.32 681.95,-70.27 675.6,-70.38 677.05,-74.32"/>
</g>
<!-- hyperspace/hyper&#45;app/server/static/file&#45;watcher/StaticFileWatcher.mjs&#45;&gt;utils/inspectErrorStack.mjs -->
<g id="edge29" class="edge">
<title>hyperspace/hyper&#45;app/server/static/file&#45;watcher/StaticFileWatcher.mjs&#45;&gt;utils/inspectErrorStack.mjs</title>
<path fill="none" stroke="#000000" stroke-opacity="0.200000" d="M546.66,-135.34C571.64,-150.48 618.76,-183.43 638,-226.2 645.61,-243.13 634.39,-545.72 646,-560.2 646.84,-561.25 647.74,-562.23 648.69,-563.14"/>
<polygon fill="#000000" fill-opacity="0.200000" stroke="#000000" stroke-opacity="0.200000" points="647.84,-565.15 653.84,-567.23 650.44,-561.86 647.84,-565.15"/>
</g>
<!-- hyperspace/webbify.mjs -->
<g id="node28" class="node">
<title>hyperspace/webbify.mjs</title>
<g id="a_node28"><a xlink:href="hyperspace/webbify.mjs" xlink:title="webbify.mjs">
<path fill="#ffffcc" stroke="black" d="M75,-372.2C75,-372.2 22,-372.2 22,-372.2 19,-372.2 16,-369.2 16,-366.2 16,-366.2 16,-360.2 16,-360.2 16,-357.2 19,-354.2 22,-354.2 22,-354.2 75,-354.2 75,-354.2 78,-354.2 81,-357.2 81,-360.2 81,-360.2 81,-366.2 81,-366.2 81,-369.2 78,-372.2 75,-372.2"/>
<text text-anchor="start" x="24" y="-361" font-family="Helvetica,sans-Serif" font-size="9.00">webbify.mjs</text>
</a>
</g>
</g>
<!-- hyperspace/webbify.mjs&#45;&gt;hyperspace/hyper&#45;app/HyperApp.mjs -->
<g id="edge32" class="edge">
<title>hyperspace/webbify.mjs&#45;&gt;hyperspace/hyper&#45;app/HyperApp.mjs</title>
<path fill="none" stroke="#000000" stroke-width="2" stroke-opacity="0.200000" d="M50.15,-354.05C52.14,-333.1 59.88,-281.23 89,-252.2 94.71,-246.51 101.99,-242.28 109.54,-239.15"/>
<polygon fill="#000000" fill-opacity="0.200000" stroke="#000000" stroke-width="2" stroke-opacity="0.200000" points="110.47,-241.04 115.34,-236.96 108.99,-237.11 110.47,-241.04"/>
</g>
<!-- hyperspace/webbify.mjs&#45;&gt;utils/inspectErrorStack.mjs -->
<g id="edge33" class="edge">
<title>hyperspace/webbify.mjs&#45;&gt;utils/inspectErrorStack.mjs</title>
<path fill="none" stroke="#000000" stroke-opacity="0.200000" d="M50.99,-372.35C60.03,-424.32 112.33,-680.2 265.5,-680.2 265.5,-680.2 265.5,-680.2 389.5,-680.2 506.45,-680.2 635.92,-615.01 685.57,-587.36"/>
<polygon fill="#000000" fill-opacity="0.200000" stroke="#000000" stroke-opacity="0.200000" points="686.74,-589.11 690.94,-584.34 684.69,-585.45 686.74,-589.11"/>
</g>
</g>
</svg>
