<?xml version="1.0" encoding="UTF-8" standalone="no"?>
<!DOCTYPE svg PUBLIC "-//W3C//DTD SVG 1.1//EN"
 "http://www.w3.org/Graphics/SVG/1.1/DTD/svg11.dtd">
<!-- Generated by graphviz version 3.0.0 (20220226.1711)
 -->
<!-- Title: G Pages: 1 -->
<svg width="408pt" height="230pt"
 viewBox="0.00 0.00 408.20 230.20" xmlns="http://www.w3.org/2000/svg" xmlns:xlink="http://www.w3.org/1999/xlink">
<g id="graph0" class="graph" transform="scale(1 1) rotate(0) translate(21.6 208.6)">
<title>G</title>
<polygon fill="#111111" stroke="transparent" points="-21.6,21.6 -21.6,-208.6 386.6,-208.6 386.6,21.6 -21.6,21.6"/>
<!-- ../utils/inspectErrorStack.mjs -->
<g id="node1" class="node">
<title>../utils/inspectErrorStack.mjs</title>
<path fill="none" stroke="#cfffac" d="M322.83,-187C322.83,-187 143.17,-187 143.17,-187 139.33,-187 135.5,-183.17 135.5,-179.33 135.5,-179.33 135.5,-171.67 135.5,-171.67 135.5,-167.83 139.33,-164 143.17,-164 143.17,-164 322.83,-164 322.83,-164 326.67,-164 330.5,-167.83 330.5,-171.67 330.5,-171.67 330.5,-179.33 330.5,-179.33 330.5,-183.17 326.67,-187 322.83,-187"/>
<text text-anchor="middle" x="233" y="-171.8" font-family="Arial" font-size="14.00" fill="#cfffac">../utils/inspectErrorStack.mjs</text>
</g>
<!-- ../utils/nextCommand.mjs -->
<g id="node2" class="node">
<title>../utils/nextCommand.mjs</title>
<path fill="none" stroke="#cfffac" d="M312.83,-146C312.83,-146 153.17,-146 153.17,-146 149.33,-146 145.5,-142.17 145.5,-138.33 145.5,-138.33 145.5,-130.67 145.5,-130.67 145.5,-126.83 149.33,-123 153.17,-123 153.17,-123 312.83,-123 312.83,-123 316.67,-123 320.5,-126.83 320.5,-130.67 320.5,-130.67 320.5,-138.33 320.5,-138.33 320.5,-142.17 316.67,-146 312.83,-146"/>
<text text-anchor="middle" x="233" y="-130.8" font-family="Arial" font-size="14.00" fill="#cfffac">../utils/nextCommand.mjs</text>
</g>
<!-- index.js -->
<g id="node3" class="node">
<title>index.js</title>
<path fill="none" stroke="#c6c5fe" d="M57.33,-105C57.33,-105 7.67,-105 7.67,-105 3.83,-105 0,-101.17 0,-97.33 0,-97.33 0,-89.67 0,-89.67 0,-85.83 3.83,-82 7.67,-82 7.67,-82 57.33,-82 57.33,-82 61.17,-82 65,-85.83 65,-89.67 65,-89.67 65,-97.33 65,-97.33 65,-101.17 61.17,-105 57.33,-105"/>
<text text-anchor="middle" x="32.5" y="-89.8" font-family="Arial" font-size="14.00" fill="#c6c5fe">index.js</text>
</g>
<!-- index.js&#45;&gt;../utils/inspectErrorStack.mjs -->
<g id="edge4" class="edge">
<title>index.js&#45;&gt;../utils/inspectErrorStack.mjs</title>
<path fill="none" stroke="#757575" d="M42.56,-105.32C54.34,-119.74 76.32,-143.66 101,-155.5 108.76,-159.22 117.05,-162.28 125.55,-164.8"/>
<polygon fill="#757575" stroke="#757575" points="124.66,-168.18 135.22,-167.41 126.48,-161.42 124.66,-168.18"/>
</g>
<!-- index.js&#45;&gt;../utils/nextCommand.mjs -->
<g id="edge5" class="edge">
<title>index.js&#45;&gt;../utils/nextCommand.mjs</title>
<path fill="none" stroke="#757575" d="M65.16,-104.43C76.38,-108.01 89.16,-111.77 101,-114.5 112.01,-117.04 123.62,-119.34 135.19,-121.4"/>
<polygon fill="#757575" stroke="#757575" points="134.88,-124.9 145.33,-123.15 136.07,-118 134.88,-124.9"/>
</g>
<!-- ../node_modules/chalk/source/index.js -->
<g id="node4" class="node">
<title>../node_modules/chalk/source/index.js</title>
<path fill="none" stroke="#cfffac" d="M354.33,-105C354.33,-105 111.67,-105 111.67,-105 107.83,-105 104,-101.17 104,-97.33 104,-97.33 104,-89.67 104,-89.67 104,-85.83 107.83,-82 111.67,-82 111.67,-82 354.33,-82 354.33,-82 358.17,-82 362,-85.83 362,-89.67 362,-89.67 362,-97.33 362,-97.33 362,-101.17 358.17,-105 354.33,-105"/>
<text text-anchor="middle" x="233" y="-89.8" font-family="Arial" font-size="14.00" fill="#cfffac">../node_modules/chalk/source/index.js</text>
</g>
<!-- index.js&#45;&gt;../node_modules/chalk/source/index.js -->
<g id="edge1" class="edge">
<title>index.js&#45;&gt;../node_modules/chalk/source/index.js</title>
<path fill="none" stroke="#757575" d="M65.39,-93.5C73.78,-93.5 83.38,-93.5 93.65,-93.5"/>
<polygon fill="#757575" stroke="#757575" points="93.68,-97 103.68,-93.5 93.68,-90 93.68,-97"/>
</g>
<!-- ../node_modules/lodash/lodash.js -->
<g id="node5" class="node">
<title>../node_modules/lodash/lodash.js</title>
<path fill="none" stroke="#cfffac" d="M339.83,-64C339.83,-64 126.17,-64 126.17,-64 122.33,-64 118.5,-60.17 118.5,-56.33 118.5,-56.33 118.5,-48.67 118.5,-48.67 118.5,-44.83 122.33,-41 126.17,-41 126.17,-41 339.83,-41 339.83,-41 343.67,-41 347.5,-44.83 347.5,-48.67 347.5,-48.67 347.5,-56.33 347.5,-56.33 347.5,-60.17 343.67,-64 339.83,-64"/>
<text text-anchor="middle" x="233" y="-48.8" font-family="Arial" font-size="14.00" fill="#cfffac">../node_modules/lodash/lodash.js</text>
</g>
<!-- index.js&#45;&gt;../node_modules/lodash/lodash.js -->
<g id="edge2" class="edge">
<title>index.js&#45;&gt;../node_modules/lodash/lodash.js</title>
<path fill="none" stroke="#757575" d="M65.21,-83.19C76.43,-79.78 89.2,-76.18 101,-73.5 113.44,-70.67 126.63,-68.09 139.66,-65.77"/>
<polygon fill="#757575" stroke="#757575" points="140.32,-69.2 149.58,-64.05 139.13,-62.31 140.32,-69.2"/>
</g>
<!-- ../node_modules/yargs/helpers/index.js -->
<g id="node6" class="node">
<title>../node_modules/yargs/helpers/index.js</title>
<path fill="none" stroke="#cfffac" d="M357.33,-23C357.33,-23 108.67,-23 108.67,-23 104.83,-23 101,-19.17 101,-15.33 101,-15.33 101,-7.67 101,-7.67 101,-3.83 104.83,0 108.67,0 108.67,0 357.33,0 357.33,0 361.17,0 365,-3.83 365,-7.67 365,-7.67 365,-15.33 365,-15.33 365,-19.17 361.17,-23 357.33,-23"/>
<text text-anchor="middle" x="233" y="-7.8" font-family="Arial" font-size="14.00" fill="#cfffac">../node_modules/yargs/helpers/index.js</text>
</g>
<!-- index.js&#45;&gt;../node_modules/yargs/helpers/index.js -->
<g id="edge3" class="edge">
<title>index.js&#45;&gt;../node_modules/yargs/helpers/index.js</title>
<path fill="none" stroke="#757575" d="M42.62,-81.9C54.45,-67.74 76.5,-44.24 101,-32.5 105.93,-30.14 111.08,-28.03 116.35,-26.15"/>
<polygon fill="#757575" stroke="#757575" points="117.55,-29.45 125.97,-23.02 115.38,-22.79 117.55,-29.45"/>
</g>
</g>
</svg>
