<?xml version="1.0" encoding="UTF-8" standalone="no"?>
<!DOCTYPE svg PUBLIC "-//W3C//DTD SVG 1.1//EN"
 "http://www.w3.org/Graphics/SVG/1.1/DTD/svg11.dtd">
<!-- Generated by graphviz version 4.0.0 (20220529.0937)
 -->
<!-- Title: dependency&#45;cruiser output Pages: 1 -->
<svg width="713pt" height="446pt"
 viewBox="0.00 0.00 712.50 446.00" xmlns="http://www.w3.org/2000/svg" xmlns:xlink="http://www.w3.org/1999/xlink">
<g id="graph0" class="graph" transform="scale(1 1) rotate(0) translate(4 442)">
<title>dependency&#45;cruiser output</title>
<polygon fill="white" stroke="transparent" points="-4,4 -4,-442 708.5,-442 708.5,4 -4,4"/>
<g id="clust1" class="cluster">
<title>cluster_hyperspace</title>
<path fill="#ffffff" stroke="black" stroke-width="2" d="M20,-8C20,-8 684.5,-8 684.5,-8 690.5,-8 696.5,-14 696.5,-20 696.5,-20 696.5,-418 696.5,-418 696.5,-424 690.5,-430 684.5,-430 684.5,-430 20,-430 20,-430 14,-430 8,-424 8,-418 8,-418 8,-20 8,-20 8,-14 14,-8 20,-8"/>
<text text-anchor="middle" x="352.25" y="-418.8" font-family="Helvetica,sans-Serif" font-weight="bold" font-size="9.00">hyperspace</text>
</g>
<g id="clust2" class="cluster">
<title>cluster_hyperspace/hyper&#45;app</title>
<path fill="#ffffff" stroke="black" stroke-width="2" d="M101,-16C101,-16 676.5,-16 676.5,-16 682.5,-16 688.5,-22 688.5,-28 688.5,-28 688.5,-392 688.5,-392 688.5,-398 682.5,-404 676.5,-404 676.5,-404 101,-404 101,-404 95,-404 89,-398 89,-392 89,-392 89,-28 89,-28 89,-22 95,-16 101,-16"/>
<text text-anchor="middle" x="388.75" y="-392.8" font-family="Helvetica,sans-Serif" font-weight="bold" font-size="9.00">hyper&#45;app</text>
</g>
<g id="clust3" class="cluster">
<title>cluster_hyperspace/hyper&#45;app/controllers</title>
<path fill="#ffffff" stroke="black" stroke-width="2" d="M193,-24C193,-24 502.5,-24 502.5,-24 508.5,-24 514.5,-30 514.5,-36 514.5,-36 514.5,-118 514.5,-118 514.5,-124 508.5,-130 502.5,-130 502.5,-130 193,-130 193,-130 187,-130 181,-124 181,-118 181,-118 181,-36 181,-36 181,-30 187,-24 193,-24"/>
<text text-anchor="middle" x="347.75" y="-118.8" font-family="Helvetica,sans-Serif" font-weight="bold" font-size="9.00">controllers</text>
</g>
<g id="clust4" class="cluster">
<title>cluster_hyperspace/hyper&#45;app/controllers/app</title>
<path fill="#ffffff" stroke="black" stroke-width="2" d="M201,-47C201,-47 267,-47 267,-47 273,-47 279,-53 279,-59 279,-59 279,-87 279,-87 279,-93 273,-99 267,-99 267,-99 201,-99 201,-99 195,-99 189,-93 189,-87 189,-87 189,-59 189,-59 189,-53 195,-47 201,-47"/>
<text text-anchor="middle" x="234" y="-87.8" font-family="Helvetica,sans-Serif" font-weight="bold" font-size="9.00">app</text>
</g>
<g id="clust5" class="cluster">
<title>cluster_hyperspace/hyper&#45;app/controllers/page</title>
<path fill="#ffffff" stroke="black" stroke-width="2" d="M301.5,-42C301.5,-42 373.5,-42 373.5,-42 379.5,-42 385.5,-48 385.5,-54 385.5,-54 385.5,-82 385.5,-82 385.5,-88 379.5,-94 373.5,-94 373.5,-94 301.5,-94 301.5,-94 295.5,-94 289.5,-88 289.5,-82 289.5,-82 289.5,-54 289.5,-54 289.5,-48 295.5,-42 301.5,-42"/>
<text text-anchor="middle" x="337.5" y="-82.8" font-family="Helvetica,sans-Serif" font-weight="bold" font-size="9.00">page</text>
</g>
<g id="clust6" class="cluster">
<title>cluster_hyperspace/hyper&#45;app/server</title>
<path fill="#ffffff" stroke="black" stroke-width="2" d="M299,-138C299,-138 668.5,-138 668.5,-138 674.5,-138 680.5,-144 680.5,-150 680.5,-150 680.5,-366 680.5,-366 680.5,-372 674.5,-378 668.5,-378 668.5,-378 299,-378 299,-378 293,-378 287,-372 287,-366 287,-366 287,-150 287,-150 287,-144 293,-138 299,-138"/>
<text text-anchor="middle" x="483.75" y="-366.8" font-family="Helvetica,sans-Serif" font-weight="bold" font-size="9.00">server</text>
</g>
<g id="clust7" class="cluster">
<title>cluster_hyperspace/hyper&#45;app/server/socket&#45;server</title>
<path fill="#ffffff" stroke="black" stroke-width="2" d="M405.5,-146C405.5,-146 644,-146 644,-146 650,-146 656,-152 656,-158 656,-158 656,-186 656,-186 656,-192 650,-198 644,-198 644,-198 405.5,-198 405.5,-198 399.5,-198 393.5,-192 393.5,-186 393.5,-186 393.5,-158 393.5,-158 393.5,-152 399.5,-146 405.5,-146"/>
<text text-anchor="middle" x="524.75" y="-186.8" font-family="Helvetica,sans-Serif" font-weight="bold" font-size="9.00">socket&#45;server</text>
</g>
<g id="clust8" class="cluster">
<title>cluster_hyperspace/hyper&#45;app/server/static</title>
<path fill="#ffffff" stroke="black" stroke-width="2" d="M419,-206C419,-206 653,-206 653,-206 659,-206 665,-212 665,-218 665,-218 665,-280 665,-280 665,-286 659,-292 653,-292 653,-292 419,-292 419,-292 413,-292 407,-286 407,-280 407,-280 407,-218 407,-218 407,-212 413,-206 419,-206"/>
<text text-anchor="middle" x="536" y="-280.8" font-family="Helvetica,sans-Serif" font-weight="bold" font-size="9.00">static</text>
</g>
<g id="clust9" class="cluster">
<title>cluster_hyperspace/hyper&#45;app/server/static/file&#45;watcher</title>
<path fill="#ffffff" stroke="black" stroke-width="2" d="M547,-214C547,-214 645,-214 645,-214 651,-214 657,-220 657,-226 657,-226 657,-254 657,-254 657,-260 651,-266 645,-266 645,-266 547,-266 547,-266 541,-266 535,-260 535,-254 535,-254 535,-226 535,-226 535,-220 541,-214 547,-214"/>
<text text-anchor="middle" x="596" y="-254.8" font-family="Helvetica,sans-Serif" font-weight="bold" font-size="9.00">file&#45;watcher</text>
</g>
<g id="clust10" class="cluster">
<title>cluster_hyperspace/hyper&#45;app/server/view&#45;engine</title>
<path fill="#ffffff" stroke="black" stroke-width="2" d="M408.5,-300C408.5,-300 660.5,-300 660.5,-300 666.5,-300 672.5,-306 672.5,-312 672.5,-312 672.5,-340 672.5,-340 672.5,-346 666.5,-352 660.5,-352 660.5,-352 408.5,-352 408.5,-352 402.5,-352 396.5,-346 396.5,-340 396.5,-340 396.5,-312 396.5,-312 396.5,-306 402.5,-300 408.5,-300"/>
<text text-anchor="middle" x="534.5" y="-340.8" font-family="Helvetica,sans-Serif" font-weight="bold" font-size="9.00">view&#45;engine</text>
</g>
<!-- hyperspace/hyper&#45;app/controllers/ControllerBase.mjs -->
<g id="node1" class="node">
<title>hyperspace/hyper&#45;app/controllers/ControllerBase.mjs</title>
<g id="a_node1"><a xlink:href="hyperspace/hyper-app/controllers/ControllerBase.mjs" xlink:title="ControllerBase.mjs">
<path fill="#ffffcc" stroke="black" d="M500.5,-59C500.5,-59 415.5,-59 415.5,-59 412.5,-59 409.5,-56 409.5,-53 409.5,-53 409.5,-47 409.5,-47 409.5,-44 412.5,-41 415.5,-41 415.5,-41 500.5,-41 500.5,-41 503.5,-41 506.5,-44 506.5,-47 506.5,-47 506.5,-53 506.5,-53 506.5,-56 503.5,-59 500.5,-59"/>
<text text-anchor="start" x="417.5" y="-47.8" font-family="Helvetica,sans-Serif" font-size="9.00">ControllerBase.mjs</text>
</a>
</g>
</g>
<!-- hyperspace/hyper&#45;app/controllers/Socket.mjs -->
<g id="node2" class="node">
<title>hyperspace/hyper&#45;app/controllers/Socket.mjs</title>
<g id="a_node2"><a xlink:href="hyperspace/hyper-app/controllers/Socket.mjs" xlink:title="Socket.mjs">
<path fill="#ffffcc" stroke="black" d="M483,-96C483,-96 433,-96 433,-96 430,-96 427,-93 427,-90 427,-90 427,-84 427,-84 427,-81 430,-78 433,-78 433,-78 483,-78 483,-78 486,-78 489,-81 489,-84 489,-84 489,-90 489,-90 489,-93 486,-96 483,-96"/>
<text text-anchor="start" x="435" y="-84.8" font-family="Helvetica,sans-Serif" font-size="9.00">Socket.mjs</text>
</a>
</g>
</g>
<!-- hyperspace/hyper&#45;app/controllers/app/HyperApp.mjs -->
<g id="node3" class="node">
<title>hyperspace/hyper&#45;app/controllers/app/HyperApp.mjs</title>
<g id="a_node3"><a xlink:href="hyperspace/hyper-app/controllers/app/HyperApp.mjs" xlink:title="HyperApp.mjs">
<path fill="#ffffcc" stroke="black" d="M265,-73C265,-73 203,-73 203,-73 200,-73 197,-70 197,-67 197,-67 197,-61 197,-61 197,-58 200,-55 203,-55 203,-55 265,-55 265,-55 268,-55 271,-58 271,-61 271,-61 271,-67 271,-67 271,-70 268,-73 265,-73"/>
<text text-anchor="start" x="205" y="-61.8" font-family="Helvetica,sans-Serif" font-size="9.00">HyperApp.mjs</text>
</a>
</g>
</g>
<!-- hyperspace/hyper&#45;app/controllers/app/HyperApp.mjs&#45;&gt;hyperspace/hyper&#45;app/controllers/ControllerBase.mjs -->
<g id="edge2" class="edge">
<title>hyperspace/hyper&#45;app/controllers/app/HyperApp.mjs&#45;&gt;hyperspace/hyper&#45;app/controllers/ControllerBase.mjs</title>
<path fill="none" stroke="#000000" stroke-width="2" stroke-opacity="0.200000" d="M249.37,-54.92C259.46,-49.1 273.52,-42.07 287,-39 327.99,-29.66 375.88,-34.08 410.36,-39.87"/>
<polygon fill="#000000" fill-opacity="0.200000" stroke="#000000" stroke-width="2" stroke-opacity="0.200000" points="410.37,-42 416.64,-40.96 411.09,-37.86 410.37,-42"/>
</g>
<!-- hyperspace/hyper&#45;app/controllers/app/HyperApp.mjs&#45;&gt;hyperspace/hyper&#45;app/controllers/Socket.mjs -->
<g id="edge4" class="edge">
<title>hyperspace/hyper&#45;app/controllers/app/HyperApp.mjs&#45;&gt;hyperspace/hyper&#45;app/controllers/Socket.mjs</title>
<path fill="none" stroke="#000000" stroke-width="2" stroke-opacity="0.200000" d="M245.27,-73.04C255.18,-81.11 270.98,-92.35 287,-97 331.63,-109.97 385.56,-103.24 420.53,-96.11"/>
<polygon fill="#000000" fill-opacity="0.200000" stroke="#000000" stroke-width="2" stroke-opacity="0.200000" points="421.4,-98.07 426.84,-94.78 420.53,-93.96 421.4,-98.07"/>
</g>
<!-- hyperspace/hyper&#45;app/server/HyperServer.mjs -->
<g id="node4" class="node">
<title>hyperspace/hyper&#45;app/server/HyperServer.mjs</title>
<g id="a_node4"><a xlink:href="hyperspace/hyper-app/server/HyperServer.mjs" xlink:title="HyperServer.mjs">
<path fill="#ffffcc" stroke="black" d="M374,-204C374,-204 301,-204 301,-204 298,-204 295,-201 295,-198 295,-198 295,-192 295,-192 295,-189 298,-186 301,-186 301,-186 374,-186 374,-186 377,-186 380,-189 380,-192 380,-192 380,-198 380,-198 380,-201 377,-204 374,-204"/>
<text text-anchor="start" x="303" y="-192.8" font-family="Helvetica,sans-Serif" font-size="9.00">HyperServer.mjs</text>
</a>
</g>
</g>
<!-- hyperspace/hyper&#45;app/controllers/app/HyperApp.mjs&#45;&gt;hyperspace/hyper&#45;app/server/HyperServer.mjs -->
<g id="edge1" class="edge">
<title>hyperspace/hyper&#45;app/controllers/app/HyperApp.mjs&#45;&gt;hyperspace/hyper&#45;app/server/HyperServer.mjs</title>
<path fill="none" stroke="#000000" stroke-width="2" stroke-opacity="0.200000" d="M241.98,-73.44C251.89,-86.79 270.63,-111.9 287,-133 299.85,-149.57 314.93,-168.36 325.03,-180.87"/>
<polygon fill="#000000" fill-opacity="0.200000" stroke="#000000" stroke-width="2" stroke-opacity="0.200000" points="323.63,-182.48 329.04,-185.82 326.9,-179.83 323.63,-182.48"/>
</g>
<!-- hyperspace/hyper&#45;app/controllers/page/HyperPage.mjs -->
<g id="node5" class="node">
<title>hyperspace/hyper&#45;app/controllers/page/HyperPage.mjs</title>
<g id="a_node5"><a xlink:href="hyperspace/hyper-app/controllers/page/HyperPage.mjs" xlink:title="HyperPage.mjs">
<path fill="#ffffcc" stroke="black" d="M371.5,-68C371.5,-68 303.5,-68 303.5,-68 300.5,-68 297.5,-65 297.5,-62 297.5,-62 297.5,-56 297.5,-56 297.5,-53 300.5,-50 303.5,-50 303.5,-50 371.5,-50 371.5,-50 374.5,-50 377.5,-53 377.5,-56 377.5,-56 377.5,-62 377.5,-62 377.5,-65 374.5,-68 371.5,-68"/>
<text text-anchor="start" x="305.5" y="-56.8" font-family="Helvetica,sans-Serif" font-size="9.00">HyperPage.mjs</text>
</a>
</g>
</g>
<!-- hyperspace/hyper&#45;app/controllers/app/HyperApp.mjs&#45;&gt;hyperspace/hyper&#45;app/controllers/page/HyperPage.mjs -->
<g id="edge3" class="edge">
<title>hyperspace/hyper&#45;app/controllers/app/HyperApp.mjs&#45;&gt;hyperspace/hyper&#45;app/controllers/page/HyperPage.mjs</title>
<path fill="none" stroke="#000000" stroke-width="2" stroke-opacity="0.200000" d="M271.07,-62.22C277.61,-61.9 284.51,-61.56 291.28,-61.23"/>
<polygon fill="#000000" fill-opacity="0.200000" stroke="#000000" stroke-width="2" stroke-opacity="0.200000" points="291.56,-63.32 297.45,-60.92 291.35,-59.12 291.56,-63.32"/>
</g>
<!-- hyperspace/hyper&#45;app/server/socket&#45;server/HyperSocketServer.mjs -->
<g id="node7" class="node">
<title>hyperspace/hyper&#45;app/server/socket&#45;server/HyperSocketServer.mjs</title>
<g id="a_node7"><a xlink:href="hyperspace/hyper-app/server/socket-server/HyperSocketServer.mjs" xlink:title="HyperSocketServer.mjs">
<path fill="#ffffcc" stroke="black" d="M508.5,-172C508.5,-172 407.5,-172 407.5,-172 404.5,-172 401.5,-169 401.5,-166 401.5,-166 401.5,-160 401.5,-160 401.5,-157 404.5,-154 407.5,-154 407.5,-154 508.5,-154 508.5,-154 511.5,-154 514.5,-157 514.5,-160 514.5,-160 514.5,-166 514.5,-166 514.5,-169 511.5,-172 508.5,-172"/>
<text text-anchor="start" x="409.5" y="-160.8" font-family="Helvetica,sans-Serif" font-size="9.00">HyperSocketServer.mjs</text>
</a>
</g>
</g>
<!-- hyperspace/hyper&#45;app/server/HyperServer.mjs&#45;&gt;hyperspace/hyper&#45;app/server/socket&#45;server/HyperSocketServer.mjs -->
<g id="edge8" class="edge">
<title>hyperspace/hyper&#45;app/server/HyperServer.mjs&#45;&gt;hyperspace/hyper&#45;app/server/socket&#45;server/HyperSocketServer.mjs</title>
<path fill="none" stroke="#000000" stroke-width="2" stroke-opacity="0.200000" d="M372.14,-185.92C386.15,-182.13 402.53,-177.71 417.13,-173.77"/>
<polygon fill="#000000" fill-opacity="0.200000" stroke="#000000" stroke-width="2" stroke-opacity="0.200000" points="418.03,-175.7 423.28,-172.11 416.94,-171.64 418.03,-175.7"/>
</g>
<!-- hyperspace/hyper&#45;app/server/static/StaticLoader.mjs -->
<g id="node8" class="node">
<title>hyperspace/hyper&#45;app/server/static/StaticLoader.mjs</title>
<g id="a_node8"><a xlink:href="hyperspace/hyper-app/server/static/StaticLoader.mjs" xlink:title="StaticLoader.mjs">
<path fill="#ffffcc" stroke="black" d="M495,-236C495,-236 421,-236 421,-236 418,-236 415,-233 415,-230 415,-230 415,-224 415,-224 415,-221 418,-218 421,-218 421,-218 495,-218 495,-218 498,-218 501,-221 501,-224 501,-224 501,-230 501,-230 501,-233 498,-236 495,-236"/>
<text text-anchor="start" x="423" y="-224.8" font-family="Helvetica,sans-Serif" font-size="9.00">StaticLoader.mjs</text>
</a>
</g>
</g>
<!-- hyperspace/hyper&#45;app/server/HyperServer.mjs&#45;&gt;hyperspace/hyper&#45;app/server/static/StaticLoader.mjs -->
<g id="edge9" class="edge">
<title>hyperspace/hyper&#45;app/server/HyperServer.mjs&#45;&gt;hyperspace/hyper&#45;app/server/static/StaticLoader.mjs</title>
<path fill="none" stroke="#000000" stroke-width="2" stroke-opacity="0.200000" d="M372.14,-204.08C386.15,-207.87 402.53,-212.29 417.13,-216.23"/>
<polygon fill="#000000" fill-opacity="0.200000" stroke="#000000" stroke-width="2" stroke-opacity="0.200000" points="416.94,-218.36 423.28,-217.89 418.03,-214.3 416.94,-218.36"/>
</g>
<!-- hyperspace/hyper&#45;app/server/view&#45;engine/HyperViewEngine.mjs -->
<g id="node9" class="node">
<title>hyperspace/hyper&#45;app/server/view&#45;engine/HyperViewEngine.mjs</title>
<g id="a_node9"><a xlink:href="hyperspace/hyper-app/server/view-engine/HyperViewEngine.mjs" xlink:title="HyperViewEngine.mjs">
<path fill="#ffffcc" stroke="black" d="M505.5,-326C505.5,-326 410.5,-326 410.5,-326 407.5,-326 404.5,-323 404.5,-320 404.5,-320 404.5,-314 404.5,-314 404.5,-311 407.5,-308 410.5,-308 410.5,-308 505.5,-308 505.5,-308 508.5,-308 511.5,-311 511.5,-314 511.5,-314 511.5,-320 511.5,-320 511.5,-323 508.5,-326 505.5,-326"/>
<text text-anchor="start" x="412.5" y="-314.8" font-family="Helvetica,sans-Serif" font-size="9.00">HyperViewEngine.mjs</text>
</a>
</g>
</g>
<!-- hyperspace/hyper&#45;app/server/HyperServer.mjs&#45;&gt;hyperspace/hyper&#45;app/server/view&#45;engine/HyperViewEngine.mjs -->
<g id="edge10" class="edge">
<title>hyperspace/hyper&#45;app/server/HyperServer.mjs&#45;&gt;hyperspace/hyper&#45;app/server/view&#45;engine/HyperViewEngine.mjs</title>
<path fill="none" stroke="#000000" stroke-width="2" stroke-opacity="0.200000" d="M341.07,-204.18C347.01,-223.72 363.51,-269.7 393.5,-295 398.55,-299.26 404.48,-302.72 410.64,-305.51"/>
<polygon fill="#000000" fill-opacity="0.200000" stroke="#000000" stroke-width="2" stroke-opacity="0.200000" points="410.01,-307.52 416.36,-307.89 411.63,-303.64 410.01,-307.52"/>
</g>
<!-- hyperspace/hyper&#45;app/controllers/page/HyperPage.mjs&#45;&gt;hyperspace/hyper&#45;app/controllers/ControllerBase.mjs -->
<g id="edge5" class="edge">
<title>hyperspace/hyper&#45;app/controllers/page/HyperPage.mjs&#45;&gt;hyperspace/hyper&#45;app/controllers/ControllerBase.mjs</title>
<path fill="none" stroke="#000000" stroke-width="2" stroke-opacity="0.200000" d="M377.63,-56.03C385.69,-55.42 394.31,-54.76 402.79,-54.12"/>
<polygon fill="#000000" fill-opacity="0.200000" stroke="#000000" stroke-width="2" stroke-opacity="0.200000" points="403.42,-56.18 409.24,-53.63 403.1,-51.99 403.42,-56.18"/>
</g>
<!-- hyperspace/hyper&#45;app/controllers/page/HyperPage.mjs&#45;&gt;hyperspace/hyper&#45;app/controllers/Socket.mjs -->
<g id="edge6" class="edge">
<title>hyperspace/hyper&#45;app/controllers/page/HyperPage.mjs&#45;&gt;hyperspace/hyper&#45;app/controllers/Socket.mjs</title>
<path fill="none" stroke="#000000" stroke-width="2" stroke-opacity="0.200000" d="M376.65,-68.01C390.85,-71.37 406.93,-75.17 420.94,-78.48"/>
<polygon fill="#000000" fill-opacity="0.200000" stroke="#000000" stroke-width="2" stroke-opacity="0.200000" points="420.49,-80.53 426.81,-79.87 421.45,-76.44 420.49,-80.53"/>
</g>
<!-- hyperspace/hyper&#45;app/createApp.mjs -->
<g id="node6" class="node">
<title>hyperspace/hyper&#45;app/createApp.mjs</title>
<g id="a_node6"><a xlink:href="hyperspace/hyper-app/createApp.mjs" xlink:title="createApp.mjs">
<path fill="#ffffcc" stroke="black" d="M167,-73C167,-73 103,-73 103,-73 100,-73 97,-70 97,-67 97,-67 97,-61 97,-61 97,-58 100,-55 103,-55 103,-55 167,-55 167,-55 170,-55 173,-58 173,-61 173,-61 173,-67 173,-67 173,-70 170,-73 167,-73"/>
<text text-anchor="start" x="105" y="-61.8" font-family="Helvetica,sans-Serif" font-size="9.00">createApp.mjs</text>
</a>
</g>
</g>
<!-- hyperspace/hyper&#45;app/createApp.mjs&#45;&gt;hyperspace/hyper&#45;app/controllers/app/HyperApp.mjs -->
<g id="edge7" class="edge">
<title>hyperspace/hyper&#45;app/createApp.mjs&#45;&gt;hyperspace/hyper&#45;app/controllers/app/HyperApp.mjs</title>
<path fill="none" stroke="#000000" stroke-width="2" stroke-opacity="0.200000" d="M173.23,-64C178.95,-64 184.9,-64 190.73,-64"/>
<polygon fill="#000000" fill-opacity="0.200000" stroke="#000000" stroke-width="2" stroke-opacity="0.200000" points="190.99,-66.1 196.99,-64 190.99,-61.9 190.99,-66.1"/>
</g>
<!-- hyperspace/hyper&#45;app/server/socket&#45;server/parseUrlParams.mjs -->
<g id="node10" class="node">
<title>hyperspace/hyper&#45;app/server/socket&#45;server/parseUrlParams.mjs</title>
<g id="a_node10"><a xlink:href="hyperspace/hyper-app/server/socket-server/parseUrlParams.mjs" xlink:title="parseUrlParams.mjs">
<path fill="#ffffcc" stroke="black" d="M642,-172C642,-172 550,-172 550,-172 547,-172 544,-169 544,-166 544,-166 544,-160 544,-160 544,-157 547,-154 550,-154 550,-154 642,-154 642,-154 645,-154 648,-157 648,-160 648,-160 648,-166 648,-166 648,-169 645,-172 642,-172"/>
<text text-anchor="start" x="552" y="-160.8" font-family="Helvetica,sans-Serif" font-size="9.00">parseUrlParams.mjs</text>
</a>
</g>
</g>
<!-- hyperspace/hyper&#45;app/server/socket&#45;server/HyperSocketServer.mjs&#45;&gt;hyperspace/hyper&#45;app/server/socket&#45;server/parseUrlParams.mjs -->
<g id="edge11" class="edge">
<title>hyperspace/hyper&#45;app/server/socket&#45;server/HyperSocketServer.mjs&#45;&gt;hyperspace/hyper&#45;app/server/socket&#45;server/parseUrlParams.mjs</title>
<path fill="none" stroke="#000000" stroke-width="2" stroke-opacity="0.200000" d="M514.71,-163C522.27,-163 530.05,-163 537.64,-163"/>
<polygon fill="#000000" fill-opacity="0.200000" stroke="#000000" stroke-width="2" stroke-opacity="0.200000" points="537.97,-165.1 543.97,-163 537.97,-160.9 537.97,-165.1"/>
</g>
<!-- hyperspace/hyper&#45;app/server/static/file&#45;watcher/StaticFileWatcher.mjs -->
<g id="node11" class="node">
<title>hyperspace/hyper&#45;app/server/static/file&#45;watcher/StaticFileWatcher.mjs</title>
<g id="a_node11"><a xlink:href="hyperspace/hyper-app/server/static/file-watcher/StaticFileWatcher.mjs" xlink:title="StaticFileWatcher.mjs">
<path fill="#ffffcc" stroke="black" d="M643,-240C643,-240 549,-240 549,-240 546,-240 543,-237 543,-234 543,-234 543,-228 543,-228 543,-225 546,-222 549,-222 549,-222 643,-222 643,-222 646,-222 649,-225 649,-228 649,-228 649,-234 649,-234 649,-237 646,-240 643,-240"/>
<text text-anchor="start" x="551" y="-228.8" font-family="Helvetica,sans-Serif" font-size="9.00">StaticFileWatcher.mjs</text>
</a>
</g>
</g>
<!-- hyperspace/hyper&#45;app/server/static/StaticLoader.mjs&#45;&gt;hyperspace/hyper&#45;app/server/static/file&#45;watcher/StaticFileWatcher.mjs -->
<g id="edge12" class="edge">
<title>hyperspace/hyper&#45;app/server/static/StaticLoader.mjs&#45;&gt;hyperspace/hyper&#45;app/server/static/file&#45;watcher/StaticFileWatcher.mjs</title>
<path fill="none" stroke="#000000" stroke-width="2" stroke-opacity="0.200000" d="M501.29,-228.24C512.44,-228.57 524.68,-228.93 536.52,-229.28"/>
<polygon fill="#000000" fill-opacity="0.200000" stroke="#000000" stroke-width="2" stroke-opacity="0.200000" points="536.61,-231.38 542.67,-229.46 536.74,-227.19 536.61,-231.38"/>
</g>
<!-- hyperspace/hyper&#45;app/server/view&#45;engine/mergeTemplateAndState.mjs -->
<g id="node12" class="node">
<title>hyperspace/hyper&#45;app/server/view&#45;engine/mergeTemplateAndState.mjs</title>
<g id="a_node12"><a xlink:href="hyperspace/hyper-app/server/view-engine/mergeTemplateAndState.mjs" xlink:title="mergeTemplateAndState.mjs">
<path fill="#ffffcc" stroke="black" d="M658.5,-326C658.5,-326 533.5,-326 533.5,-326 530.5,-326 527.5,-323 527.5,-320 527.5,-320 527.5,-314 527.5,-314 527.5,-311 530.5,-308 533.5,-308 533.5,-308 658.5,-308 658.5,-308 661.5,-308 664.5,-311 664.5,-314 664.5,-314 664.5,-320 664.5,-320 664.5,-323 661.5,-326 658.5,-326"/>
<text text-anchor="start" x="535.5" y="-314.8" font-family="Helvetica,sans-Serif" font-size="9.00">mergeTemplateAndState.mjs</text>
</a>
</g>
</g>
<!-- hyperspace/hyper&#45;app/server/view&#45;engine/HyperViewEngine.mjs&#45;&gt;hyperspace/hyper&#45;app/server/view&#45;engine/mergeTemplateAndState.mjs -->
<g id="edge13" class="edge">
<title>hyperspace/hyper&#45;app/server/view&#45;engine/HyperViewEngine.mjs&#45;&gt;hyperspace/hyper&#45;app/server/view&#45;engine/mergeTemplateAndState.mjs</title>
<path fill="none" stroke="#000000" stroke-width="2" stroke-opacity="0.200000" d="M511.58,-317C514.6,-317 517.66,-317 520.74,-317"/>
<polygon fill="#000000" fill-opacity="0.200000" stroke="#000000" stroke-width="2" stroke-opacity="0.200000" points="521.07,-319.1 527.07,-317 521.07,-314.9 521.07,-319.1"/>
</g>
<!-- hyperspace/webbify.mjs -->
<g id="node13" class="node">
<title>hyperspace/webbify.mjs</title>
<g id="a_node13"><a xlink:href="hyperspace/webbify.mjs" xlink:title="webbify.mjs">
<path fill="#ffffcc" stroke="black" d="M75,-73C75,-73 22,-73 22,-73 19,-73 16,-70 16,-67 16,-67 16,-61 16,-61 16,-58 19,-55 22,-55 22,-55 75,-55 75,-55 78,-55 81,-58 81,-61 81,-61 81,-67 81,-67 81,-70 78,-73 75,-73"/>
<text text-anchor="start" x="24" y="-61.8" font-family="Helvetica,sans-Serif" font-size="9.00">webbify.mjs</text>
</a>
</g>
</g>
<!-- hyperspace/webbify.mjs&#45;&gt;hyperspace/hyper&#45;app/createApp.mjs -->
<g id="edge14" class="edge">
<title>hyperspace/webbify.mjs&#45;&gt;hyperspace/hyper&#45;app/createApp.mjs</title>
<path fill="none" stroke="#000000" stroke-width="2" stroke-opacity="0.200000" d="M81.45,-64C84.44,-64 87.51,-64 90.59,-64"/>
<polygon fill="#000000" fill-opacity="0.200000" stroke="#000000" stroke-width="2" stroke-opacity="0.200000" points="90.9,-66.1 96.9,-64 90.9,-61.9 90.9,-66.1"/>
</g>
</g>
</svg>
