<?xml version="1.0" encoding="UTF-8" standalone="no"?>
<!DOCTYPE svg PUBLIC "-//W3C//DTD SVG 1.1//EN"
 "http://www.w3.org/Graphics/SVG/1.1/DTD/svg11.dtd">
<!-- Generated by graphviz version 4.0.0 (20220529.0937)
 -->
<!-- Title: dependency&#45;cruiser output Pages: 1 -->
<svg width="745pt" height="462pt"
 viewBox="0.00 0.00 744.50 462.00" xmlns="http://www.w3.org/2000/svg" xmlns:xlink="http://www.w3.org/1999/xlink">
<g id="graph0" class="graph" transform="scale(1 1) rotate(0) translate(4 458)">
<title>dependency&#45;cruiser output</title>
<polygon fill="white" stroke="transparent" points="-4,4 -4,-458 740.5,-458 740.5,4 -4,4"/>
<g id="clust1" class="cluster">
<title>cluster_hyperspace</title>
<path fill="#ffffff" stroke="black" stroke-width="2" d="M20,-8C20,-8 716.5,-8 716.5,-8 722.5,-8 728.5,-14 728.5,-20 728.5,-20 728.5,-434 728.5,-434 728.5,-440 722.5,-446 716.5,-446 716.5,-446 20,-446 20,-446 14,-446 8,-440 8,-434 8,-434 8,-20 8,-20 8,-14 14,-8 20,-8"/>
<text text-anchor="middle" x="368.25" y="-434.8" font-family="Helvetica,sans-Serif" font-weight="bold" font-size="9.00">hyperspace</text>
</g>
<g id="clust2" class="cluster">
<title>cluster_hyperspace/hyper&#45;app</title>
<path fill="#ffffff" stroke="black" stroke-width="2" d="M217,-32C217,-32 708.5,-32 708.5,-32 714.5,-32 720.5,-38 720.5,-44 720.5,-44 720.5,-408 720.5,-408 720.5,-414 714.5,-420 708.5,-420 708.5,-420 217,-420 217,-420 211,-420 205,-414 205,-408 205,-408 205,-44 205,-44 205,-38 211,-32 217,-32"/>
<text text-anchor="middle" x="462.75" y="-408.8" font-family="Helvetica,sans-Serif" font-weight="bold" font-size="9.00">hyper&#45;app</text>
</g>
<g id="clust6" class="cluster">
<title>cluster_hyperspace/hyper&#45;app/server</title>
<path fill="#ffffff" stroke="black" stroke-width="2" d="M331,-154C331,-154 700.5,-154 700.5,-154 706.5,-154 712.5,-160 712.5,-166 712.5,-166 712.5,-382 712.5,-382 712.5,-388 706.5,-394 700.5,-394 700.5,-394 331,-394 331,-394 325,-394 319,-388 319,-382 319,-382 319,-166 319,-166 319,-160 325,-154 331,-154"/>
<text text-anchor="middle" x="515.75" y="-382.8" font-family="Helvetica,sans-Serif" font-weight="bold" font-size="9.00">server</text>
</g>
<g id="clust8" class="cluster">
<title>cluster_hyperspace/hyper&#45;app/server/static</title>
<path fill="#ffffff" stroke="black" stroke-width="2" d="M451,-222C451,-222 685,-222 685,-222 691,-222 697,-228 697,-234 697,-234 697,-296 697,-296 697,-302 691,-308 685,-308 685,-308 451,-308 451,-308 445,-308 439,-302 439,-296 439,-296 439,-234 439,-234 439,-228 445,-222 451,-222"/>
<text text-anchor="middle" x="568" y="-296.8" font-family="Helvetica,sans-Serif" font-weight="bold" font-size="9.00">static</text>
</g>
<g id="clust9" class="cluster">
<title>cluster_hyperspace/hyper&#45;app/server/static/file&#45;watcher</title>
<path fill="#ffffff" stroke="black" stroke-width="2" d="M579,-230C579,-230 677,-230 677,-230 683,-230 689,-236 689,-242 689,-242 689,-270 689,-270 689,-276 683,-282 677,-282 677,-282 579,-282 579,-282 573,-282 567,-276 567,-270 567,-270 567,-242 567,-242 567,-236 573,-230 579,-230"/>
<text text-anchor="middle" x="628" y="-270.8" font-family="Helvetica,sans-Serif" font-weight="bold" font-size="9.00">file&#45;watcher</text>
</g>
<g id="clust10" class="cluster">
<title>cluster_hyperspace/hyper&#45;app/server/view&#45;engine</title>
<path fill="#ffffff" stroke="black" stroke-width="2" d="M440.5,-316C440.5,-316 692.5,-316 692.5,-316 698.5,-316 704.5,-322 704.5,-328 704.5,-328 704.5,-356 704.5,-356 704.5,-362 698.5,-368 692.5,-368 692.5,-368 440.5,-368 440.5,-368 434.5,-368 428.5,-362 428.5,-356 428.5,-356 428.5,-328 428.5,-328 428.5,-322 434.5,-316 440.5,-316"/>
<text text-anchor="middle" x="566.5" y="-356.8" font-family="Helvetica,sans-Serif" font-weight="bold" font-size="9.00">view&#45;engine</text>
</g>
<g id="clust7" class="cluster">
<title>cluster_hyperspace/hyper&#45;app/server/socket&#45;server</title>
<path fill="#ffffff" stroke="black" stroke-width="2" d="M437.5,-162C437.5,-162 676,-162 676,-162 682,-162 688,-168 688,-174 688,-174 688,-202 688,-202 688,-208 682,-214 676,-214 676,-214 437.5,-214 437.5,-214 431.5,-214 425.5,-208 425.5,-202 425.5,-202 425.5,-174 425.5,-174 425.5,-168 431.5,-162 437.5,-162"/>
<text text-anchor="middle" x="556.75" y="-202.8" font-family="Helvetica,sans-Serif" font-weight="bold" font-size="9.00">socket&#45;server</text>
</g>
<g id="clust3" class="cluster">
<title>cluster_hyperspace/hyper&#45;app/controllers</title>
<path fill="#ffffff" stroke="black" stroke-width="2" d="M225,-40C225,-40 534.5,-40 534.5,-40 540.5,-40 546.5,-46 546.5,-52 546.5,-52 546.5,-134 546.5,-134 546.5,-140 540.5,-146 534.5,-146 534.5,-146 225,-146 225,-146 219,-146 213,-140 213,-134 213,-134 213,-52 213,-52 213,-46 219,-40 225,-40"/>
<text text-anchor="middle" x="379.75" y="-134.8" font-family="Helvetica,sans-Serif" font-weight="bold" font-size="9.00">controllers</text>
</g>
<g id="clust5" class="cluster">
<title>cluster_hyperspace/hyper&#45;app/controllers/page</title>
<path fill="#ffffff" stroke="black" stroke-width="2" d="M333.5,-58C333.5,-58 405.5,-58 405.5,-58 411.5,-58 417.5,-64 417.5,-70 417.5,-70 417.5,-98 417.5,-98 417.5,-104 411.5,-110 405.5,-110 405.5,-110 333.5,-110 333.5,-110 327.5,-110 321.5,-104 321.5,-98 321.5,-98 321.5,-70 321.5,-70 321.5,-64 327.5,-58 333.5,-58"/>
<text text-anchor="middle" x="369.5" y="-98.8" font-family="Helvetica,sans-Serif" font-weight="bold" font-size="9.00">page</text>
</g>
<g id="clust4" class="cluster">
<title>cluster_hyperspace/hyper&#45;app/controllers/app</title>
<path fill="#ffffff" stroke="black" stroke-width="2" d="M233,-57C233,-57 299,-57 299,-57 305,-57 311,-63 311,-69 311,-69 311,-97 311,-97 311,-103 305,-109 299,-109 299,-109 233,-109 233,-109 227,-109 221,-103 221,-97 221,-97 221,-69 221,-69 221,-63 227,-57 233,-57"/>
<text text-anchor="middle" x="266" y="-97.8" font-family="Helvetica,sans-Serif" font-weight="bold" font-size="9.00">app</text>
</g>
<!-- hyperspace/createApp.mjs -->
<g id="node1" class="node">
<title>hyperspace/createApp.mjs</title>
<g id="a_node1"><a xlink:href="hyperspace/createApp.mjs" xlink:title="createApp.mjs">
<path fill="#ffffcc" stroke="black" d="M191,-82C191,-82 127,-82 127,-82 124,-82 121,-79 121,-76 121,-76 121,-70 121,-70 121,-67 124,-64 127,-64 127,-64 191,-64 191,-64 194,-64 197,-67 197,-70 197,-70 197,-76 197,-76 197,-79 194,-82 191,-82"/>
<text text-anchor="start" x="129" y="-70.8" font-family="Helvetica,sans-Serif" font-size="9.00">createApp.mjs</text>
</a>
</g>
</g>
<!-- hyperspace/hyper&#45;app/controllers/app/HyperApp.mjs -->
<g id="node2" class="node">
<title>hyperspace/hyper&#45;app/controllers/app/HyperApp.mjs</title>
<g id="a_node2"><a xlink:href="hyperspace/hyper-app/controllers/app/HyperApp.mjs" xlink:title="HyperApp.mjs">
<path fill="#ffffcc" stroke="black" d="M297,-83C297,-83 235,-83 235,-83 232,-83 229,-80 229,-77 229,-77 229,-71 229,-71 229,-68 232,-65 235,-65 235,-65 297,-65 297,-65 300,-65 303,-68 303,-71 303,-71 303,-77 303,-77 303,-80 300,-83 297,-83"/>
<text text-anchor="start" x="237" y="-71.8" font-family="Helvetica,sans-Serif" font-size="9.00">HyperApp.mjs</text>
</a>
</g>
</g>
<!-- hyperspace/createApp.mjs&#45;&gt;hyperspace/hyper&#45;app/controllers/app/HyperApp.mjs -->
<g id="edge1" class="edge">
<title>hyperspace/createApp.mjs&#45;&gt;hyperspace/hyper&#45;app/controllers/app/HyperApp.mjs</title>
<path fill="none" stroke="#000000" stroke-width="2" stroke-opacity="0.200000" d="M197.02,-73.35C205.21,-73.43 213.94,-73.51 222.33,-73.59"/>
<polygon fill="#000000" fill-opacity="0.200000" stroke="#000000" stroke-width="2" stroke-opacity="0.200000" points="222.65,-75.7 228.67,-73.65 222.69,-71.5 222.65,-75.7"/>
</g>
<!-- hyperspace/hyper&#45;app/controllers/ControllerBase.mjs -->
<g id="node3" class="node">
<title>hyperspace/hyper&#45;app/controllers/ControllerBase.mjs</title>
<g id="a_node3"><a xlink:href="hyperspace/hyper-app/controllers/ControllerBase.mjs" xlink:title="ControllerBase.mjs">
<path fill="#ffffcc" stroke="black" d="M532.5,-66C532.5,-66 447.5,-66 447.5,-66 444.5,-66 441.5,-63 441.5,-60 441.5,-60 441.5,-54 441.5,-54 441.5,-51 444.5,-48 447.5,-48 447.5,-48 532.5,-48 532.5,-48 535.5,-48 538.5,-51 538.5,-54 538.5,-54 538.5,-60 538.5,-60 538.5,-63 535.5,-66 532.5,-66"/>
<text text-anchor="start" x="449.5" y="-54.8" font-family="Helvetica,sans-Serif" font-size="9.00">ControllerBase.mjs</text>
</a>
</g>
</g>
<!-- hyperspace/hyper&#45;app/controllers/app/HyperApp.mjs&#45;&gt;hyperspace/hyper&#45;app/controllers/ControllerBase.mjs -->
<g id="edge3" class="edge">
<title>hyperspace/hyper&#45;app/controllers/app/HyperApp.mjs&#45;&gt;hyperspace/hyper&#45;app/controllers/ControllerBase.mjs</title>
<path fill="none" stroke="#000000" stroke-width="2" stroke-opacity="0.200000" d="M286.8,-64.91C296.32,-61.03 308.02,-56.94 319,-55 357.44,-48.2 401.54,-48.96 435.19,-51.28"/>
<polygon fill="#000000" fill-opacity="0.200000" stroke="#000000" stroke-width="2" stroke-opacity="0.200000" points="435.21,-53.39 441.35,-51.73 435.52,-49.2 435.21,-53.39"/>
</g>
<!-- hyperspace/hyper&#45;app/controllers/Socket.mjs -->
<g id="node4" class="node">
<title>hyperspace/hyper&#45;app/controllers/Socket.mjs</title>
<g id="a_node4"><a xlink:href="hyperspace/hyper-app/controllers/Socket.mjs" xlink:title="Socket.mjs">
<path fill="#ffffcc" stroke="black" d="M515,-96C515,-96 465,-96 465,-96 462,-96 459,-93 459,-90 459,-90 459,-84 459,-84 459,-81 462,-78 465,-78 465,-78 515,-78 515,-78 518,-78 521,-81 521,-84 521,-84 521,-90 521,-90 521,-93 518,-96 515,-96"/>
<text text-anchor="start" x="467" y="-84.8" font-family="Helvetica,sans-Serif" font-size="9.00">Socket.mjs</text>
</a>
</g>
</g>
<!-- hyperspace/hyper&#45;app/controllers/app/HyperApp.mjs&#45;&gt;hyperspace/hyper&#45;app/controllers/Socket.mjs -->
<g id="edge5" class="edge">
<title>hyperspace/hyper&#45;app/controllers/app/HyperApp.mjs&#45;&gt;hyperspace/hyper&#45;app/controllers/Socket.mjs</title>
<path fill="none" stroke="#000000" stroke-width="2" stroke-opacity="0.200000" d="M275.52,-83.22C285.04,-92.79 301.44,-107.15 319,-113 360.53,-126.84 374.39,-120.6 417.5,-113 433.55,-110.17 450.74,-104.03 464.24,-98.43"/>
<polygon fill="#000000" fill-opacity="0.200000" stroke="#000000" stroke-width="2" stroke-opacity="0.200000" points="465.08,-100.35 469.78,-96.07 463.44,-96.48 465.08,-100.35"/>
</g>
<!-- hyperspace/hyper&#45;app/server/HyperServer.mjs -->
<g id="node5" class="node">
<title>hyperspace/hyper&#45;app/server/HyperServer.mjs</title>
<g id="a_node5"><a xlink:href="hyperspace/hyper-app/server/HyperServer.mjs" xlink:title="HyperServer.mjs">
<path fill="#ffffcc" stroke="black" d="M406,-188C406,-188 333,-188 333,-188 330,-188 327,-185 327,-182 327,-182 327,-176 327,-176 327,-173 330,-170 333,-170 333,-170 406,-170 406,-170 409,-170 412,-173 412,-176 412,-176 412,-182 412,-182 412,-185 409,-188 406,-188"/>
<text text-anchor="start" x="335" y="-176.8" font-family="Helvetica,sans-Serif" font-size="9.00">HyperServer.mjs</text>
</a>
</g>
</g>
<!-- hyperspace/hyper&#45;app/controllers/app/HyperApp.mjs&#45;&gt;hyperspace/hyper&#45;app/server/HyperServer.mjs -->
<g id="edge2" class="edge">
<title>hyperspace/hyper&#45;app/controllers/app/HyperApp.mjs&#45;&gt;hyperspace/hyper&#45;app/server/HyperServer.mjs</title>
<path fill="none" stroke="#000000" stroke-width="2" stroke-opacity="0.200000" d="M271.72,-83.23C279.81,-98.37 297.53,-128.81 319,-149 326.26,-155.82 335.31,-161.86 343.69,-166.7"/>
<polygon fill="#000000" fill-opacity="0.200000" stroke="#000000" stroke-width="2" stroke-opacity="0.200000" points="343.09,-168.77 349.35,-169.85 345.13,-165.1 343.09,-168.77"/>
</g>
<!-- hyperspace/hyper&#45;app/controllers/page/HyperPage.mjs -->
<g id="node6" class="node">
<title>hyperspace/hyper&#45;app/controllers/page/HyperPage.mjs</title>
<g id="a_node6"><a xlink:href="hyperspace/hyper-app/controllers/page/HyperPage.mjs" xlink:title="HyperPage.mjs">
<path fill="#ffffcc" stroke="black" d="M403.5,-84C403.5,-84 335.5,-84 335.5,-84 332.5,-84 329.5,-81 329.5,-78 329.5,-78 329.5,-72 329.5,-72 329.5,-69 332.5,-66 335.5,-66 335.5,-66 403.5,-66 403.5,-66 406.5,-66 409.5,-69 409.5,-72 409.5,-72 409.5,-78 409.5,-78 409.5,-81 406.5,-84 403.5,-84"/>
<text text-anchor="start" x="337.5" y="-72.8" font-family="Helvetica,sans-Serif" font-size="9.00">HyperPage.mjs</text>
</a>
</g>
</g>
<!-- hyperspace/hyper&#45;app/controllers/app/HyperApp.mjs&#45;&gt;hyperspace/hyper&#45;app/controllers/page/HyperPage.mjs -->
<g id="edge4" class="edge">
<title>hyperspace/hyper&#45;app/controllers/app/HyperApp.mjs&#45;&gt;hyperspace/hyper&#45;app/controllers/page/HyperPage.mjs</title>
<path fill="none" stroke="#000000" stroke-width="2" stroke-opacity="0.200000" d="M303.07,-74.36C309.61,-74.42 316.51,-74.49 323.28,-74.55"/>
<polygon fill="#000000" fill-opacity="0.200000" stroke="#000000" stroke-width="2" stroke-opacity="0.200000" points="323.43,-76.66 329.45,-74.62 323.47,-72.46 323.43,-76.66"/>
</g>
<!-- hyperspace/hyper&#45;app/server/socket&#45;server/HyperSocketServer.mjs -->
<g id="node7" class="node">
<title>hyperspace/hyper&#45;app/server/socket&#45;server/HyperSocketServer.mjs</title>
<g id="a_node7"><a xlink:href="hyperspace/hyper-app/server/socket-server/HyperSocketServer.mjs" xlink:title="HyperSocketServer.mjs">
<path fill="#ffffcc" stroke="black" d="M540.5,-188C540.5,-188 439.5,-188 439.5,-188 436.5,-188 433.5,-185 433.5,-182 433.5,-182 433.5,-176 433.5,-176 433.5,-173 436.5,-170 439.5,-170 439.5,-170 540.5,-170 540.5,-170 543.5,-170 546.5,-173 546.5,-176 546.5,-176 546.5,-182 546.5,-182 546.5,-185 543.5,-188 540.5,-188"/>
<text text-anchor="start" x="441.5" y="-176.8" font-family="Helvetica,sans-Serif" font-size="9.00">HyperSocketServer.mjs</text>
</a>
</g>
</g>
<!-- hyperspace/hyper&#45;app/server/HyperServer.mjs&#45;&gt;hyperspace/hyper&#45;app/server/socket&#45;server/HyperSocketServer.mjs -->
<g id="edge8" class="edge">
<title>hyperspace/hyper&#45;app/server/HyperServer.mjs&#45;&gt;hyperspace/hyper&#45;app/server/socket&#45;server/HyperSocketServer.mjs</title>
<path fill="none" stroke="#000000" stroke-width="2" stroke-opacity="0.200000" d="M412.28,-179C417.06,-179 422,-179 426.97,-179"/>
<polygon fill="#000000" fill-opacity="0.200000" stroke="#000000" stroke-width="2" stroke-opacity="0.200000" points="427.28,-181.1 433.28,-179 427.28,-176.9 427.28,-181.1"/>
</g>
<!-- hyperspace/hyper&#45;app/server/static/StaticLoader.mjs -->
<g id="node8" class="node">
<title>hyperspace/hyper&#45;app/server/static/StaticLoader.mjs</title>
<g id="a_node8"><a xlink:href="hyperspace/hyper-app/server/static/StaticLoader.mjs" xlink:title="StaticLoader.mjs">
<path fill="#ffffcc" stroke="black" d="M527,-252C527,-252 453,-252 453,-252 450,-252 447,-249 447,-246 447,-246 447,-240 447,-240 447,-237 450,-234 453,-234 453,-234 527,-234 527,-234 530,-234 533,-237 533,-240 533,-240 533,-246 533,-246 533,-249 530,-252 527,-252"/>
<text text-anchor="start" x="455" y="-240.8" font-family="Helvetica,sans-Serif" font-size="9.00">StaticLoader.mjs</text>
</a>
</g>
</g>
<!-- hyperspace/hyper&#45;app/server/HyperServer.mjs&#45;&gt;hyperspace/hyper&#45;app/server/static/StaticLoader.mjs -->
<g id="edge9" class="edge">
<title>hyperspace/hyper&#45;app/server/HyperServer.mjs&#45;&gt;hyperspace/hyper&#45;app/server/static/StaticLoader.mjs</title>
<path fill="none" stroke="#000000" stroke-width="2" stroke-opacity="0.200000" d="M382.25,-188.23C393.07,-196.46 409.79,-208.48 425.5,-217 435.66,-222.51 447.24,-227.57 457.71,-231.75"/>
<polygon fill="#000000" fill-opacity="0.200000" stroke="#000000" stroke-width="2" stroke-opacity="0.200000" points="457.04,-233.74 463.39,-233.97 458.57,-229.83 457.04,-233.74"/>
</g>
<!-- hyperspace/hyper&#45;app/server/view&#45;engine/HyperViewEngine.mjs -->
<g id="node9" class="node">
<title>hyperspace/hyper&#45;app/server/view&#45;engine/HyperViewEngine.mjs</title>
<g id="a_node9"><a xlink:href="hyperspace/hyper-app/server/view-engine/HyperViewEngine.mjs" xlink:title="HyperViewEngine.mjs">
<path fill="#ffffcc" stroke="black" d="M537.5,-342C537.5,-342 442.5,-342 442.5,-342 439.5,-342 436.5,-339 436.5,-336 436.5,-336 436.5,-330 436.5,-330 436.5,-327 439.5,-324 442.5,-324 442.5,-324 537.5,-324 537.5,-324 540.5,-324 543.5,-327 543.5,-330 543.5,-330 543.5,-336 543.5,-336 543.5,-339 540.5,-342 537.5,-342"/>
<text text-anchor="start" x="444.5" y="-330.8" font-family="Helvetica,sans-Serif" font-size="9.00">HyperViewEngine.mjs</text>
</a>
</g>
</g>
<!-- hyperspace/hyper&#45;app/server/HyperServer.mjs&#45;&gt;hyperspace/hyper&#45;app/server/view&#45;engine/HyperViewEngine.mjs -->
<g id="edge10" class="edge">
<title>hyperspace/hyper&#45;app/server/HyperServer.mjs&#45;&gt;hyperspace/hyper&#45;app/server/view&#45;engine/HyperViewEngine.mjs</title>
<path fill="none" stroke="#000000" stroke-width="2" stroke-opacity="0.200000" d="M371.71,-188.13C375.33,-211.84 388.25,-275.96 425.5,-311 429.96,-315.2 435.26,-318.6 440.87,-321.35"/>
<polygon fill="#000000" fill-opacity="0.200000" stroke="#000000" stroke-width="2" stroke-opacity="0.200000" points="440.23,-323.37 446.57,-323.9 441.95,-319.53 440.23,-323.37"/>
</g>
<!-- hyperspace/hyper&#45;app/controllers/page/HyperPage.mjs&#45;&gt;hyperspace/hyper&#45;app/controllers/ControllerBase.mjs -->
<g id="edge6" class="edge">
<title>hyperspace/hyper&#45;app/controllers/page/HyperPage.mjs&#45;&gt;hyperspace/hyper&#45;app/controllers/ControllerBase.mjs</title>
<path fill="none" stroke="#000000" stroke-width="2" stroke-opacity="0.200000" d="M409.63,-69.06C417.85,-67.81 426.65,-66.47 435.29,-65.16"/>
<polygon fill="#000000" fill-opacity="0.200000" stroke="#000000" stroke-width="2" stroke-opacity="0.200000" points="435.62,-67.23 441.24,-64.25 434.99,-63.08 435.62,-67.23"/>
</g>
<!-- hyperspace/hyper&#45;app/controllers/page/HyperPage.mjs&#45;&gt;hyperspace/hyper&#45;app/controllers/Socket.mjs -->
<g id="edge7" class="edge">
<title>hyperspace/hyper&#45;app/controllers/page/HyperPage.mjs&#45;&gt;hyperspace/hyper&#45;app/controllers/Socket.mjs</title>
<path fill="none" stroke="#000000" stroke-width="2" stroke-opacity="0.200000" d="M409.63,-78.96C423.54,-80.37 439.14,-81.95 452.8,-83.33"/>
<polygon fill="#000000" fill-opacity="0.200000" stroke="#000000" stroke-width="2" stroke-opacity="0.200000" points="452.74,-85.44 458.92,-83.95 453.16,-81.26 452.74,-85.44"/>
</g>
<!-- hyperspace/hyper&#45;app/server/socket&#45;server/parseUrlParams.mjs -->
<g id="node10" class="node">
<title>hyperspace/hyper&#45;app/server/socket&#45;server/parseUrlParams.mjs</title>
<g id="a_node10"><a xlink:href="hyperspace/hyper-app/server/socket-server/parseUrlParams.mjs" xlink:title="parseUrlParams.mjs">
<path fill="#ffffcc" stroke="black" d="M674,-188C674,-188 582,-188 582,-188 579,-188 576,-185 576,-182 576,-182 576,-176 576,-176 576,-173 579,-170 582,-170 582,-170 674,-170 674,-170 677,-170 680,-173 680,-176 680,-176 680,-182 680,-182 680,-185 677,-188 674,-188"/>
<text text-anchor="start" x="584" y="-176.8" font-family="Helvetica,sans-Serif" font-size="9.00">parseUrlParams.mjs</text>
</a>
</g>
</g>
<!-- hyperspace/hyper&#45;app/server/socket&#45;server/HyperSocketServer.mjs&#45;&gt;hyperspace/hyper&#45;app/server/socket&#45;server/parseUrlParams.mjs -->
<g id="edge11" class="edge">
<title>hyperspace/hyper&#45;app/server/socket&#45;server/HyperSocketServer.mjs&#45;&gt;hyperspace/hyper&#45;app/server/socket&#45;server/parseUrlParams.mjs</title>
<path fill="none" stroke="#000000" stroke-width="2" stroke-opacity="0.200000" d="M546.71,-179C554.27,-179 562.05,-179 569.64,-179"/>
<polygon fill="#000000" fill-opacity="0.200000" stroke="#000000" stroke-width="2" stroke-opacity="0.200000" points="569.97,-181.1 575.97,-179 569.97,-176.9 569.97,-181.1"/>
</g>
<!-- hyperspace/hyper&#45;app/server/static/file&#45;watcher/StaticFileWatcher.mjs -->
<g id="node11" class="node">
<title>hyperspace/hyper&#45;app/server/static/file&#45;watcher/StaticFileWatcher.mjs</title>
<g id="a_node11"><a xlink:href="hyperspace/hyper-app/server/static/file-watcher/StaticFileWatcher.mjs" xlink:title="StaticFileWatcher.mjs">
<path fill="#ffffcc" stroke="black" d="M675,-256C675,-256 581,-256 581,-256 578,-256 575,-253 575,-250 575,-250 575,-244 575,-244 575,-241 578,-238 581,-238 581,-238 675,-238 675,-238 678,-238 681,-241 681,-244 681,-244 681,-250 681,-250 681,-253 678,-256 675,-256"/>
<text text-anchor="start" x="583" y="-244.8" font-family="Helvetica,sans-Serif" font-size="9.00">StaticFileWatcher.mjs</text>
</a>
</g>
</g>
<!-- hyperspace/hyper&#45;app/server/static/StaticLoader.mjs&#45;&gt;hyperspace/hyper&#45;app/server/static/file&#45;watcher/StaticFileWatcher.mjs -->
<g id="edge12" class="edge">
<title>hyperspace/hyper&#45;app/server/static/StaticLoader.mjs&#45;&gt;hyperspace/hyper&#45;app/server/static/file&#45;watcher/StaticFileWatcher.mjs</title>
<path fill="none" stroke="#000000" stroke-width="2" stroke-opacity="0.200000" d="M533.29,-244.24C544.44,-244.57 556.68,-244.93 568.52,-245.28"/>
<polygon fill="#000000" fill-opacity="0.200000" stroke="#000000" stroke-width="2" stroke-opacity="0.200000" points="568.61,-247.38 574.67,-245.46 568.74,-243.19 568.61,-247.38"/>
</g>
<!-- hyperspace/hyper&#45;app/server/view&#45;engine/mergeTemplateAndState.mjs -->
<g id="node12" class="node">
<title>hyperspace/hyper&#45;app/server/view&#45;engine/mergeTemplateAndState.mjs</title>
<g id="a_node12"><a xlink:href="hyperspace/hyper-app/server/view-engine/mergeTemplateAndState.mjs" xlink:title="mergeTemplateAndState.mjs">
<path fill="#ffffcc" stroke="black" d="M690.5,-342C690.5,-342 565.5,-342 565.5,-342 562.5,-342 559.5,-339 559.5,-336 559.5,-336 559.5,-330 559.5,-330 559.5,-327 562.5,-324 565.5,-324 565.5,-324 690.5,-324 690.5,-324 693.5,-324 696.5,-327 696.5,-330 696.5,-330 696.5,-336 696.5,-336 696.5,-339 693.5,-342 690.5,-342"/>
<text text-anchor="start" x="567.5" y="-330.8" font-family="Helvetica,sans-Serif" font-size="9.00">mergeTemplateAndState.mjs</text>
</a>
</g>
</g>
<!-- hyperspace/hyper&#45;app/server/view&#45;engine/HyperViewEngine.mjs&#45;&gt;hyperspace/hyper&#45;app/server/view&#45;engine/mergeTemplateAndState.mjs -->
<g id="edge13" class="edge">
<title>hyperspace/hyper&#45;app/server/view&#45;engine/HyperViewEngine.mjs&#45;&gt;hyperspace/hyper&#45;app/server/view&#45;engine/mergeTemplateAndState.mjs</title>
<path fill="none" stroke="#000000" stroke-width="2" stroke-opacity="0.200000" d="M543.58,-333C546.6,-333 549.66,-333 552.74,-333"/>
<polygon fill="#000000" fill-opacity="0.200000" stroke="#000000" stroke-width="2" stroke-opacity="0.200000" points="553.07,-335.1 559.07,-333 553.07,-330.9 553.07,-335.1"/>
</g>
<!-- hyperspace/hyperspace.test.js -->
<g id="node13" class="node">
<title>hyperspace/hyperspace.test.js</title>
<g id="a_node13"><a xlink:href="hyperspace/hyperspace.test.js" xlink:title="hyperspace.test.js">
<path fill="#ffffcc" stroke="black" d="M102,-46C102,-46 22,-46 22,-46 19,-46 16,-43 16,-40 16,-40 16,-34 16,-34 16,-31 19,-28 22,-28 22,-28 102,-28 102,-28 105,-28 108,-31 108,-34 108,-34 108,-40 108,-40 108,-43 105,-46 102,-46"/>
<text text-anchor="start" x="24" y="-34.8" font-family="Helvetica,sans-Serif" font-size="9.00">hyperspace.test.js</text>
</a>
</g>
</g>
<!-- hyperspace/hyperspace.test.js&#45;&gt;hyperspace/createApp.mjs -->
<g id="edge14" class="edge">
<title>hyperspace/hyperspace.test.js&#45;&gt;hyperspace/createApp.mjs</title>
<path fill="none" stroke="#000000" stroke-width="2" stroke-opacity="0.200000" d="M86.97,-46.08C99.46,-50.82 114.85,-56.65 128.11,-61.67"/>
<polygon fill="#000000" fill-opacity="0.200000" stroke="#000000" stroke-width="2" stroke-opacity="0.200000" points="127.68,-63.76 134.04,-63.92 129.17,-59.83 127.68,-63.76"/>
</g>
<!-- hyperspace/hyperspace.test.js&#45;&gt;hyperspace/hyper&#45;app/controllers/app/HyperApp.mjs -->
<g id="edge15" class="edge">
<title>hyperspace/hyperspace.test.js&#45;&gt;hyperspace/hyper&#45;app/controllers/app/HyperApp.mjs</title>
<path fill="none" stroke="#000000" stroke-width="2" stroke-opacity="0.200000" d="M108.14,-41.75C134.35,-45.09 167.85,-50.34 197,-58 200.67,-58.97 201.36,-59.93 205,-61 210.75,-62.69 216.87,-64.27 222.92,-65.7"/>
<polygon fill="#000000" fill-opacity="0.200000" stroke="#000000" stroke-width="2" stroke-opacity="0.200000" points="222.62,-67.78 228.93,-67.08 223.55,-63.69 222.62,-67.78"/>
</g>
<!-- hyperspace/hyperspace.test.js&#45;&gt;hyperspace/hyper&#45;app/controllers/Socket.mjs -->
<g id="edge16" class="edge">
<title>hyperspace/hyperspace.test.js&#45;&gt;hyperspace/hyper&#45;app/controllers/Socket.mjs</title>
<path fill="none" stroke="#000000" stroke-width="2" stroke-opacity="0.200000" d="M108.2,-29.3C112.52,-28.77 116.83,-28.32 121,-28 154.68,-25.4 163.22,-27.85 197,-28 247.67,-28.22 260.72,-22.73 311,-29 359.35,-35.03 379.77,-24.17 417.5,-55 423.97,-60.28 419.01,-66.74 425.5,-72 433.22,-78.26 443.12,-82 452.78,-84.2"/>
<polygon fill="#000000" fill-opacity="0.200000" stroke="#000000" stroke-width="2" stroke-opacity="0.200000" points="452.46,-86.27 458.75,-85.38 453.27,-82.15 452.46,-86.27"/>
</g>
<!-- hyperspace/hyperspace.test.js&#45;&gt;hyperspace/hyper&#45;app/server/HyperServer.mjs -->
<g id="edge17" class="edge">
<title>hyperspace/hyperspace.test.js&#45;&gt;hyperspace/hyper&#45;app/server/HyperServer.mjs</title>
<path fill="none" stroke="#000000" stroke-width="2" stroke-opacity="0.200000" d="M108.26,-33.42C171.91,-29.46 283.25,-26.83 311,-54 320.45,-63.26 313.98,-100.76 319,-113 327.25,-133.12 343.13,-152.59 354.68,-165.11"/>
<polygon fill="#000000" fill-opacity="0.200000" stroke="#000000" stroke-width="2" stroke-opacity="0.200000" points="353.38,-166.79 359.03,-169.71 356.44,-163.9 353.38,-166.79"/>
</g>
<!-- hyperspace/webbify.mjs -->
<g id="node14" class="node">
<title>hyperspace/webbify.mjs</title>
<g id="a_node14"><a xlink:href="hyperspace/webbify.mjs" xlink:title="webbify.mjs">
<path fill="#ffffcc" stroke="black" d="M88.5,-82C88.5,-82 35.5,-82 35.5,-82 32.5,-82 29.5,-79 29.5,-76 29.5,-76 29.5,-70 29.5,-70 29.5,-67 32.5,-64 35.5,-64 35.5,-64 88.5,-64 88.5,-64 91.5,-64 94.5,-67 94.5,-70 94.5,-70 94.5,-76 94.5,-76 94.5,-79 91.5,-82 88.5,-82"/>
<text text-anchor="start" x="37.5" y="-70.8" font-family="Helvetica,sans-Serif" font-size="9.00">webbify.mjs</text>
</a>
</g>
</g>
<!-- hyperspace/webbify.mjs&#45;&gt;hyperspace/createApp.mjs -->
<g id="edge18" class="edge">
<title>hyperspace/webbify.mjs&#45;&gt;hyperspace/createApp.mjs</title>
<path fill="none" stroke="#000000" stroke-width="2" stroke-opacity="0.200000" d="M94.63,-73C101.08,-73 107.97,-73 114.74,-73"/>
<polygon fill="#000000" fill-opacity="0.200000" stroke="#000000" stroke-width="2" stroke-opacity="0.200000" points="114.91,-75.1 120.91,-73 114.91,-70.9 114.91,-75.1"/>
</g>
</g>
</svg>
