<?xml version="1.0" encoding="UTF-8" standalone="no"?>
<!DOCTYPE svg PUBLIC "-//W3C//DTD SVG 1.1//EN"
 "http://www.w3.org/Graphics/SVG/1.1/DTD/svg11.dtd">
<!-- Generated by graphviz version 3.0.0 (20220226.1711)
 -->
<!-- Title: G Pages: 1 -->
<svg width="307pt" height="558pt"
 viewBox="0.00 0.00 307.20 558.20" xmlns="http://www.w3.org/2000/svg" xmlns:xlink="http://www.w3.org/1999/xlink">
<g id="graph0" class="graph" transform="scale(1 1) rotate(0) translate(21.6 536.6)">
<title>G</title>
<polygon fill="#111111" stroke="transparent" points="-21.6,21.6 -21.6,-536.6 285.6,-536.6 285.6,21.6 -21.6,21.6"/>
<!-- HyperApp.mjs -->
<g id="node1" class="node">
<title>HyperApp.mjs</title>
<path fill="none" stroke="#cfffac" d="M177.83,-23C177.83,-23 86.17,-23 86.17,-23 82.33,-23 78.5,-19.17 78.5,-15.33 78.5,-15.33 78.5,-7.67 78.5,-7.67 78.5,-3.83 82.33,0 86.17,0 86.17,0 177.83,0 177.83,0 181.67,0 185.5,-3.83 185.5,-7.67 185.5,-7.67 185.5,-15.33 185.5,-15.33 185.5,-19.17 181.67,-23 177.83,-23"/>
<text text-anchor="middle" x="132" y="-7.8" font-family="Arial" font-size="14.00" fill="#cfffac">HyperApp.mjs</text>
</g>
<!-- HyperAppSchema.mjs -->
<g id="node2" class="node">
<title>HyperAppSchema.mjs</title>
<path fill="none" stroke="#cfffac" d="M203.83,-64C203.83,-64 60.17,-64 60.17,-64 56.33,-64 52.5,-60.17 52.5,-56.33 52.5,-56.33 52.5,-48.67 52.5,-48.67 52.5,-44.83 56.33,-41 60.17,-41 60.17,-41 203.83,-41 203.83,-41 207.67,-41 211.5,-44.83 211.5,-48.67 211.5,-48.67 211.5,-56.33 211.5,-56.33 211.5,-60.17 207.67,-64 203.83,-64"/>
<text text-anchor="middle" x="132" y="-48.8" font-family="Arial" font-size="14.00" fill="#cfffac">HyperAppSchema.mjs</text>
</g>
<!-- HyperSource.mjs -->
<g id="node3" class="node">
<title>HyperSource.mjs</title>
<path fill="none" stroke="#cfffac" d="M187.33,-105C187.33,-105 76.67,-105 76.67,-105 72.83,-105 69,-101.17 69,-97.33 69,-97.33 69,-89.67 69,-89.67 69,-85.83 72.83,-82 76.67,-82 76.67,-82 187.33,-82 187.33,-82 191.17,-82 195,-85.83 195,-89.67 195,-89.67 195,-97.33 195,-97.33 195,-101.17 191.17,-105 187.33,-105"/>
<text text-anchor="middle" x="132" y="-89.8" font-family="Arial" font-size="14.00" fill="#cfffac">HyperSource.mjs</text>
</g>
<!-- Page.mjs -->
<g id="node4" class="node">
<title>Page.mjs</title>
<path fill="none" stroke="#cfffac" d="M162.83,-146C162.83,-146 101.17,-146 101.17,-146 97.33,-146 93.5,-142.17 93.5,-138.33 93.5,-138.33 93.5,-130.67 93.5,-130.67 93.5,-126.83 97.33,-123 101.17,-123 101.17,-123 162.83,-123 162.83,-123 166.67,-123 170.5,-126.83 170.5,-130.67 170.5,-130.67 170.5,-138.33 170.5,-138.33 170.5,-142.17 166.67,-146 162.83,-146"/>
<text text-anchor="middle" x="132" y="-130.8" font-family="Arial" font-size="14.00" fill="#cfffac">Page.mjs</text>
</g>
<!-- createApp.mjs -->
<g id="node5" class="node">
<title>createApp.mjs</title>
<path fill="none" stroke="#cfffac" d="M178.83,-187C178.83,-187 85.17,-187 85.17,-187 81.33,-187 77.5,-183.17 77.5,-179.33 77.5,-179.33 77.5,-171.67 77.5,-171.67 77.5,-167.83 81.33,-164 85.17,-164 85.17,-164 178.83,-164 178.83,-164 182.67,-164 186.5,-167.83 186.5,-171.67 186.5,-171.67 186.5,-179.33 186.5,-179.33 186.5,-183.17 182.67,-187 178.83,-187"/>
<text text-anchor="middle" x="132" y="-171.8" font-family="Arial" font-size="14.00" fill="#cfffac">createApp.mjs</text>
</g>
<!-- createAppSocket.mjs -->
<g id="node6" class="node">
<title>createAppSocket.mjs</title>
<path fill="none" stroke="#cfffac" d="M200.83,-228C200.83,-228 63.17,-228 63.17,-228 59.33,-228 55.5,-224.17 55.5,-220.33 55.5,-220.33 55.5,-212.67 55.5,-212.67 55.5,-208.83 59.33,-205 63.17,-205 63.17,-205 200.83,-205 200.83,-205 204.67,-205 208.5,-208.83 208.5,-212.67 208.5,-212.67 208.5,-220.33 208.5,-220.33 208.5,-224.17 204.67,-228 200.83,-228"/>
<text text-anchor="middle" x="132" y="-212.8" font-family="Arial" font-size="14.00" fill="#cfffac">createAppSocket.mjs</text>
</g>
<!-- createPageSocket.mjs -->
<g id="node7" class="node">
<title>createPageSocket.mjs</title>
<path fill="none" stroke="#cfffac" d="M204.83,-269C204.83,-269 59.17,-269 59.17,-269 55.33,-269 51.5,-265.17 51.5,-261.33 51.5,-261.33 51.5,-253.67 51.5,-253.67 51.5,-249.83 55.33,-246 59.17,-246 59.17,-246 204.83,-246 204.83,-246 208.67,-246 212.5,-249.83 212.5,-253.67 212.5,-253.67 212.5,-261.33 212.5,-261.33 212.5,-265.17 208.67,-269 204.83,-269"/>
<text text-anchor="middle" x="132" y="-253.8" font-family="Arial" font-size="14.00" fill="#cfffac">createPageSocket.mjs</text>
</g>
<!-- requestPage.mjs -->
<g id="node8" class="node">
<title>requestPage.mjs</title>
<path fill="none" stroke="#cfffac" d="M186.83,-310C186.83,-310 77.17,-310 77.17,-310 73.33,-310 69.5,-306.17 69.5,-302.33 69.5,-302.33 69.5,-294.67 69.5,-294.67 69.5,-290.83 73.33,-287 77.17,-287 77.17,-287 186.83,-287 186.83,-287 190.67,-287 194.5,-290.83 194.5,-294.67 194.5,-294.67 194.5,-302.33 194.5,-302.33 194.5,-306.17 190.67,-310 186.83,-310"/>
<text text-anchor="middle" x="132" y="-294.8" font-family="Arial" font-size="14.00" fill="#cfffac">requestPage.mjs</text>
</g>
<!-- viewEngine/createViewEngine.mjs -->
<g id="node9" class="node">
<title>viewEngine/createViewEngine.mjs</title>
<path fill="none" stroke="#cfffac" d="M240.83,-351C240.83,-351 23.17,-351 23.17,-351 19.33,-351 15.5,-347.17 15.5,-343.33 15.5,-343.33 15.5,-335.67 15.5,-335.67 15.5,-331.83 19.33,-328 23.17,-328 23.17,-328 240.83,-328 240.83,-328 244.67,-328 248.5,-331.83 248.5,-335.67 248.5,-335.67 248.5,-343.33 248.5,-343.33 248.5,-347.17 244.67,-351 240.83,-351"/>
<text text-anchor="middle" x="132" y="-335.8" font-family="Arial" font-size="14.00" fill="#cfffac">viewEngine/createViewEngine.mjs</text>
</g>
<!-- viewEngine/makeStaticFileLoaders.mjs -->
<g id="node10" class="node">
<title>viewEngine/makeStaticFileLoaders.mjs</title>
<path fill="none" stroke="#cfffac" d="M256.33,-392C256.33,-392 7.67,-392 7.67,-392 3.83,-392 0,-388.17 0,-384.33 0,-384.33 0,-376.67 0,-376.67 0,-372.83 3.83,-369 7.67,-369 7.67,-369 256.33,-369 256.33,-369 260.17,-369 264,-372.83 264,-376.67 264,-376.67 264,-384.33 264,-384.33 264,-388.17 260.17,-392 256.33,-392"/>
<text text-anchor="middle" x="132" y="-376.8" font-family="Arial" font-size="14.00" fill="#cfffac">viewEngine/makeStaticFileLoaders.mjs</text>
</g>
<!-- viewEngine/processStateHooks.mjs -->
<g id="node11" class="node">
<title>viewEngine/processStateHooks.mjs</title>
<path fill="none" stroke="#cfffac" d="M246.33,-433C246.33,-433 17.67,-433 17.67,-433 13.83,-433 10,-429.17 10,-425.33 10,-425.33 10,-417.67 10,-417.67 10,-413.83 13.83,-410 17.67,-410 17.67,-410 246.33,-410 246.33,-410 250.17,-410 254,-413.83 254,-417.67 254,-417.67 254,-425.33 254,-425.33 254,-429.17 250.17,-433 246.33,-433"/>
<text text-anchor="middle" x="132" y="-417.8" font-family="Arial" font-size="14.00" fill="#cfffac">viewEngine/processStateHooks.mjs</text>
</g>
<!-- viewEngine/staticHotUpdate.mjs -->
<g id="node12" class="node">
<title>viewEngine/staticHotUpdate.mjs</title>
<path fill="none" stroke="#cfffac" d="M233.83,-474C233.83,-474 30.17,-474 30.17,-474 26.33,-474 22.5,-470.17 22.5,-466.33 22.5,-466.33 22.5,-458.67 22.5,-458.67 22.5,-454.83 26.33,-451 30.17,-451 30.17,-451 233.83,-451 233.83,-451 237.67,-451 241.5,-454.83 241.5,-458.67 241.5,-458.67 241.5,-466.33 241.5,-466.33 241.5,-470.17 237.67,-474 233.83,-474"/>
<text text-anchor="middle" x="132" y="-458.8" font-family="Arial" font-size="14.00" fill="#cfffac">viewEngine/staticHotUpdate.mjs</text>
</g>
<!-- webbify.mjs -->
<g id="node13" class="node">
<title>webbify.mjs</title>
<path fill="none" stroke="#cfffac" d="M170.33,-515C170.33,-515 93.67,-515 93.67,-515 89.83,-515 86,-511.17 86,-507.33 86,-507.33 86,-499.67 86,-499.67 86,-495.83 89.83,-492 93.67,-492 93.67,-492 170.33,-492 170.33,-492 174.17,-492 178,-495.83 178,-499.67 178,-499.67 178,-507.33 178,-507.33 178,-511.17 174.17,-515 170.33,-515"/>
<text text-anchor="middle" x="132" y="-499.8" font-family="Arial" font-size="14.00" fill="#cfffac">webbify.mjs</text>
</g>
</g>
</svg>
