<?xml version="1.0" encoding="UTF-8" standalone="no"?>
<!DOCTYPE svg PUBLIC "-//W3C//DTD SVG 1.1//EN"
 "http://www.w3.org/Graphics/SVG/1.1/DTD/svg11.dtd">
<!-- Generated by graphviz version 4.0.0 (20220529.0937)
 -->
<!-- Title: dependency&#45;cruiser output Pages: 1 -->
<svg width="121pt" height="166pt"
 viewBox="0.00 0.00 121.00 166.00" xmlns="http://www.w3.org/2000/svg" xmlns:xlink="http://www.w3.org/1999/xlink">
<g id="graph0" class="graph" transform="scale(1 1) rotate(0) translate(4 162)">
<title>dependency&#45;cruiser output</title>
<polygon fill="white" stroke="transparent" points="-4,4 -4,-162 117,-162 117,4 -4,4"/>
<g id="clust1" class="cluster">
<title>cluster_js</title>
<path fill="#ffffff" stroke="black" stroke-width="2" d="M20,-8C20,-8 93,-8 93,-8 99,-8 105,-14 105,-20 105,-20 105,-138 105,-138 105,-144 99,-150 93,-150 93,-150 20,-150 20,-150 14,-150 8,-144 8,-138 8,-138 8,-20 8,-20 8,-14 14,-8 20,-8"/>
<text text-anchor="middle" x="56.5" y="-138.8" font-family="Helvetica,sans-Serif" font-weight="bold" font-size="9.00">js</text>
</g>
<!-- js/cssManager.js -->
<g id="node1" class="node">
<title>js/cssManager.js</title>
<g id="a_node1"><a xlink:href="js/cssManager.js" xlink:title="cssManager.js">
<path fill="#ccffcc" stroke="black" d="M89,-124C89,-124 24,-124 24,-124 21,-124 18,-121 18,-118 18,-118 18,-112 18,-112 18,-109 21,-106 24,-106 24,-106 89,-106 89,-106 92,-106 95,-109 95,-112 95,-112 95,-118 95,-118 95,-121 92,-124 89,-124"/>
<text text-anchor="start" x="26" y="-112.8" font-family="Helvetica,sans-Serif" font-size="9.00">cssManager.js</text>
</a>
</g>
</g>
<!-- js/domManager.js -->
<g id="node2" class="node">
<title>js/domManager.js</title>
<g id="a_node2"><a xlink:href="js/domManager.js" xlink:title="domManager.js">
<path fill="#ccffcc" stroke="black" d="M91,-94C91,-94 22,-94 22,-94 19,-94 16,-91 16,-88 16,-88 16,-82 16,-82 16,-79 19,-76 22,-76 22,-76 91,-76 91,-76 94,-76 97,-79 97,-82 97,-82 97,-88 97,-88 97,-91 94,-94 91,-94"/>
<text text-anchor="start" x="24" y="-82.8" font-family="Helvetica,sans-Serif" font-size="9.00">domManager.js</text>
</a>
</g>
</g>
<!-- js/e.js -->
<g id="node3" class="node">
<title>js/e.js</title>
<g id="a_node3"><a xlink:href="js/e.js" xlink:title="e.js">
<path fill="#ccffcc" stroke="black" d="M77.5,-64C77.5,-64 35.5,-64 35.5,-64 32.5,-64 29.5,-61 29.5,-58 29.5,-58 29.5,-52 29.5,-52 29.5,-49 32.5,-46 35.5,-46 35.5,-46 77.5,-46 77.5,-46 80.5,-46 83.5,-49 83.5,-52 83.5,-52 83.5,-58 83.5,-58 83.5,-61 80.5,-64 77.5,-64"/>
<text text-anchor="start" x="48.5" y="-52.8" font-family="Helvetica,sans-Serif" font-size="9.00">e.js</text>
</a>
</g>
</g>
<!-- js/p2p.js -->
<g id="node4" class="node">
<title>js/p2p.js</title>
<g id="a_node4"><a xlink:href="js/p2p.js" xlink:title="p2p.js">
<path fill="#ccffcc" stroke="black" d="M77.5,-34C77.5,-34 35.5,-34 35.5,-34 32.5,-34 29.5,-31 29.5,-28 29.5,-28 29.5,-22 29.5,-22 29.5,-19 32.5,-16 35.5,-16 35.5,-16 77.5,-16 77.5,-16 80.5,-16 83.5,-19 83.5,-22 83.5,-22 83.5,-28 83.5,-28 83.5,-31 80.5,-34 77.5,-34"/>
<text text-anchor="start" x="43.5" y="-22.8" font-family="Helvetica,sans-Serif" font-size="9.00">p2p.js</text>
</a>
</g>
</g>
</g>
</svg>
